<svg width="462" height="148" viewBox="0 0 462 148" fill="none" xmlns="http://www.w3.org/2000/svg">
<g clip-path="url(#clip0_74980_17828)">
<path d="M34.5 22.9298C42.7657 -3.23987 89.1415 -1.58997 97.5 22.93" stroke="#A9A9A9" stroke-width="3" stroke-linecap="round"/>
<path d="M46.75 22.93C55.25 8.92993 76.75 9.43008 85.25 22.93" stroke="#A9A9A9" stroke-width="3" stroke-linecap="round"/>
<path d="M63.75 26.5C72.49 24.73 74.78 35.7 68.06 37.9C58.91 40.89 55.23 28.23 63.75 26.5Z" fill="#A9A9A9"/>
<path d="M2.72977 68.4699C8.23977 66.9299 10.0198 74.8699 5.29977 76.1899C-0.210231 77.7299 -1.99023 69.7899 2.72977 68.4699Z" fill="#A9A9A9"/>
<path d="M125.73 68.47C131.24 66.93 133.02 74.87 128.3 76.19C122.79 77.73 121.01 69.79 125.73 68.47Z" fill="#A9A9A9"/>
<path d="M78.6502 82.32C78.6102 80.99 79.1202 79.65 79.9702 78.64C83.0902 74.94 89.8002 69.94 93.6702 65.86C96.2102 63.18 113.94 45.3 113.64 43.85C113.49 43.14 111.53 41.55 110.63 42.82L75.1302 78.33C73.4902 78.98 72.0202 74.45 71.8802 73.61C67.1902 45.77 95.1102 30.66 119.25 35.24C128.73 59.92 106.25 91.84 78.6502 82.33V82.32Z" fill="#6DD5CB"/>
<path d="M52.4465 82.32C52.4865 80.99 51.9765 79.65 51.1265 78.64C48.0065 74.94 41.2965 69.94 37.4265 65.86C34.8865 63.18 17.1565 45.3 17.4565 43.85C17.6065 43.14 19.5665 41.55 20.4665 42.82L55.9665 78.33C57.6065 78.98 59.0765 74.45 59.2165 73.61C63.9065 45.77 35.9865 30.66 11.8465 35.24C2.3665 59.92 24.8465 91.84 52.4465 82.33V82.32Z" fill="#84D284"/>
<path d="M120.81 88.1347C123.06 87.9847 127.94 86.6747 128.87 89.4647C129.75 92.0947 127.53 103.315 125.35 104.665C123.45 105.845 109.17 106.825 104.58 107.895C82.6703 112.995 60.0003 126.825 46.0603 144.345C44.3303 145.185 30.0103 137.875 30.0303 136.325C51.1303 110.625 87.2503 90.3847 120.81 88.1347Z" fill="#6DD5CB"/>
<path d="M123 109.835C113.11 133.795 83.4198 150.825 57.6298 147.705C56.2398 147.535 51.3198 146.655 51.0098 145.315C67.6598 124.595 96.4798 111.105 123 109.835Z" fill="#6DD5CB"/>
<path d="M64.0103 102.815L48.5603 111.725C35.0103 107.835 20.7003 103.425 6.45032 105.485C4.88032 105.245 -1.38968 88.9146 4.51032 87.8246C10.4103 86.7346 22.7303 89.1046 29.0503 90.2946C31.5703 90.7646 66.3703 99.6846 64.0103 102.815Z" fill="#84D284"/>
<path d="M41.5198 117.845C42.2898 116.845 43.4498 116.565 43.0098 114.845C30.5332 111.008 22.9574 109.902 8.00977 109.835C11.8198 119.725 19.0398 126.695 26.5098 133.815C31 128.435 37.3398 123.275 41.5198 117.845Z" fill="#84D284"/>
<path d="M63.7303 84.47C69.2403 82.93 71.0203 90.87 66.3003 92.19C60.7903 93.73 59.0103 85.79 63.7303 84.47Z" fill="#A9A9A9"/>
<path d="M32.7215 19.6272C38.2315 18.0872 40.0115 26.0272 35.2915 27.3472C29.7815 28.8872 28.0015 20.9472 32.7215 19.6272Z" fill="#A9A9A9"/>
<path d="M96.7215 19.6272C102.231 18.0872 104.011 26.0272 99.2915 27.3472C93.7815 28.8872 92.0015 20.9472 96.7215 19.6272Z" fill="#A9A9A9"/>
<path d="M63.7303 43.47C69.2403 41.93 71.0203 49.87 66.3003 51.19C60.7903 52.73 59.0103 44.79 63.7303 43.47Z" fill="#A9A9A9"/>
</g>
<path d="M175.58 120V34.3199H193.7V105H228.5V120H175.58ZM276.071 120H237.071V109.68L247.511 104.88V49.4399L237.071 44.6399V34.3199H276.071V44.6399L265.631 49.4399V104.88L276.071 109.68V120ZM367.232 120H344.192L306.872 55.1999H306.392C306.472 57.1999 306.552 59.2399 306.632 61.3199C306.712 63.3199 306.792 65.3599 306.872 67.4399C307.032 69.4399 307.152 71.4799 307.232 73.5599C307.312 75.5599 307.392 77.5999 307.472 79.6799V120H291.272V34.3199H314.192L351.392 98.5199H351.752C351.672 96.5199 351.592 94.5599 351.512 92.6399C351.432 90.6399 351.352 88.6799 351.272 86.7599C351.272 84.7599 351.232 82.7999 351.152 80.8799C351.072 78.8799 350.992 76.8799 350.912 74.8799V34.3199H367.232V120ZM441.929 120L435.689 99.5999H404.489L398.249 120H378.689L408.929 33.9599H431.129L461.489 120H441.929ZM425.129 64.4399C424.729 63.0799 424.209 61.3599 423.569 59.2799C422.929 57.1999 422.289 55.0799 421.649 52.9199C421.009 50.7599 420.489 48.8799 420.089 47.2799C419.689 48.8799 419.129 50.8799 418.409 53.2799C417.769 55.5999 417.129 57.8399 416.489 59.9999C415.929 62.0799 415.489 63.5599 415.169 64.4399L409.049 84.3599H431.369L425.129 64.4399Z" fill="#1A2A1A"/>
<defs>
<clipPath id="clip0_74980_17828">
<rect width="131.16" height="147.14" fill="white" transform="translate(0 0.429932)"/>
</clipPath>
</defs>
</svg>
