<svg width="162" height="179" viewBox="0 0 162 179" fill="none" xmlns="http://www.w3.org/2000/svg">
<g id="Group 6">
<g id="Group 5">
<path id="Vector 2" d="M43.0571 25.0846C53.1687 -6.92944 109.901 -4.91108 120.127 25.0848" stroke="#A9A9A9" stroke-width="3.66997" stroke-linecap="round"/>
<path id="Vector 1" d="M58.0425 25.085C68.4407 7.95839 94.7422 8.57023 105.14 25.085" stroke="#A9A9A9" stroke-width="3.66997" stroke-linecap="round"/>
<path id="Vector" d="M78.8407 29.4519C89.5326 27.2866 92.334 40.7065 84.1133 43.3978C72.9198 47.0555 68.418 31.5682 78.8407 29.4519Z" fill="#A9A9A9"/>
<path id="Vector_2" d="M4.1935 80.7949C10.934 78.911 13.1115 88.6242 7.33744 90.239C0.596922 92.1229 -1.5806 82.4097 4.1935 80.7949Z" fill="#A9A9A9"/>
<path id="Vector_3" d="M154.662 80.7949C161.403 78.911 163.58 88.6242 157.806 90.239C151.066 92.1229 148.888 82.4097 154.662 80.7949Z" fill="#A9A9A9"/>
</g>
<g id="Group 4">
<g id="Group 2">
<path id="Vector_4" d="M97.0659 97.7385C97.0169 96.1114 97.6408 94.4722 98.6807 93.2366C102.497 88.7103 110.706 82.5937 115.44 77.6025C118.547 74.324 140.237 52.451 139.87 50.6772C139.687 49.8086 137.289 47.8635 136.188 49.4171L92.7598 92.8574C90.7535 93.6526 88.9552 88.1109 88.784 87.0833C83.0466 53.0259 117.202 34.5415 146.733 40.1443C158.33 70.336 130.83 109.385 97.0659 97.7507V97.7385Z" fill="#6DD5CB"/>
<path id="Vector_5" d="M65.0127 97.7385C65.0617 96.1114 64.4378 94.4722 63.3979 93.2366C59.5812 88.7103 51.3727 82.5937 46.6384 77.6025C43.5312 74.324 21.8416 52.451 22.2086 50.6772C22.3921 49.8086 24.7898 47.8635 25.8908 49.4171L69.3188 92.8574C71.3251 93.6526 73.1234 88.1109 73.2946 87.0833C79.032 53.0259 44.8768 34.5415 15.3457 40.1443C3.74863 70.336 31.249 109.385 65.0127 97.7507V97.7385Z" fill="#84D284"/>
</g>
<path id="Vector_6" d="M148.641 104.851C151.394 104.668 157.364 103.065 158.501 106.478C159.578 109.695 156.862 123.421 154.195 125.073C151.871 126.516 134.402 127.715 128.787 129.024C101.984 135.263 74.251 152.181 57.1978 173.614C55.0815 174.642 37.5634 165.699 37.5879 163.803C63.4001 132.364 107.587 107.603 148.641 104.851Z" fill="#6DD5CB"/>
<path id="Vector_7" d="M151.319 131.397C139.22 160.708 102.9 181.541 71.3504 177.724C69.6499 177.516 63.6312 176.44 63.252 174.801C83.6203 149.453 118.877 132.951 151.319 131.397Z" fill="#6DD5CB"/>
<path id="Vector_8" d="M79.1584 122.81L60.258 133.71C43.682 128.951 26.1762 123.556 8.7438 126.076C6.82318 125.782 -0.847065 105.806 6.37055 104.472C13.5882 103.139 28.6595 106.038 36.3909 107.494C39.4737 108.069 82.0454 118.981 79.1584 122.81Z" fill="#84D284"/>
<path id="Vector_9" d="M51.643 141.196C52.585 139.973 54.004 139.63 53.4658 137.526C38.2029 132.832 28.9353 131.479 10.6494 131.397C15.3103 143.496 24.1427 152.022 33.2809 160.732C38.7739 154.151 46.5295 147.839 51.643 141.196Z" fill="#84D284"/>
<path id="Vector_10" d="M78.8146 100.369C85.5551 98.4846 87.7326 108.198 81.9585 109.813C75.218 111.697 73.0405 101.983 78.8146 100.369Z" fill="#A9A9A9"/>
<path id="Vector_11" d="M40.8815 21.0446C47.622 19.1607 49.7995 28.8739 44.0254 30.4886C37.2849 32.3726 35.1074 22.6594 40.8815 21.0446Z" fill="#A9A9A9"/>
<path id="Vector_12" d="M119.173 21.0446C125.914 19.1607 128.091 28.8739 122.317 30.4886C115.576 32.3726 113.399 22.6594 119.173 21.0446Z" fill="#A9A9A9"/>
<path id="Vector_13" d="M78.8146 50.2119C85.5551 48.328 87.7326 58.0412 81.9585 59.656C75.218 61.5399 73.0405 51.8267 78.8146 50.2119Z" fill="#A9A9A9"/>
</g>
</g>
</svg>
