<svg width="284" height="283" viewBox="0 0 284 283" fill="none" xmlns="http://www.w3.org/2000/svg">
<g clip-path="url(#clip0_75030_20667)">
<path d="M45.1073 123.409C43.4091 101.853 1.59681 66.4936 16.3099 48.5431C34.5928 26.2422 104.097 57.9013 135.192 51.8094C168.535 45.3056 226.542 -15.3967 255.874 -1.28341C290.691 15.5109 243.141 96.758 248.019 130.636C250.758 149.677 284.152 191.887 269.07 206.514C245.15 229.638 171.686 191.988 135.799 194.554C107.927 196.548 43.2646 233.071 23.9627 216.32C3.98877 198.976 47.0224 147.784 45.1073 123.409Z" fill="#315131"/>
<path opacity="0.9" d="M45.1073 123.409C43.4091 101.853 1.59681 66.4936 16.3099 48.5431C34.5928 26.2422 104.097 57.9013 135.192 51.8094C168.535 45.3056 226.542 -15.3967 255.874 -1.28341C290.691 15.5109 243.141 96.758 248.019 130.636C250.758 149.677 284.152 191.887 269.07 206.514C245.15 229.638 171.686 191.988 135.799 194.554C107.927 196.548 43.2646 233.071 23.9627 216.32C3.98877 198.976 47.0224 147.784 45.1073 123.409Z" fill="white"/>
<path d="M143.084 251.411C220.466 251.411 283.198 247.749 283.198 243.231C283.198 238.713 220.466 235.051 143.084 235.051C65.7009 235.051 2.96973 238.713 2.96973 243.231C2.96973 247.749 65.7009 251.411 143.084 251.411Z" fill="#F5F5F5"/>
<path d="M283.689 -0.0332031V159.122L264.539 178.273H153.678V-0.0332031H283.689Z" fill="#315131"/>
<path opacity="0.8" d="M283.689 -0.0332031V159.122L264.539 178.273H153.678V-0.0332031H283.689Z" fill="white"/>
<path opacity="0.2" d="M264.539 178.272V159.686H283.689L264.915 178.46" fill="black"/>
<path opacity="0.1" d="M202.875 15.4236H167.018C166.514 15.4236 166.03 15.2233 165.674 14.8669C165.317 14.5105 165.117 14.0271 165.117 13.523C165.116 13.2728 165.165 13.0249 165.26 12.7935C165.355 12.5621 165.495 12.3517 165.671 12.1744C165.848 11.9972 166.058 11.8566 166.289 11.7606C166.52 11.6646 166.768 11.6152 167.018 11.6152H202.875C203.38 11.6171 203.864 11.819 204.22 12.1766C204.576 12.5341 204.776 13.0183 204.776 13.523C204.776 14.0271 204.576 14.5105 204.219 14.8669C203.863 15.2233 203.38 15.4236 202.875 15.4236Z" fill="black"/>
<path opacity="0.1" d="M267.914 30.8455H181.471C181.221 30.8455 180.973 30.7961 180.742 30.7001C180.511 30.6041 180.301 30.4635 180.124 30.2862C179.948 30.109 179.808 29.8986 179.713 29.6672C179.618 29.4358 179.569 29.1879 179.57 28.9377C179.57 28.4336 179.771 27.9502 180.127 27.5938C180.483 27.2373 180.967 27.0371 181.471 27.0371H267.914C268.418 27.0371 268.901 27.2373 269.258 27.5938C269.614 27.9502 269.814 28.4336 269.814 28.9377C269.814 29.4424 269.614 29.9266 269.258 30.2841C268.902 30.6417 268.419 30.8435 267.914 30.8455Z" fill="black"/>
<path opacity="0.1" d="M267.914 38.3396H167.018C166.514 38.3396 166.03 38.1394 165.674 37.7829C165.317 37.4265 165.117 36.9431 165.117 36.439C165.116 36.1888 165.165 35.9409 165.26 35.7095C165.355 35.4781 165.495 35.2677 165.671 35.0905C165.848 34.9132 166.058 34.7726 166.289 34.6766C166.52 34.5806 166.768 34.5312 167.018 34.5313H267.914C268.418 34.5332 268.902 34.735 269.258 35.0926C269.614 35.4501 269.814 35.9343 269.814 36.439C269.814 36.9431 269.614 37.4265 269.258 37.7829C268.901 38.1394 268.418 38.3396 267.914 38.3396Z" fill="black"/>
<path opacity="0.1" d="M267.914 46.8103H167.018C166.768 46.8103 166.52 46.7609 166.289 46.6649C166.058 46.569 165.848 46.4283 165.671 46.2511C165.495 46.0738 165.355 45.8635 165.26 45.632C165.165 45.4006 165.116 45.1527 165.117 44.9025C165.117 44.3984 165.317 43.915 165.674 43.5586C166.03 43.2022 166.514 43.002 167.018 43.002H267.914C268.418 43.002 268.901 43.2022 269.258 43.5586C269.614 43.915 269.814 44.3984 269.814 44.9025C269.814 45.4072 269.614 45.8914 269.258 46.249C268.902 46.6065 268.418 46.8084 267.914 46.8103Z" fill="black"/>
<path opacity="0.1" d="M267.914 55.2699H167.018C166.514 55.2699 166.03 55.0696 165.674 54.7132C165.317 54.3568 165.117 53.8734 165.117 53.3693C165.117 52.8652 165.317 52.3818 165.674 52.0254C166.03 51.669 166.514 51.4687 167.018 51.4688H267.914C268.418 51.4687 268.901 51.669 269.258 52.0254C269.614 52.3818 269.814 52.8652 269.814 53.3693C269.814 53.8734 269.614 54.3568 269.258 54.7132C268.901 55.0696 268.418 55.2699 267.914 55.2699Z" fill="black"/>
<path opacity="0.1" d="M267.914 63.7406H167.018C166.514 63.7406 166.03 63.5403 165.674 63.1839C165.317 62.8275 165.117 62.3441 165.117 61.84C165.116 61.5902 165.165 61.3426 165.26 61.1116C165.355 60.8806 165.495 60.6707 165.672 60.494C165.848 60.3173 166.058 60.1774 166.289 60.0822C166.52 59.987 166.768 59.9385 167.018 59.9395H267.914C268.418 59.9395 268.901 60.1397 269.258 60.4961C269.614 60.8526 269.814 61.336 269.814 61.84C269.814 62.3441 269.614 62.8275 269.258 63.1839C268.901 63.5403 268.418 63.7406 267.914 63.7406Z" fill="black"/>
<path opacity="0.1" d="M267.914 72.2087H167.018C166.514 72.2087 166.03 72.0085 165.674 71.6521C165.317 71.2957 165.117 70.8122 165.117 70.3082C165.116 70.058 165.165 69.8101 165.26 69.5786C165.355 69.3472 165.495 69.1369 165.671 68.9596C165.848 68.7824 166.058 68.6417 166.289 68.5458C166.52 68.4498 166.768 68.4004 167.018 68.4004H267.914C268.418 68.4023 268.902 68.6041 269.258 68.9617C269.614 69.3193 269.814 69.8034 269.814 70.3082C269.814 70.8122 269.614 71.2957 269.258 71.6521C268.901 72.0085 268.418 72.2087 267.914 72.2087Z" fill="black"/>
<path opacity="0.1" d="M267.921 76.8711H167.018C165.968 76.8711 165.117 77.722 165.117 78.7717V78.7789C165.117 79.8285 165.968 80.6794 167.018 80.6794H267.921C268.971 80.6794 269.821 79.8285 269.821 78.7789V78.7717C269.821 77.722 268.971 76.8711 267.921 76.8711Z" fill="black"/>
<path opacity="0.1" d="M267.914 89.1351H167.018C166.514 89.1351 166.03 88.9349 165.674 88.5784C165.317 88.222 165.117 87.7386 165.117 87.2345C165.117 86.7305 165.317 86.2471 165.674 85.8906C166.03 85.5342 166.514 85.334 167.018 85.334H267.914C268.418 85.334 268.901 85.5342 269.258 85.8906C269.614 86.2471 269.814 86.7305 269.814 87.2345C269.814 87.7386 269.614 88.222 269.258 88.5784C268.901 88.9349 268.418 89.1351 267.914 89.1351Z" fill="black"/>
<path opacity="0.1" d="M267.914 97.6117H167.018C166.514 97.6117 166.03 97.4114 165.674 97.055C165.317 96.6986 165.117 96.2152 165.117 95.7111C165.116 95.4613 165.165 95.2137 165.26 94.9827C165.355 94.7517 165.495 94.5418 165.672 94.3651C165.848 94.1884 166.058 94.0485 166.289 93.9533C166.52 93.8581 166.768 93.8096 167.018 93.8106H267.914C268.418 93.8106 268.901 94.0108 269.258 94.3672C269.614 94.7236 269.814 95.2071 269.814 95.7111C269.814 96.2152 269.614 96.6986 269.258 97.055C268.901 97.4114 268.418 97.6117 267.914 97.6117Z" fill="black"/>
<path opacity="0.1" d="M267.914 106.08H167.018C166.514 106.08 166.03 105.88 165.674 105.523C165.317 105.167 165.117 104.683 165.117 104.179C165.116 103.929 165.165 103.681 165.26 103.45C165.355 103.218 165.495 103.008 165.671 102.831C165.848 102.653 166.058 102.513 166.289 102.417C166.52 102.321 166.768 102.271 167.018 102.271H267.914C268.418 102.273 268.902 102.475 269.258 102.833C269.614 103.19 269.814 103.675 269.814 104.179C269.814 104.683 269.614 105.167 269.258 105.523C268.901 105.88 268.418 106.08 267.914 106.08Z" fill="black"/>
<path opacity="0.1" d="M267.914 114.549H167.018C166.768 114.549 166.52 114.499 166.289 114.403C166.058 114.307 165.848 114.167 165.671 113.989C165.495 113.812 165.355 113.602 165.26 113.37C165.165 113.139 165.116 112.891 165.117 112.641C165.117 112.137 165.317 111.653 165.674 111.297C166.03 110.94 166.514 110.74 167.018 110.74H267.914C268.418 110.74 268.901 110.94 269.258 111.297C269.614 111.653 269.814 112.137 269.814 112.641C269.814 113.146 269.614 113.63 269.258 113.987C268.902 114.345 268.418 114.547 267.914 114.549Z" fill="black"/>
<path opacity="0.1" d="M210.102 123.012H167.018C166.514 123.012 166.03 122.812 165.674 122.455C165.317 122.099 165.117 121.616 165.117 121.112C165.117 120.607 165.317 120.124 165.674 119.768C166.03 119.411 166.514 119.211 167.018 119.211H210.102C210.606 119.211 211.089 119.411 211.446 119.768C211.802 120.124 212.002 120.607 212.002 121.112C212.002 121.616 211.802 122.099 211.446 122.455C211.089 122.812 210.606 123.012 210.102 123.012Z" fill="black"/>
<path d="M260.152 38.9677L260.015 38.8521C259.625 38.5558 259.401 38.657 259.22 38.0861C259.09 37.6742 259.22 37.2117 259.068 36.7853C258.724 36.0514 258.33 35.3416 257.89 34.6607L256.113 31.4594C255.716 30.7505 255.054 30.2278 254.273 30.0057C253.491 29.7836 252.653 29.8801 251.943 30.2743L235.575 39.3941C235.51 39.9433 235.055 40.3191 234.961 40.8394C234.928 40.9931 234.937 41.1526 234.985 41.3022C235.033 41.4517 235.119 41.5861 235.235 41.6921C235.052 41.6885 234.874 41.625 234.73 41.5114C233.754 40.9694 233.494 40.5359 232.489 41.0851C232.056 41.3163 231.629 41.562 231.203 41.8077L226.867 44.2286L213.281 51.7947L197.383 60.6688L184.137 68.047C182.33 69.0515 180.141 69.9331 178.529 71.2122C178.977 71.4434 179.057 71.7975 178.659 72.1444L177.937 72.802C177.937 72.9827 178.197 72.9827 178.363 72.9104L179.259 72.5274C178.637 73.3179 177.887 73.9992 177.041 74.5436C175.62 75.3685 174.093 75.9958 172.502 76.408L173.268 75.4469C173.326 75.3674 173.399 75.2662 173.348 75.1723C173.297 75.0783 173.203 75.0711 173.117 75.0639C172.734 75.0205 172.351 75.0639 172.069 74.7821C169.597 76.2274 167.01 77.6004 164.496 79.0023C163.787 79.3993 163.264 80.0609 163.042 80.8424C162.82 81.6239 162.916 82.4616 163.31 83.172L179.816 112.8C180.011 113.152 180.273 113.461 180.588 113.711C180.903 113.961 181.264 114.146 181.651 114.257C182.038 114.367 182.442 114.399 182.842 114.353C183.241 114.306 183.627 114.182 183.978 113.986L188.321 111.536C188.321 111.023 188.726 110.452 188.422 109.982C188.379 109.925 188.352 109.858 188.343 109.787C188.343 109.693 188.43 109.621 188.509 109.57C188.954 109.288 189.464 109.123 189.991 109.093C190.171 109.093 190.41 109.173 190.381 109.346C190.381 109.187 191.313 108.855 191.465 108.804C191.537 109.194 191.27 109.614 191.725 109.693C192.18 109.773 192.874 108.97 193.17 108.826L197.506 106.405L211.236 98.7667L226.296 90.3768L236.305 84.7979C236.666 84.5884 237.093 84.3427 237.439 84.1692C237.565 83.5065 237.887 82.8971 238.364 82.4204C239.087 81.9218 240.229 82.471 240.829 81.7628C240.944 81.6255 241.017 81.4593 241.118 81.3148C241.32 81.0797 241.565 80.8859 241.84 80.7439C242.015 80.6067 242.226 80.5238 242.447 80.5054C242.664 80.5054 242.895 80.6861 242.867 80.9029C244.355 80.556 245.699 79.5515 247.015 78.8072C247.492 78.5398 251.676 76.5742 251.661 76.2635C251.603 75.3024 252.189 74.4786 252.16 73.4885C252.16 73.3006 251.791 72.0432 251.957 71.9493C248.2 74.1895 244.297 76.2274 240.467 78.3519C240.337 78.4314 239.846 78.5976 239.745 78.7422C239.745 78.7422 239.709 78.8072 239.694 78.8433L239.586 79.0818V79.1396C239.43 79.6314 239.247 80.114 239.037 80.5849C239.037 80.65 238.22 81.6617 238.155 81.4232C237.837 80.2597 237.432 80.0791 236.543 80.556L235.272 81.2787L231.232 83.5261L217.625 91.1139L201.589 100.046L188.227 107.489L182.627 110.604C181.509 108.58 180.384 106.559 179.252 104.541L177.084 100.646C176.865 100.106 176.54 99.6144 176.13 99.2003C175.819 98.969 175.292 99.0268 175.017 98.8173C174.345 98.3042 173.861 97.372 173.225 96.7722C172.792 96.3675 172.134 95.1535 172.315 94.4814C172.531 94.5681 172.748 94.6621 172.965 94.7271C172.852 94.2822 172.877 93.8132 173.037 93.383C170.869 89.7336 168.875 85.918 166.801 82.1892L166.664 81.9507L171.722 79.1324L175.415 77.0729C176.174 76.7464 176.9 76.3471 177.583 75.8805C178.052 75.4758 178.529 74.97 179.028 74.5364C179.363 74.2818 179.727 74.0683 180.112 73.9004L181.478 73.2356C181.548 73.1934 181.627 73.1686 181.709 73.1633C181.791 73.1723 181.871 73.1917 181.947 73.2211C182.67 73.3729 184.462 72.036 185.113 71.6747L189.318 69.3333L202.008 62.2586L217.82 53.4568L233.646 44.6333L246.379 37.5441L252.882 33.9309L253.186 33.7647L260.217 46.3893C260.652 47.2403 261.349 47.9292 262.205 48.3549C262.494 48.4488 262.819 48.6512 262.783 48.9475C262.747 49.2437 262.313 49.4894 262.414 49.793C262.515 50.0965 263.072 49.9808 263.202 50.2554C263.332 50.5301 262.978 50.9781 263.021 51.3539C263.171 51.8037 263.393 52.2261 263.679 52.604L265.724 56.2823C266.866 58.3202 268 60.3653 269.149 62.4248L256.647 69.3911C256.709 69.441 256.761 69.5023 256.799 69.5718L256.864 69.738C257.113 69.826 257.354 69.9322 257.587 70.056C257.687 70.1116 257.769 70.1937 257.825 70.2931C257.881 70.3926 257.909 70.5055 257.905 70.6196C257.903 70.7324 257.871 70.8427 257.813 70.9393C257.755 71.0358 257.672 71.115 257.572 71.1688L256.806 71.6024C256.779 71.77 256.702 71.9253 256.584 72.0479C256.467 72.1705 256.315 72.2545 256.149 72.2889C256.06 72.2964 255.97 72.2964 255.881 72.2889C255.805 72.3447 255.718 72.3832 255.626 72.4019C255.534 72.4206 255.438 72.4191 255.347 72.3973C255.183 72.347 255.045 72.2355 254.962 72.0861C254.878 71.9367 254.856 71.7609 254.899 71.5952C254.928 71.5209 254.967 71.4505 255.014 71.3856C254.959 71.2803 254.935 71.162 254.942 71.0435C254.95 70.9251 254.99 70.811 255.058 70.7136H254.826C254.696 70.7136 254.581 70.6413 254.458 70.6052C253.808 71.0066 253.302 71.6036 253.013 72.3106C252.981 72.3492 252.966 72.3983 252.969 72.4479C252.969 72.5491 253.128 72.5563 253.222 72.5997C253.439 72.7008 253.388 73.0188 253.28 73.2284C253.171 73.4379 253.041 73.7053 253.186 73.8932C253.241 73.9565 253.301 74.0145 253.367 74.0666C253.677 74.4207 253.2 75.4469 253.959 75.0278C253.906 74.8046 253.939 74.5695 254.053 74.3702C254.182 74.169 254.38 74.0223 254.61 73.9582C255.171 73.8219 255.745 73.7396 256.322 73.7126L271.389 65.2865C272.098 64.8896 272.621 64.2279 272.843 63.4464C273.065 62.6649 272.969 61.8273 272.575 61.1168L272.488 60.9651L265.681 48.7451L261.749 41.6776C261.366 41.0056 261.027 40.3046 260.608 39.6398C260.492 39.3931 260.339 39.1662 260.152 38.9677Z" fill="#315131"/>
<path d="M190.532 78.8949C190.034 78.2878 190.185 78.2734 190.091 77.623C190.091 77.623 190.091 77.623 190.091 77.5796L190.034 77.5146L189.947 77.4134C189.607 77.5652 189.268 77.7314 188.928 77.9193L182.272 81.6265L184.953 86.4321C184.578 85.7672 185.907 85.9623 185.958 85.9551C186.099 85.9135 186.245 85.8893 186.392 85.8828C186.536 85.9136 186.663 85.999 186.746 86.1213C187.024 86.6073 187.106 87.1809 186.977 87.7256C186.897 88.4482 187.28 89.1709 186.868 89.8935C187.223 90.4717 190.424 96.2962 190.438 96.2889L197.094 92.5818C197.477 92.365 198.387 91.982 198.611 91.599C198.836 91.216 198.481 90.6162 198.879 90.4355C199.029 90.3806 199.189 90.3599 199.348 90.3749C199.506 90.3899 199.66 90.4403 199.797 90.5222C201.064 89.2672 201.879 87.6266 202.113 85.8582C202.347 84.0898 201.987 82.2938 201.09 80.7521C199.219 77.3917 194.969 75.39 191.248 76.9509C190.988 77.0593 191.334 78.2228 190.713 78.3529C190.832 78.1199 191.002 77.9172 191.212 77.7603M195.36 89.8574L192.259 91.5845C192.006 91.1293 191.761 90.674 191.501 90.2332C191.826 90.7824 190.93 90.6089 190.742 90.4861C190.287 90.1826 190.164 89.3082 190.149 88.8168C190.138 87.9741 189.888 87.1519 189.427 86.4465C188.699 85.1313 187.977 83.8161 187.259 82.5009L190.359 80.7737C193.249 79.155 196.14 79.8271 197.701 82.6309C199.262 85.4348 198.272 88.2604 195.36 89.8574Z" fill="#315131"/>
<path d="M212.537 66.5873C212.695 66.9306 212.741 67.315 212.667 67.6857C212.631 67.8881 212.306 68.4084 212.349 68.5384C212.465 68.8275 212.581 69.1166 212.689 69.4056C212.709 69.4529 212.735 69.4968 212.769 69.5357C212.824 69.5731 212.89 69.5932 212.957 69.5935C214.106 69.6947 214.055 69.8103 214.127 70.7787C214.192 71.6097 214.908 72.0866 215.312 72.8093C215.856 73.7588 216.092 74.8532 215.988 75.9423C215.885 77.0314 215.446 78.0617 214.734 78.8917C214.021 79.7217 213.069 80.3106 212.008 80.5775C210.947 80.8445 209.829 80.7764 208.809 80.3826C208.781 80.4088 208.752 80.433 208.722 80.4549C208.57 80.5314 208.396 80.5519 208.23 80.5127C207.855 80.4063 207.515 80.2004 207.246 79.9168C206.978 79.6331 206.791 79.2822 206.706 78.9012C206.695 78.8439 206.695 78.7851 206.706 78.7278C206.501 78.4747 206.32 78.2038 206.164 77.9184C205.792 77.3213 205.548 76.6539 205.447 75.9582C205.345 75.2624 205.388 74.5531 205.573 73.8748C205.759 73.1964 206.082 72.5636 206.523 72.0159C206.964 71.4683 207.513 71.0175 208.136 70.6919C209.04 70.1765 210.076 69.9401 211.114 70.0126L211.056 69.9259C210.434 69.1021 212.675 68.7697 211.663 68.2133C211.237 67.982 211.309 66.9342 211.2 66.5078C209.559 66.5449 207.952 66.9894 206.525 67.8013C201.9 70.3812 200.303 75.4903 202.731 79.8479C203.753 81.7226 205.442 83.1441 207.464 83.8296C207.94 84.0366 208.449 84.1542 208.968 84.1765C209.56 84.1259 209.271 84.1765 209.524 83.8224C209.777 83.4683 209.625 83.3166 210.008 82.9408C210.391 82.565 210.839 82.341 210.919 81.7629C210.919 82.023 211.208 82.2109 211.208 82.4855C211.208 82.565 211.208 82.6445 211.208 82.7168C211.223 82.8112 211.266 82.8992 211.331 82.9697C211.576 83.3021 211.988 83.6923 211.995 84.0753C213.053 83.9 214.068 83.5274 214.987 82.9769C219.59 80.4115 221.224 75.3096 218.781 70.9376C217.516 68.7047 215.139 66.7318 212.537 66.5873Z" fill="#315131"/>
<path d="M227.316 56.5281L232.273 65.4239L220.031 60.5822L217.228 62.1503C219.121 65.5467 221.13 68.907 222.908 72.3685C223.03 71.9927 223.319 71.9205 223.666 71.8699C224.317 71.7832 224.295 72.1084 224.649 72.7515C224.692 72.831 224.743 72.9105 224.823 72.925C224.902 72.9394 225.061 72.8093 225.191 72.8238C225.321 72.8382 225.372 72.9972 225.336 73.1201C225.29 73.2404 225.229 73.3545 225.155 73.4597C224.945 73.8572 225.292 74.1101 225.249 74.4714C225.249 74.6593 224.62 75.4253 224.692 75.5554L225.415 76.7983L228.768 74.9339L227.872 73.3296H227.706C226.73 73.4597 227.164 72.1806 226.947 71.6531C226.596 70.9058 226.198 70.1817 225.755 69.4852L223.782 66.0092L233.733 69.926C233.707 69.6402 233.741 69.3521 233.834 69.0805C233.913 68.9287 234.557 68.6469 234.557 68.5024C234.594 68.9684 234.812 69.4015 235.164 69.7092C235.547 70.0488 235.547 69.9982 235.474 70.598L236.067 70.8365L238.856 69.2828L230.69 54.6348L227.316 56.5281Z" fill="#315131"/>
<path d="M244.16 62.7801L242.267 59.3908L249.074 55.5969L247.629 52.9593L240.829 56.7532L239.059 53.5663L243.655 51.0081C243.849 50.7578 244.095 50.5531 244.377 50.4083C244.52 50.335 244.685 50.317 244.84 50.3578L246.784 49.281C246.784 49.281 245.403 46.8168 245.273 46.5566C244.608 46.8602 245.273 47.6984 244.601 48.1031C244.739 48.2476 244.941 48.7607 244.601 48.8257C244.406 48.8257 244.262 48.5801 244.066 48.6017C243.871 48.6234 243.864 48.7174 243.763 48.6884C243.732 48.6798 243.704 48.6642 243.68 48.6429C243.656 48.6216 243.638 48.5952 243.626 48.5656C243.532 48.3477 243.413 48.1415 243.272 47.9513C242.816 47.5105 238.661 50.2783 238.083 50.6035L234.217 52.7714L242.375 67.4194L245.635 65.6056L245.7 65.5189C245.938 65.2154 246.169 64.9046 246.422 64.6228C246.525 64.5252 246.656 64.4633 246.797 64.4464C246.938 64.4294 247.08 64.4584 247.203 64.5289C247.261 64.5592 247.313 64.601 247.355 64.6517L253.721 61.1035L252.203 58.3791L244.16 62.7801Z" fill="#315131"/>
<path d="M252.854 218.64C252.854 218.64 248.099 208.277 253.526 198.052C258.953 187.826 260.536 185.42 257.074 183.332C253.613 181.243 252.016 191.505 252.016 191.505C252.016 191.505 249.125 184.437 251.503 177.052C253.88 169.666 255.427 157.613 252.139 156.319C248.851 155.026 251.51 171.343 248.655 176.907C247.2 173.002 246.26 168.923 245.859 164.774C245.469 158.834 246.083 149.353 243.481 146.917C240.88 144.482 239.225 146.195 241.776 159.275C243.309 167.109 244.158 175.061 244.312 183.043C244.312 183.043 238.668 165.844 234.918 165.345C231.167 164.846 231.138 170.403 234.383 175.238C237.628 180.072 243.843 188.715 244.862 193.196C244.862 193.196 238.676 180.26 233.104 184.22C227.532 188.181 237.953 196.007 242.592 198.832C247.232 201.658 250.462 219.356 250.462 219.356L252.854 218.64Z" fill="#315131"/>
<path opacity="0.2" d="M252.854 218.64C252.854 218.64 248.099 208.277 253.526 198.052C258.953 187.826 260.536 185.42 257.074 183.332C253.613 181.243 252.016 191.505 252.016 191.505C252.016 191.505 249.125 184.437 251.503 177.052C253.88 169.666 255.427 157.613 252.139 156.319C248.851 155.026 251.51 171.343 248.655 176.907C247.2 173.002 246.26 168.923 245.859 164.774C245.469 158.834 246.083 149.353 243.481 146.917C240.88 144.482 239.225 146.195 241.776 159.275C243.309 167.109 244.158 175.061 244.312 183.043C244.312 183.043 238.668 165.844 234.918 165.345C231.167 164.846 231.138 170.403 234.383 175.238C237.628 180.072 243.843 188.715 244.862 193.196C244.862 193.196 238.676 180.26 233.104 184.22C227.532 188.181 237.953 196.007 242.592 198.832C247.232 201.658 250.462 219.356 250.462 219.356L252.854 218.64Z" fill="black"/>
<path d="M249.096 222.897C249.096 222.897 253.728 212.455 248.178 202.316C242.628 192.177 241.017 189.792 244.457 187.646C247.897 185.5 249.602 195.747 249.602 195.747C249.602 195.747 252.435 188.643 249.942 181.294C247.448 173.945 245.786 161.913 249.06 160.576C252.334 159.239 249.869 175.592 252.789 181.106C254.199 177.183 255.088 173.092 255.434 168.937C255.759 162.99 255.029 153.516 257.602 151.044C260.174 148.573 261.858 150.235 259.459 163.38C258.021 171.232 257.269 179.194 257.211 187.176C257.211 187.176 262.646 169.898 266.425 169.342C270.205 168.785 270.262 174.35 267.083 179.227C263.903 184.105 257.761 192.849 256.785 197.294C256.785 197.294 262.819 184.286 268.434 188.152C274.049 192.018 263.73 200.003 259.126 202.894C254.523 205.785 251.481 223.547 251.481 223.547L249.096 222.897Z" fill="#315131"/>
<path d="M270.443 215.453H232.215L235.308 242.813H267.35L270.443 215.453Z" fill="#263238"/>
<path d="M74.8875 43.4277H49.6599C48.6882 43.4277 47.7563 43.8137 47.0692 44.5008C46.3821 45.1879 45.9961 46.1199 45.9961 47.0916V71.6182C45.9961 72.5899 46.3821 73.5218 47.0692 74.2089C47.7563 74.896 48.6882 75.282 49.6599 75.282H57.7319L52.2976 82.6674L61.692 75.282H74.8803C75.852 75.282 76.7839 74.896 77.471 74.2089C78.1581 73.5218 78.5441 72.5899 78.5441 71.6182V47.0916C78.5441 46.1211 78.1591 45.1903 77.4735 44.5034C76.788 43.8165 75.858 43.4296 74.8875 43.4277Z" fill="#315131"/>
<path opacity="0.6" d="M74.8875 43.4277H49.6599C48.6882 43.4277 47.7563 43.8137 47.0692 44.5008C46.3821 45.1879 45.9961 46.1199 45.9961 47.0916V71.6182C45.9961 72.5899 46.3821 73.5218 47.0692 74.2089C47.7563 74.896 48.6882 75.282 49.6599 75.282H57.7319L52.2976 82.6674L61.692 75.282H74.8803C75.852 75.282 76.7839 74.896 77.471 74.2089C78.1581 73.5218 78.5441 72.5899 78.5441 71.6182V47.0916C78.5441 46.1211 78.1591 45.1903 77.4735 44.5034C76.788 43.8165 75.858 43.4296 74.8875 43.4277Z" fill="white"/>
<path d="M62.2772 70.8083C68.603 70.8083 73.7311 65.6802 73.7311 59.3543C73.7311 53.0285 68.603 47.9004 62.2772 47.9004C55.9513 47.9004 50.8232 53.0285 50.8232 59.3543C50.8232 65.6802 55.9513 70.8083 62.2772 70.8083Z" fill="#315131"/>
<path opacity="0.2" d="M71.8322 61.6041C73.0781 56.3253 69.8088 51.0359 64.53 49.79C59.2511 48.5441 53.9618 51.8134 52.7159 57.0922C51.47 62.3711 54.7393 67.6604 60.0181 68.9063C65.2969 70.1522 70.5863 66.8829 71.8322 61.6041Z" fill="black"/>
<path d="M61.056 64.0445C60.923 64.0474 60.7906 64.024 60.6666 63.9756C60.5426 63.9273 60.4294 63.8549 60.3334 63.7627L56.1637 59.6797C55.9721 59.4938 55.8621 59.2394 55.858 58.9724C55.854 58.7054 55.9561 58.4478 56.142 58.2561C56.3279 58.0645 56.5824 57.9545 56.8494 57.9504C57.1163 57.9464 57.374 58.0485 57.5656 58.2344L60.9838 61.5803L66.895 54.9825C67.0763 54.7999 67.3207 54.6937 67.5779 54.686C67.8352 54.6783 68.0855 54.7696 68.2774 54.9411C68.4693 55.1126 68.588 55.3511 68.6091 55.6076C68.6303 55.8641 68.5521 56.1189 68.3909 56.3194L61.7787 63.6977C61.6875 63.7997 61.5762 63.8818 61.4519 63.939C61.3276 63.9962 61.1928 64.0272 61.056 64.0301V64.0445Z" fill="white"/>
<path d="M29.5555 226.381L50.375 224.328V200.85H58.6276V224.321L79.5337 226.381C80.5355 226.478 81.4652 226.945 82.1413 227.69C82.8174 228.436 83.1914 229.407 83.1903 230.413V233.542H25.8989V230.413C25.8978 229.407 26.2718 228.436 26.9479 227.69C27.624 226.945 28.5537 226.478 29.5555 226.381Z" fill="#263238"/>
<path opacity="0.1" d="M29.5555 226.381L50.375 224.328V200.85H58.6276V224.321L79.5337 226.381C80.5355 226.478 81.4652 226.945 82.1413 227.69C82.8174 228.436 83.1914 229.407 83.1903 230.413V233.542H25.8989V230.413C25.8978 229.407 26.2718 228.436 26.9479 227.69C27.624 226.945 28.5537 226.478 29.5555 226.381Z" fill="white"/>
<path d="M80.9865 242.814C83.9679 242.814 86.3847 240.397 86.3847 237.416C86.3847 234.434 83.9679 232.018 80.9865 232.018C78.0052 232.018 75.5884 234.434 75.5884 237.416C75.5884 240.397 78.0052 242.814 80.9865 242.814Z" fill="#263238"/>
<path d="M28.1032 242.814C31.0846 242.814 33.5014 240.397 33.5014 237.416C33.5014 234.434 31.0846 232.018 28.1032 232.018C25.1219 232.018 22.7051 234.434 22.7051 237.416C22.7051 240.397 25.1219 242.814 28.1032 242.814Z" fill="#263238"/>
<path d="M57.0594 207.135H51.9142C51.1226 207.135 50.3635 206.82 49.8038 206.261C49.2441 205.701 48.9296 204.942 48.9296 204.15V181.069H60.0439V204.15C60.0439 204.942 59.7295 205.701 59.1698 206.261C58.6101 206.82 57.851 207.135 57.0594 207.135Z" fill="#263238"/>
<path opacity="0.2" d="M57.0594 207.135H51.9142C51.1226 207.135 50.3635 206.82 49.8038 206.261C49.2441 205.701 48.9296 204.942 48.9296 204.15V181.069H60.0439V204.15C60.0439 204.942 59.7295 205.701 59.1698 206.261C58.6101 206.82 57.851 207.135 57.0594 207.135Z" fill="white"/>
<path d="M25.6826 135.832C25.6826 135.832 31.8684 174.407 44.0812 181.077H31.6661C31.6661 181.077 19.3811 167.925 15.6812 135.832H25.6826Z" fill="#263238"/>
<path opacity="0.1" d="M25.6826 135.832C25.6826 135.832 31.8684 174.407 44.0812 181.077H31.6661C31.6661 181.077 19.3811 167.925 15.6812 135.832H25.6826Z" fill="white"/>
<path d="M31.0732 175.621H79.4327C80.391 175.621 81.31 176.002 81.9876 176.679C82.6652 177.357 83.0459 178.276 83.0459 179.234V184.069H27.46V179.234C27.46 178.276 27.8406 177.357 28.5182 176.679C29.1959 176.002 30.1149 175.621 31.0732 175.621Z" fill="#315131"/>
<path d="M83.8843 179.842H26.5712C25.769 179.842 25.1187 180.492 25.1187 181.294V182.61C25.1187 183.412 25.769 184.062 26.5712 184.062H83.8843C84.6865 184.062 85.3368 183.412 85.3368 182.61V181.294C85.3368 180.492 84.6865 179.842 83.8843 179.842Z" fill="#263238"/>
<path opacity="0.6" d="M83.8843 179.842H26.5712C25.769 179.842 25.1187 180.492 25.1187 181.294V182.61C25.1187 183.412 25.769 184.062 26.5712 184.062H83.8843C84.6865 184.062 85.3368 183.412 85.3368 182.61V181.294C85.3368 180.492 84.6865 179.842 83.8843 179.842Z" fill="white"/>
<path d="M14.214 143.682H34.0796C39.9041 143.682 43.6835 139.014 42.5273 133.254L40.9808 125.565C39.8246 119.784 34.1663 115.145 28.349 115.145H8.48342C2.65889 115.145 -1.12055 119.813 0.0356837 125.565L1.58215 133.254C2.73838 138.999 8.38947 143.682 14.214 143.682Z" fill="#315131"/>
<path d="M119.626 208.292L115.074 210.077L111.8 203.905L108.823 198.29L113.867 195.27L116.916 202.156L119.626 208.292Z" fill="#E4897B"/>
<path opacity="0.2" d="M116.916 202.156L111.8 203.905L108.823 198.29L113.867 195.27L116.916 202.156Z" fill="black"/>
<path d="M115.97 198.79L109.777 202.114C109.777 202.114 86.3704 160.959 82.7716 161.306C79.1728 161.653 45.0278 183.405 34.6145 175.369C24.2011 167.333 34.3326 143.139 34.3326 143.139C34.3326 143.139 55.8747 136.982 58.18 141.693C58.7875 143.104 59.3041 144.552 59.7264 146.029C60.1817 147.511 60.5286 148.761 60.5286 148.761C61.1862 148.494 82.4609 139.771 91.9565 144.425C101.647 149.209 115.97 198.79 115.97 198.79Z" fill="#263238"/>
<path opacity="0.3" d="M115.97 198.79L109.777 202.114C109.777 202.114 86.3704 160.959 82.7716 161.306C79.1728 161.653 45.0278 183.405 34.6145 175.369C24.2011 167.333 34.3326 143.139 34.3326 143.139C34.3326 143.139 55.8747 136.982 58.18 141.693C58.7875 143.104 59.3041 144.552 59.7264 146.029C60.1817 147.511 60.5286 148.761 60.5286 148.761C61.1862 148.494 82.4609 139.771 91.9565 144.425C101.647 149.209 115.97 198.79 115.97 198.79Z" fill="white"/>
<path d="M82.3235 232.35L77.4673 231.793L77.4384 224.942L77.4312 218.655L83.3063 218.381L82.786 225.774L82.3235 232.35Z" fill="#E4897B"/>
<path opacity="0.2" d="M82.7714 225.926L77.4238 225.073V218.721L83.2989 218.41L82.7714 225.926Z" fill="black"/>
<path d="M106.749 200.069L115.811 195.531L116.758 199.376L109.893 202.917L106.749 200.069Z" fill="#315131"/>
<path d="M50.7002 175.433C50.7002 175.433 52.1888 175.267 75.0895 171.025C75.0895 171.025 75.6098 200.306 76.6938 222.137L83.7468 222.361C83.7468 222.361 93.8639 173.944 92.6715 166.602C91.4791 159.26 82.7785 158.299 82.7785 158.299C82.7785 158.299 67.6679 170.071 50.7002 175.433Z" fill="#263238"/>
<path opacity="0.4" d="M50.7002 175.433C50.7002 175.433 52.1888 175.267 75.0895 171.025C75.0895 171.025 75.6098 200.306 76.6938 222.137L83.7468 222.361C83.7468 222.361 93.8639 173.944 92.6715 166.602C91.4791 159.26 82.7785 158.299 82.7785 158.299C82.7785 158.299 67.6679 170.071 50.7002 175.433Z" fill="white"/>
<path opacity="0.3" d="M50.7002 175.433C50.7002 175.433 52.1888 175.267 75.0895 171.025C75.0895 171.025 75.6098 200.306 76.6938 222.137L83.7468 222.361C83.7468 222.361 93.8639 173.944 92.6715 166.602C91.4791 159.26 82.7785 158.299 82.7785 158.299C82.7785 158.299 67.6679 170.071 50.7002 175.433Z" fill="black"/>
<path d="M75.4004 220.187L85.0188 219.963L83.7036 223.923L75.899 223.995L75.4004 220.187Z" fill="#315131"/>
<path opacity="0.3" d="M60.5573 148.775L48.0771 153.219C48.0771 153.219 54.6388 148.319 59.7551 146.043C60.2104 147.524 60.5573 148.775 60.5573 148.775Z" fill="black"/>
<path d="M32.8872 141.65L33.3497 145.111L56.7418 140.147L56.1998 136.057L32.8872 141.65Z" fill="#263238"/>
<path opacity="0.2" d="M32.8872 141.65L33.3497 145.111L56.7418 140.147L56.1998 136.057L32.8872 141.65Z" fill="black"/>
<path d="M40.6379 139.133L39.4727 139.35L40.5733 145.282L41.7386 145.066L40.6379 139.133Z" fill="#263238"/>
<path d="M50.8383 137.633L45.7344 138.783L46.6066 142.653L51.7105 141.503L50.8383 137.633Z" fill="white"/>
<path d="M54.1199 135.216L52.9585 135.43L54.0446 141.343L55.2061 141.13L54.1199 135.216Z" fill="#263238"/>
<path opacity="0.3" d="M40.6379 139.133L39.4727 139.35L40.5733 145.282L41.7386 145.066L40.6379 139.133Z" fill="white"/>
<path opacity="0.3" d="M54.1199 135.216L52.9585 135.43L54.0446 141.343L55.2061 141.13L54.1199 135.216Z" fill="white"/>
<path d="M128.674 216.373C127.915 216.14 127.118 216.05 126.326 216.106C126.326 216.106 123.385 214.877 119.822 209.031L116.787 209.429C116.276 209.505 115.801 209.737 115.426 210.093C115.052 210.448 114.795 210.91 114.691 211.416C114.669 211.56 114.669 211.706 114.691 211.85C114.822 212.583 115 213.307 115.226 214.018C116.004 216.366 116.924 218.666 117.979 220.904L118.471 220.702L116.902 216.323C116.382 214.827 118.196 216.091 119.157 217.537C120.118 218.982 121.484 220.384 124.729 219.156C128.501 217.681 129.997 216.901 128.674 216.373Z" fill="#263238"/>
<path d="M119.063 207.475C119.063 207.475 123.934 214.875 126.326 216.103C126.326 216.103 123.645 218.271 120.068 214.788C115.45 210.315 114.677 211.847 114.677 211.847C114.635 210.97 114.677 210.092 114.799 209.223C115.168 207.525 119.063 207.475 119.063 207.475Z" fill="#E4897B"/>
<path d="M89.6075 240.963C88.9153 240.564 88.1561 240.294 87.3673 240.168C87.3673 240.168 84.8019 238.282 82.7423 231.763L79.7 231.431C79.1838 231.382 78.6651 231.495 78.2158 231.754C77.7666 232.013 77.4089 232.405 77.1924 232.876C77.1276 233.006 77.0837 233.145 77.0623 233.288C77.0118 234.027 77.0118 234.768 77.0623 235.507C77.2584 237.973 77.6059 240.425 78.103 242.849L78.6305 242.769L78.1608 238.13C78.009 236.555 79.476 238.217 80.0686 239.85C80.6611 241.483 81.6512 243.167 85.0909 242.74C89.1089 242.198 90.742 241.794 89.6075 240.963Z" fill="#263238"/>
<path d="M82.3813 230.052C82.3813 230.052 85.3586 238.399 87.3892 240.169C87.3892 240.169 84.2746 241.615 81.608 237.409C78.1755 231.967 77.0698 233.275 77.0698 233.275C77.2315 232.416 77.4734 231.574 77.7925 230.761C78.5585 229.171 82.3813 230.052 82.3813 230.052Z" fill="#E4897B"/>
<path d="M27.7927 82.6325L21.6791 83.861C21.4403 84.0622 21.1581 84.2054 20.8547 84.2793C20.5514 84.3533 20.235 84.356 19.9303 84.2873C18.1093 83.5647 15.486 81.4473 15.1536 80.6741C14.6622 79.5829 15.1536 76.3816 16.4399 75.8035C17.7263 75.2254 22.1561 80.5729 22.1561 80.5729L28.7249 79.0915L27.7927 82.6325Z" fill="#E4897B"/>
<path d="M47.0727 102.953C47.0727 102.953 46.5163 83.1452 44.2255 82.2997C41.9347 81.4542 24.7141 83.8172 24.7141 83.8172L24.2949 79.2935C24.2949 79.2935 44.3339 76.2078 48.2145 78.0361C52.0951 79.8644 53.3742 109.384 52.666 115.072L47.0727 102.953Z" fill="#315131"/>
<path opacity="0.6" d="M47.0727 102.953C47.0727 102.953 46.5163 83.1452 44.2255 82.2997C41.9347 81.4542 24.7141 83.8172 24.7141 83.8172L24.2949 79.2935C24.2949 79.2935 44.3339 76.2078 48.2145 78.0361C52.0951 79.8644 53.3742 109.384 52.666 115.072L47.0727 102.953Z" fill="white"/>
<path d="M25.0101 84.2495L23.8105 79.2777L25.5304 78.6562L26.6216 84.4013L25.0101 84.2495Z" fill="#315131"/>
<path opacity="0.7" d="M25.0101 84.2495L23.8105 79.2777L25.5304 78.6562L26.6216 84.4013L25.0101 84.2495Z" fill="white"/>
<path d="M46.9713 100.48C46.9713 100.48 45.4321 106.507 38.0178 108.43C30.6034 110.352 22.4014 105.329 22.4014 105.329L24.0345 119.71L33.111 142.365L56.3079 136.317C56.3079 136.317 54.9205 109.962 46.9713 100.48Z" fill="#315131"/>
<path opacity="0.7" d="M46.9713 100.48C46.9713 100.48 45.4321 106.507 38.0178 108.43C30.6034 110.352 22.4014 105.329 22.4014 105.329L24.0345 119.71L33.111 142.365L56.3079 136.317C56.3079 136.317 54.9205 109.962 46.9713 100.48Z" fill="white"/>
<path opacity="0.6" d="M51.003 124.378L53.7183 123.521C54.0189 123.427 54.1858 123.106 54.0909 122.805L52.4733 117.678C52.3784 117.377 52.0578 117.21 51.7571 117.305L49.0418 118.162C48.7411 118.257 48.5743 118.577 48.6691 118.878L50.2868 124.005C50.3816 124.306 50.7023 124.473 51.003 124.378Z" fill="#315131"/>
<path opacity="0.2" d="M50.4497 122.814L53.5371 121.84L52.2043 117.615L49.1169 118.589L50.4497 122.814Z" fill="black"/>
<path d="M50.3463 116.091L49.6641 116.307L50.449 118.795L51.1312 118.579L50.3463 116.091Z" fill="#263238"/>
<path d="M31.2036 77.9707C25.4875 77.9707 21.7153 84.0265 23.0522 93.6305C24.389 103.234 29.7439 106.002 29.7439 106.002L29.4042 103.682C35.3488 105.032 41.4776 105.374 47.5354 104.694C47.5354 104.694 44.7749 96.8607 45.671 88.861C45.671 88.861 47.4848 77.9563 31.2036 77.9707Z" fill="#263238"/>
<path opacity="0.2" d="M42.5565 106.479L44.8906 115.151L40.786 112.022C40.786 112.022 44.7822 121.156 45.8445 126.475C45.8445 126.475 42.3903 117.42 39.413 112.455L37.6714 117.427L30.6689 110.295C30.6689 110.295 36.8548 105.554 42.5565 106.479Z" fill="black"/>
<path d="M39.145 109.275L32.0197 109.492C35.1777 105.453 29.4688 98.4141 29.4688 98.4141L36.5073 99.9388C38.1839 106.905 41.0817 107.115 41.0817 107.115L39.145 109.275Z" fill="#E4897B"/>
<path opacity="0.2" d="M38.4729 104.938C35.7541 104.711 33.2253 103.451 31.4054 101.419C30.8432 100.375 30.1954 99.3787 29.4688 98.4414L36.5073 99.9734C36.8801 101.727 37.5445 103.405 38.4729 104.938Z" fill="black"/>
<path d="M36.5004 80.9124C42.6357 81.4255 44.3411 84.8725 44.2616 91.2391C44.1677 99.1882 41.9419 104.659 34.412 102.332C24.1793 99.1737 26.3039 80.0597 36.5004 80.9124Z" fill="#E4897B"/>
<path d="M40.3228 90.5801C40.7383 91.5383 41.2672 92.4433 41.8982 93.2755C41.6962 93.5125 41.4331 93.6897 41.1376 93.7877C40.8421 93.8858 40.5253 93.9011 40.2217 93.832L40.3228 90.5801Z" fill="#DE5753"/>
<path d="M36.168 89.5547L37.4976 89.1211C37.4976 89.1211 36.7894 90.1762 36.168 89.5547Z" fill="#263238"/>
<path d="M36.6304 89.4034C36.3831 89.2819 36.1001 89.2545 35.8342 89.3263C35.5683 89.3981 35.3375 89.5642 35.1851 89.7937C35.4119 89.6902 35.6584 89.6366 35.9077 89.6366C36.157 89.6366 36.4035 89.6902 36.6304 89.7937V89.4034Z" fill="#263238"/>
<path d="M34.1588 86.4762C34.0905 86.4744 34.0256 86.4459 33.9781 86.3967C33.953 86.373 33.9329 86.3445 33.9192 86.3128C33.9055 86.2811 33.8984 86.2469 33.8984 86.2124C33.8984 86.1779 33.9055 86.1437 33.9192 86.112C33.9329 86.0803 33.953 86.0518 33.9781 86.0281C34.3811 85.6756 34.8605 85.4216 35.3784 85.2862C35.8964 85.1508 36.4387 85.1376 36.9626 85.2477C37.0307 85.262 37.0902 85.3028 37.1282 85.3611C37.1661 85.4194 37.1794 85.4904 37.165 85.5584C37.1506 85.6264 37.1098 85.686 37.0515 85.7239C36.9933 85.7619 36.9223 85.7751 36.8543 85.7607C36.417 85.6714 35.9653 85.6816 35.5325 85.7904C35.0997 85.8992 34.6969 86.104 34.3539 86.3894C34.3297 86.4172 34.2996 86.4394 34.2659 86.4544C34.2322 86.4694 34.1957 86.4768 34.1588 86.4762Z" fill="#263238"/>
<path d="M43.7846 86.5834C43.7273 86.5856 43.6711 86.5677 43.6256 86.5328C43.3364 86.2678 42.9918 86.0706 42.6167 85.9556C42.2417 85.8406 41.8457 85.8106 41.4577 85.868C41.4245 85.877 41.3898 85.8794 41.3557 85.875C41.3215 85.8706 41.2886 85.8596 41.2587 85.8425C41.2289 85.8254 41.2027 85.8025 41.1816 85.7753C41.1606 85.7481 41.1451 85.7169 41.1361 85.6837C41.1271 85.6505 41.1247 85.6158 41.1291 85.5817C41.1335 85.5476 41.1445 85.5146 41.1616 85.4848C41.1787 85.4549 41.2016 85.4287 41.2288 85.4077C41.256 85.3866 41.2872 85.3712 41.3204 85.3621C41.7888 85.2793 42.2699 85.3046 42.7271 85.4361C43.1842 85.5676 43.6052 85.8019 43.958 86.1209C44.0116 86.1648 44.046 86.2277 44.0541 86.2965C44.0621 86.3652 44.0433 86.4344 44.0014 86.4895C43.9752 86.5211 43.942 86.5462 43.9043 86.5625C43.8666 86.5788 43.8256 86.586 43.7846 86.5834Z" fill="#263238"/>
<path d="M28.9055 90.6959C28.9055 90.6959 32.1935 85.8975 32.0851 81.9663C32.0851 81.9663 44.6664 78.0062 44.24 90.4068C44.24 90.4068 46.3357 79.5671 35.8068 78.4181C25.2778 77.2691 24.0565 92.7482 29.1223 97.8067C29.1223 97.8067 26.8893 93.7021 28.9055 90.6959Z" fill="#263238"/>
<path d="M29.8231 92.0777C29.8231 91.3622 29.5394 90.6758 29.0341 90.1692C28.5288 89.6625 27.8432 89.3769 27.1277 89.375C25.2054 89.4256 23.9769 93.2556 28.6308 94.5925C29.2956 94.7804 29.7364 94.1517 29.8231 92.0777Z" fill="#E4897B"/>
<path d="M40.2725 95.639C39.8225 96.2435 39.419 96.8812 39.0656 97.5468C38.9428 97.5035 38.8127 97.4673 38.6899 97.4167C36.9916 96.817 36.3991 95.9715 36.2618 95.2488C36.1971 94.8817 36.2244 94.5043 36.3413 94.1504C36.4015 93.9468 36.489 93.7523 36.6014 93.5723C37.4844 94.4115 38.54 95.0477 39.6943 95.4367C40.0412 95.5668 40.2725 95.639 40.2725 95.639Z" fill="#263238"/>
<path d="M39.6949 95.423L39.3263 95.9795C37.722 95.4086 36.6742 94.7943 36.3418 94.1367C36.402 93.9331 36.4895 93.7387 36.602 93.5586C37.4849 94.3978 38.5405 95.0341 39.6949 95.423Z" fill="white"/>
<path d="M38.6898 97.416C36.9916 96.8162 36.399 95.9707 36.2617 95.248C36.9042 95.4847 37.4989 95.8347 38.0177 96.2814C38.3541 96.5807 38.589 96.9772 38.6898 97.416Z" fill="#DE5753"/>
<path d="M36.3343 81.3656C36.3343 81.3656 33.0173 91.2587 26.6725 90.5794C20.3277 89.9001 31.2035 77.9475 31.2035 77.9475C31.2035 77.9475 41.9059 74.8907 46.5669 80.8381C51.228 86.7855 44.2617 90.3915 44.2617 90.3915C44.2617 90.3915 45.3023 82.6303 36.3343 81.3656Z" fill="#263238"/>
<path d="M31.2753 89.7852C31.2386 89.7835 31.2031 89.7718 31.1726 89.7515C31.142 89.7311 31.1176 89.7028 31.1019 89.6696C31.0853 89.6236 31.0874 89.5729 31.1077 89.5284C31.1279 89.4838 31.1647 89.4489 31.2103 89.4311C36.2688 87.5017 36.1532 80.716 36.1532 80.6437C36.1511 80.6201 36.1541 80.5963 36.162 80.5739C36.1698 80.5515 36.1824 80.5311 36.1988 80.514C36.2153 80.4969 36.2352 80.4835 36.2572 80.4747C36.2792 80.4659 36.3029 80.462 36.3266 80.4631C36.3736 80.4645 36.4184 80.4829 36.4529 80.5147C36.4874 80.5466 36.5093 80.5898 36.5145 80.6365C36.5145 80.7088 36.6301 87.7474 31.3403 89.7708L31.2753 89.7852Z" fill="#263238"/>
<path d="M42.3975 90.1549L43.7271 89.7285C43.7271 89.7285 43.0117 90.7764 42.3975 90.1549Z" fill="#263238"/>
<path d="M42.8598 90.0033C42.6121 89.8809 42.328 89.8538 42.0616 89.9271C41.7951 90.0003 41.5649 90.1689 41.4146 90.4008C41.638 90.2896 41.8829 90.2281 42.1324 90.2206C42.382 90.2131 42.6301 90.2598 42.8598 90.3574V90.0033Z" fill="#263238"/>
<path d="M33.0248 106.572L38.394 109.304L38.3073 114.745L30.6328 110.272L33.0248 106.572Z" fill="#315131"/>
<path d="M39.21 105.545L39.5279 108.847L43.0328 112.555L42.5558 106.455L39.21 105.545Z" fill="#315131"/>
<path d="M14.4021 68.1786L12.1619 62.3974C12.2028 62.0883 12.1712 61.774 12.0696 61.4792C11.968 61.1845 11.7992 60.9174 11.5765 60.6992C10.0156 59.5357 6.79263 58.4807 5.98327 58.6035C4.80535 58.777 2.37003 60.9088 2.5796 62.3035C2.78917 63.6982 9.66876 64.5581 9.66876 64.5581L11.9523 70.8957L14.4021 68.1786Z" fill="#E4897B"/>
<path d="M24.0492 119.711C24.0492 119.711 28.3851 116.264 26.658 108.647L21.9969 87.5747L13.99 65.8086L10.0732 67.7886C10.0732 67.7886 16.6493 89.0561 17.2563 90.4942C17.5671 91.2168 18.8028 102.252 20.4866 109.644C22.033 116.452 24.0492 119.711 24.0492 119.711Z" fill="#315131"/>
<path opacity="0.6" d="M24.0492 119.711C24.0492 119.711 28.3851 116.264 26.658 108.647L21.9969 87.5747L13.99 65.8086L10.0732 67.7886C10.0732 67.7886 16.6493 89.0561 17.2563 90.4942C17.5671 91.2168 18.8028 102.252 20.4866 109.644C22.033 116.452 24.0492 119.711 24.0492 119.711Z" fill="white"/>
<path d="M9.38672 67.1678L13.9611 64.877L14.9583 66.4017L9.61074 68.772L9.38672 67.1678Z" fill="#315131"/>
<path opacity="0.7" d="M9.38672 67.1678L13.9611 64.877L14.9583 66.4017L9.61074 68.772L9.38672 67.1678Z" fill="white"/>
<path opacity="0.6" d="M33.0248 106.572L38.394 109.304L38.3073 114.745L30.6328 110.272L33.0248 106.572Z" fill="white"/>
<path opacity="0.6" d="M39.21 105.545L39.5279 108.847L43.0328 112.555L42.5558 106.455L39.21 105.545Z" fill="white"/>
<path d="M191.689 95.2129H170.039V112.036H191.689V95.2129Z" fill="white"/>
<path opacity="0.1" d="M191.69 95.2129H186.14V112.036H191.69V95.2129Z" fill="black"/>
<path d="M168.796 126.893H193.272V96.3613H185.388L168.796 104.303V126.893Z" fill="#315131"/>
<path opacity="0.2" d="M193.272 96.3613H185.388V126.893H193.272V96.3613Z" fill="black"/>
<path opacity="0.7" d="M182.779 110.322H171.318V115.814H182.779V110.322Z" fill="white"/>
<path opacity="0.7" d="M182.779 117.65H171.318V118.438H182.779V117.65Z" fill="white"/>
<path opacity="0.7" d="M192.506 119.955H186.14V124.616H192.506V119.955Z" fill="white"/>
<path d="M182.49 94.2949H160.839V112.036H182.49V94.2949Z" fill="white"/>
<path opacity="0.1" d="M182.49 94.2949H176.94V112.036H182.49V94.2949Z" fill="black"/>
<path d="M159.597 126.893H184.073V96.3613H176.189L159.597 104.303V126.893Z" fill="#315131"/>
<path opacity="0.2" d="M184.073 96.3613H176.188V126.893H184.073V96.3613Z" fill="black"/>
<path opacity="0.7" d="M173.58 110.322H162.119V115.814H173.58V110.322Z" fill="white"/>
<path opacity="0.7" d="M173.58 117.65H162.119V118.438H173.58V117.65Z" fill="white"/>
<path opacity="0.7" d="M183.306 119.955H176.94V124.616H183.306V119.955Z" fill="white"/>
<path d="M144.392 242.812H148.822L156.771 132.066H150.896L144.392 242.812Z" fill="#263238"/>
<path opacity="0.1" d="M144.392 242.813H148.822L156.381 137.567L156.771 132.248H150.896L150.585 137.567L144.392 242.813Z" fill="white"/>
<path opacity="0.2" d="M150.585 137.307H156.381L156.771 132.248H150.896L150.585 137.307Z" fill="black"/>
<path d="M111.902 242.812H116.332L117.054 132.066H111.179L111.902 242.812Z" fill="#263238"/>
<path opacity="0.1" d="M111.172 132.248L111.295 150.112L111.895 242.813H116.324L116.931 150.112L117.047 132.248H111.172Z" fill="white"/>
<path opacity="0.2" d="M111.172 132.248L111.295 150.314H116.931L117.047 132.248H111.172Z" fill="black"/>
<path d="M64.9009 242.812H69.3307L77.2798 132.066H71.4047L64.9009 242.812Z" fill="#263238"/>
<path opacity="0.1" d="M64.9009 242.813H69.3307L76.8968 137.567L77.2798 132.248H71.4047L71.094 137.567L64.9009 242.813Z" fill="white"/>
<path opacity="0.2" d="M71.0938 137.307H76.8966L77.2796 132.248H71.4045L71.0938 137.307Z" fill="black"/>
<path d="M195.035 242.812H199.465L192.954 132.066H187.079L195.035 242.812Z" fill="#263238"/>
<path opacity="0.1" d="M187.079 132.248L187.476 137.567L195.035 242.813H199.458L193.272 137.567L192.954 132.248H187.079Z" fill="white"/>
<path opacity="0.2" d="M192.954 132.248H187.079L187.476 137.307H193.272L192.954 132.248Z" fill="black"/>
<path d="M196.054 134.842L68.3188 134.842C68.1139 134.842 67.9109 134.801 67.7215 134.723C67.5321 134.645 67.3601 134.53 67.2151 134.385C67.0702 134.24 66.9552 134.068 66.8767 133.878C66.7983 133.689 66.7579 133.486 66.7579 133.281V129.299L197.615 129.299V133.281C197.615 133.486 197.574 133.689 197.496 133.878C197.417 134.068 197.303 134.24 197.158 134.385C197.013 134.53 196.841 134.645 196.651 134.723C196.462 134.801 196.259 134.842 196.054 134.842Z" fill="#315131"/>
<path opacity="0.4" d="M196.054 134.842L68.3188 134.842C68.1139 134.842 67.9109 134.801 67.7215 134.723C67.5321 134.645 67.3601 134.53 67.2151 134.385C67.0702 134.24 66.9552 134.068 66.8767 133.878C66.7983 133.689 66.7579 133.486 66.7579 133.281V129.299L197.615 129.299V133.281C197.615 133.486 197.574 133.689 197.496 133.878C197.417 134.068 197.303 134.24 197.158 134.385C197.013 134.53 196.841 134.645 196.651 134.723C196.462 134.801 196.259 134.842 196.054 134.842Z" fill="white"/>
<path opacity="0.2" d="M66.7579 132.066L197.615 132.066V129.291L66.7579 129.291V132.066Z" fill="black"/>
<path d="M64.012 130.016H200.354C200.559 130.017 200.762 129.978 200.952 129.899C201.142 129.821 201.314 129.706 201.46 129.561C201.605 129.416 201.72 129.244 201.798 129.054C201.876 128.864 201.916 128.661 201.915 128.455C201.915 128.041 201.75 127.644 201.457 127.352C201.165 127.059 200.768 126.895 200.354 126.895H64.012C63.5973 126.895 63.1996 127.059 62.9057 127.351C62.6118 127.644 62.4458 128.041 62.4438 128.455C62.4438 128.661 62.4845 128.865 62.5634 129.054C62.6423 129.244 62.7579 129.417 62.9036 129.562C63.0493 129.707 63.2222 129.822 63.4124 129.9C63.6026 129.978 63.8064 130.017 64.012 130.016Z" fill="#315131"/>
<path opacity="0.4" d="M64.012 130.016H200.354C200.559 130.017 200.762 129.978 200.952 129.899C201.142 129.821 201.314 129.706 201.46 129.561C201.605 129.416 201.72 129.244 201.798 129.054C201.876 128.864 201.916 128.661 201.915 128.455C201.915 128.041 201.75 127.644 201.457 127.352C201.165 127.059 200.768 126.895 200.354 126.895H64.012C63.5973 126.895 63.1996 127.059 62.9057 127.351C62.6118 127.644 62.4458 128.041 62.4438 128.455C62.4438 128.661 62.4845 128.865 62.5634 129.054C62.6423 129.244 62.7579 129.417 62.9036 129.562C63.0493 129.707 63.2222 129.822 63.4124 129.9C63.6026 129.978 63.8064 130.017 64.012 130.016Z" fill="white"/>
<path d="M171.057 126.878V124.435H172.698L171.057 123.481H172.286L170.645 122.412H169.092V121.183H170.898L169.092 120.468V117.801H170.898V116.06H172.698L170.898 115.453V114.21H172.185L171.13 113.162L170.219 112.244H142.296V113.494H140.453L142.506 114.419V115.453H138.741V117.375H137.071L138.741 118.213V120.359H139.926V121.386H142.296V124.435H140.966L142.058 125.526V126.892L171.057 126.878Z" fill="#315131"/>
<path opacity="0.7" d="M171.057 126.878V124.435H172.698L171.057 123.481H172.286L170.645 122.412H169.092V121.183H170.898L169.092 120.468V117.801H170.898V116.06H172.698L170.898 115.453V114.21H172.185L171.13 113.162L170.219 112.244H142.296V113.494H140.453L142.506 114.419V115.453H138.741V117.375H137.071L138.741 118.213V120.359H139.926V121.386H142.296V124.435H140.966L142.058 125.526V126.892L171.057 126.878Z" fill="white"/>
<path opacity="0.1" d="M171.057 126.878V124.435H172.698L171.057 123.481H172.286L170.645 122.412H169.092V121.183H170.898L169.092 120.468V117.801H170.898V116.06H172.698L170.898 115.453V114.21H172.185L171.13 113.162L170.219 112.244H155.513V113.494H153.67L155.716 114.419V115.453H151.951V117.375H150.281L151.951 118.213V120.359H153.136V121.386H155.513V124.435H154.184L155.268 125.526V126.892L171.057 126.878Z" fill="black"/>
<path opacity="0.1" d="M142.506 115.454H155.716L142.506 114.977V115.454Z" fill="black"/>
<path opacity="0.1" d="M142.296 121.387H155.514L155.571 122.312L142.296 121.387Z" fill="black"/>
<path opacity="0.1" d="M139.926 120.361H153.136L139.926 120.824V120.361Z" fill="black"/>
<path opacity="0.1" d="M142.296 124.435H155.514L142.296 123.951V124.435Z" fill="black"/>
<path opacity="0.1" d="M142.058 125.527H155.268V126.033L142.058 125.527Z" fill="black"/>
<path opacity="0.1" d="M138.741 117.376H151.951L138.741 116.957V117.376Z" fill="black"/>
<path opacity="0.1" d="M142.296 113.496H155.513L142.296 113.033V113.496Z" fill="black"/>
<path opacity="0.1" d="M170.899 114.211H157.494L170.899 114.623V114.211Z" fill="black"/>
<path opacity="0.1" d="M155.716 115.453H170.899L157.132 115.901L155.716 115.453Z" fill="black"/>
<path opacity="0.1" d="M151.951 117.375L170.899 117.801V117.375H151.951Z" fill="black"/>
<path opacity="0.1" d="M151.951 118.215H161.324L151.951 118.67V118.215Z" fill="black"/>
<path opacity="0.1" d="M169.092 120.471L155.514 120.362L169.092 120.059V120.471Z" fill="black"/>
<path opacity="0.1" d="M169.092 121.186H155.268L169.092 121.648V121.186Z" fill="black"/>
<path opacity="0.1" d="M171.058 123.482H155.716V123.952L171.058 123.482Z" fill="black"/>
<path opacity="0.1" d="M171.058 124.438H159.943L171.058 124.748V124.438Z" fill="black"/>
<path d="M135.503 123.729V126.048C135.503 126.641 134.78 126.886 134.21 126.886H87.8734C87.2809 126.886 86.5654 126.641 86.5654 126.048V123.729H135.503Z" fill="#263238"/>
<path opacity="0.4" d="M135.503 123.729V126.048C135.503 126.641 134.78 126.886 134.21 126.886H87.8734C87.2809 126.886 86.5654 126.641 86.5654 126.048V123.729H135.503Z" fill="white"/>
<path opacity="0.2" d="M135.504 123.729V126.048C135.504 126.641 134.781 126.886 134.21 126.886H103.649C103.057 126.886 102.349 126.641 102.349 126.048V123.729H135.504Z" fill="black"/>
<path d="M143.258 99.65L137.737 124.675C137.642 125.081 137.414 125.444 137.089 125.706C136.764 125.968 136.361 126.114 135.944 126.12H105.817C105.63 126.116 105.446 126.069 105.28 125.982C105.114 125.895 104.97 125.77 104.86 125.618C104.75 125.466 104.677 125.291 104.646 125.106C104.616 124.921 104.628 124.732 104.683 124.552L110.189 99.7222C110.302 99.3432 110.542 99.0144 110.868 98.7908C111.194 98.5672 111.587 98.4624 111.981 98.4937H142.116C142.925 98.4648 143.431 98.8334 143.258 99.65Z" fill="#263238"/>
<path opacity="0.4" d="M143.257 99.6504L137.736 124.676C137.641 125.082 137.413 125.445 137.089 125.706C136.764 125.968 136.361 126.114 135.944 126.121H106.836C106.648 126.117 106.464 126.069 106.298 125.982C106.132 125.895 105.989 125.771 105.879 125.619C105.769 125.467 105.696 125.292 105.665 125.107C105.634 124.922 105.647 124.732 105.701 124.553L111.215 99.7227C111.327 99.3429 111.566 99.0134 111.893 98.7896C112.219 98.5658 112.613 98.4614 113.007 98.4942H142.115C142.925 98.4653 143.431 98.8338 143.257 99.6504Z" fill="white"/>
<path opacity="0.2" d="M128.4 112.369C128.4 114.537 126.102 116.25 124.418 116.25C122.734 116.25 121.737 114.509 122.25 112.369C122.763 110.23 124.418 108.561 126.051 108.496C125.574 110.664 126.601 112.369 128.277 112.369H128.4Z" fill="black"/>
</g>
<defs>
<clipPath id="clip0_75030_20667">
<rect width="284" height="251.481" fill="white" transform="translate(0 0.25)"/>
</clipPath>
</defs>
</svg>
