<svg width="254" height="384" viewBox="0 0 254 384" fill="none" xmlns="http://www.w3.org/2000/svg">
<path d="M253.279 323.973H223.396V324.198H253.279V323.973Z" fill="#EBEBEB"/>
<path d="M222.495 315.6H171.048V315.825H222.495V315.6Z" fill="#EBEBEB"/>
<path d="M79.1739 317.115H17.252V317.341H79.1739V317.115Z" fill="#EBEBEB"/>
<path d="M92.9155 317.115H87.2042V317.341H92.9155V317.115Z" fill="#EBEBEB"/>
<path d="M191.487 88.7277C204.024 88.7277 214.188 78.5642 214.188 66.0269C214.188 53.4896 204.024 43.3262 191.487 43.3262C178.95 43.3262 168.786 53.4896 168.786 66.0269C168.786 78.5642 178.95 88.7277 191.487 88.7277Z" fill="#F5F5F5"/>
<path d="M84.2077 177.726L77.2964 165.338L70.34 179.106L71.6573 309.455H82.9355L84.2077 177.726Z" fill="#F0F0F0"/>
<path d="M70.7292 217.162L83.8299 217.171L83.9562 204.08L70.5938 203.98L70.7292 217.162Z" fill="#E0E0E0"/>
<path d="M98.5268 217.174L111.655 217.183L111.781 204.298L98.4005 204.199L98.5268 217.174Z" fill="#E0E0E0"/>
<path d="M123.141 217.182L136.242 217.191L136.368 204.487L123.015 204.379L123.141 217.182Z" fill="#E0E0E0"/>
<path d="M192.215 336.163H197.628C197.628 336.163 197.078 312.704 208.257 290.698C219.436 268.692 216.549 254.743 209.908 260.292C203.268 265.841 193.659 297.582 192.215 336.163Z" fill="#315131"/>
<path d="M191.844 333.644L187.622 335.945C178.708 340.79 168.232 341.187 157.559 336.721C151.162 334.014 145.586 329.918 145.044 323.62C143.727 308.282 162.277 328.601 162.828 319.66C163.378 310.718 141.381 312.848 141.273 303.004C141.165 293.16 165.544 312.469 164.732 298.393C163.92 284.318 141.977 298.005 141.589 287.431C141.201 276.857 163.423 288.766 164.145 279.572C164.867 270.378 141.381 278.309 143.123 267.681C144.864 257.052 166.942 278.932 169.983 270.234C173.023 261.536 143.249 263.99 149.862 253.948C156.476 243.906 171.381 261.022 175.126 257.061C178.87 253.1 160.572 249.148 162.954 243.473C165.336 237.798 173.781 236.787 183.129 245.205C193.874 254.932 201.643 267.762 200.127 275.638C198.611 283.515 189.192 265.344 186.467 270.126C180.692 280.267 200.858 283.163 201.697 292.61C202.536 302.057 185.231 282.866 182.001 288.577C175.974 299.26 206.723 300.694 203.88 307.596C200.605 315.536 179.249 299.981 178.274 309.969C176.831 324.893 197.222 307.777 200.398 317.864C203.574 327.951 191.844 333.644 191.844 333.644Z" fill="#72B472"/>
<path opacity="0.8" d="M191.844 333.644L187.622 335.945C178.708 340.79 168.232 341.187 157.559 336.721C151.162 334.014 145.586 329.918 145.044 323.62C143.727 308.282 162.277 328.601 162.828 319.66C163.378 310.718 141.381 312.848 141.273 303.004C141.165 293.16 165.544 312.469 164.732 298.393C163.92 284.318 141.977 298.005 141.589 287.431C141.201 276.857 163.423 288.766 164.145 279.572C164.867 270.378 141.381 278.309 143.123 267.681C144.864 257.052 166.942 278.932 169.983 270.234C173.023 261.536 143.249 263.99 149.862 253.948C156.476 243.906 171.381 261.022 175.126 257.061C178.87 253.1 160.572 249.148 162.954 243.473C165.336 237.798 173.781 236.787 183.129 245.205C193.874 254.932 201.643 267.762 200.127 275.638C198.611 283.515 189.192 265.344 186.467 270.126C180.692 280.267 200.858 283.163 201.697 292.61C202.536 302.057 185.231 282.866 182.001 288.577C175.974 299.26 206.723 300.694 203.88 307.596C200.605 315.536 179.249 299.981 178.274 309.969C176.831 324.893 197.222 307.777 200.398 317.864C203.574 327.951 191.844 333.644 191.844 333.644Z" fill="white"/>
<path d="M155.258 338.157H144.431C141.485 321.647 135.501 305.828 126.783 291.501C112.347 267.853 122.145 259.706 133.297 266.328C144.449 272.951 152.362 299.594 155.258 338.157Z" fill="#72B472"/>
<path opacity="0.2" d="M155.258 338.157H144.431C141.485 321.647 135.501 305.828 126.783 291.501C112.347 267.853 122.145 259.706 133.297 266.328C144.449 272.951 152.362 299.594 155.258 338.157Z" fill="black"/>
<path d="M168.504 339.844H154.97C154.835 319.733 150.662 299.854 142.699 281.386C129.589 251.756 143.601 241.561 156.161 249.807C168.72 258.054 173.015 291.537 168.504 339.844Z" fill="#72B472"/>
<path d="M194.723 340.672H200.136C200.136 340.672 200.678 324.63 211.929 313.668C222.214 303.653 214.771 300.134 207.995 304.645C201.219 309.157 194.867 327.138 194.723 340.672Z" fill="#72B472"/>
<path d="M136.284 339.843H125.99C125.99 339.843 129.328 327.482 124.546 310.971C134.119 319.217 136.375 332.246 136.284 339.843Z" fill="#72B472"/>
<path d="M129.192 339.843H121.857C121.857 339.843 122.759 331.037 117.427 319.271C125.249 325.145 128.362 334.429 129.192 339.843Z" fill="#72B472"/>
<path d="M209.421 339.844H213.824C213.824 339.844 213.265 334.557 216.486 327.492C211.812 331.02 209.926 336.596 209.421 339.844Z" fill="#72B472"/>
<path d="M95.2256 81.726C78.985 77.314 71.1986 80.4899 62.8617 82.6282C54.5249 84.7666 55.6437 77.5125 71.1986 70.8989C81.2226 66.6493 93.0061 70.4568 102.516 75.5365C115.147 82.3034 132.101 73.0373 126.173 79.5245C120.245 86.0117 106.838 84.8839 95.2256 81.726Z" fill="#72B472"/>
<path opacity="0.3" d="M95.2256 81.726C78.985 77.314 71.1986 80.4899 62.8617 82.6282C54.5249 84.7666 55.6437 77.5125 71.1986 70.8989C81.2226 66.6493 93.0061 70.4568 102.516 75.5365C115.147 82.3034 132.101 73.0373 126.173 79.5245C120.245 86.0117 106.838 84.8839 95.2256 81.726Z" fill="black"/>
<path d="M94.1149 68.7434C91.8142 67.6878 83.8202 67.8412 80.1209 68.6893C72.2803 70.4938 71.5495 78.5148 74.3555 85.6878C77.1615 92.8607 78.1089 114.704 99.2758 100.837C117.131 89.1254 106.061 67.778 94.1149 68.7434Z" fill="#315131"/>
<path d="M104.049 120.09C103.976 122.336 103.94 124.781 103.994 127.136C104.049 129.491 104.094 131.891 104.274 134.246C104.558 138.921 105.207 143.567 106.214 148.141L106.629 149.81C106.692 150.126 106.755 150.279 106.818 150.505C106.882 150.73 106.981 150.947 107.053 151.172C107.446 152.164 107.905 153.128 108.424 154.059C109.568 156.086 110.815 158.052 112.16 159.951C113.513 161.9 114.948 163.84 116.427 165.744C117.907 167.647 119.423 169.578 120.939 171.446L118.133 174.27C114.268 171.043 110.649 167.532 107.306 163.768C105.578 161.835 103.987 159.785 102.542 157.632C101.76 156.483 101.067 155.277 100.467 154.023C100.322 153.681 100.16 153.356 100.024 152.986C99.8891 152.616 99.7267 152.21 99.6455 151.93L99.0681 150.053C98.3375 147.569 97.7531 145.045 97.3177 142.493C96.8395 139.966 96.5598 137.431 96.3162 134.896C96.0726 132.36 95.9192 129.834 95.8741 127.299C95.829 124.763 95.829 122.282 96.0004 119.611L104.049 120.09Z" fill="#FFB573"/>
<path d="M101.632 110.383C108.101 113.911 105.611 127.787 105.611 127.787L93.6827 131.856C93.6827 131.856 87.3127 115.426 91.1383 112.314C95.1173 109.074 96.624 107.649 101.632 110.383Z" fill="#315131"/>
<path opacity="0.2" d="M101.848 114.469L103.354 128.571L94.4942 131.585L101.848 114.469Z" fill="black"/>
<path d="M119.604 170.148L128.374 171.872L122.383 177.132C122.383 177.132 117.628 175.409 117.159 172.169L119.604 170.148Z" fill="#FFB573"/>
<path d="M132.877 175.596L128.555 180.739L122.357 177.13L128.375 171.852L132.877 175.596Z" fill="#FFB573"/>
<path d="M68.5361 331.949H76.4128L76.9361 313.715H69.0685L68.5361 331.949Z" fill="#FFB573"/>
<path d="M6.1454 302.382L12.8762 306.46L24.4792 292.159L17.7394 288.09L6.1454 302.382Z" fill="#FFB573"/>
<path d="M13.8688 305.855L7.91394 299.314C7.81296 299.199 7.6736 299.126 7.52227 299.108C7.37094 299.09 7.21816 299.128 7.09288 299.214L1.23724 303.175C1.09365 303.281 0.97394 303.415 0.885937 303.57C0.797933 303.724 0.743632 303.896 0.726593 304.073C0.709555 304.25 0.730168 304.429 0.787073 304.598C0.843979 304.767 0.935888 304.921 1.05679 305.052C3.16807 307.299 4.30491 308.273 6.92145 311.151C8.53649 312.956 11.938 318.369 14.1395 320.787C16.341 323.205 18.9034 321.157 18.1906 319.939C15.8684 316.064 14.5561 311.668 14.3741 307.154C14.3613 306.676 14.1827 306.217 13.8688 305.855Z" fill="#315131"/>
<path d="M76.684 331.037H67.8328C67.6822 331.036 67.5361 331.089 67.4217 331.186C67.3072 331.284 67.2321 331.42 67.2103 331.569L66.1997 338.571C66.1821 338.748 66.2016 338.926 66.2571 339.095C66.3125 339.263 66.4026 339.418 66.5215 339.55C66.6405 339.682 66.7857 339.787 66.9479 339.859C67.11 339.932 67.2854 339.969 67.4629 339.969C70.5486 339.915 72.0283 339.735 75.9261 339.735C78.317 339.735 83.902 339.988 87.2043 339.988C90.5065 339.988 90.687 336.721 89.3065 336.424C83.1441 335.097 80.0764 333.266 78.0012 331.515C77.6294 331.211 77.1647 331.042 76.684 331.037Z" fill="#315131"/>
<g opacity="0.2">
<path d="M76.9369 313.723L76.6662 323.115H68.7896L69.0602 313.723H76.9369Z" fill="black"/>
<path d="M17.7305 288.09L24.4703 292.168L18.1094 300L11.7485 295.461L17.7305 288.09Z" fill="black"/>
</g>
<path d="M103.968 114.342C103.679 119.296 101.748 130.781 94.043 157.29L62.3106 153.365C64.3588 141.031 65.3603 133.199 62.8791 108.487C62.8356 108.068 62.8781 107.645 63.0039 107.243C63.1297 106.841 63.3362 106.469 63.6107 106.15C63.8852 105.831 64.2219 105.571 64.6003 105.386C64.9787 105.201 65.3908 105.096 65.8114 105.076C69.2871 104.911 72.7695 104.944 76.2415 105.175C81.0904 105.432 85.9147 106.035 90.6776 106.98C94.2866 107.774 98.2385 108.911 100.801 109.687C101.771 110.001 102.608 110.629 103.182 111.472C103.755 112.315 104.032 113.325 103.968 114.342Z" fill="#72B472"/>
<path d="M86.1305 134.056H86.0583L73.9952 130.519C73.9393 130.503 73.8917 130.466 73.8617 130.416C73.8316 130.365 73.8213 130.306 73.8328 130.249L74.4914 126.757C74.5044 126.699 74.5381 126.648 74.5863 126.613C74.6345 126.578 74.6939 126.562 74.7531 126.568L95.6493 128.372C95.6802 128.374 95.7102 128.383 95.7378 128.397C95.7654 128.411 95.79 128.43 95.8101 128.453C95.8302 128.477 95.8455 128.504 95.8551 128.533C95.8647 128.563 95.8683 128.594 95.8659 128.625L95.6313 132.171C95.6254 132.224 95.6031 132.274 95.5676 132.315C95.5321 132.355 95.485 132.384 95.4328 132.396L86.1666 134.056H86.1305ZM74.338 130.113L86.1395 133.569L95.1621 131.963L95.3696 128.841L74.9245 127.037L74.338 130.113Z" fill="white"/>
<path d="M67.4715 105.014L65.7572 105.077C65.3374 105.098 64.9263 105.204 64.549 105.389C64.1716 105.574 63.8359 105.835 63.5624 106.154C63.2889 106.473 63.0832 106.844 62.958 107.246C62.8327 107.647 62.7905 108.069 62.8339 108.487C63.4835 114.957 63.8896 120.271 64.1151 124.8C65.6326 124.015 67.0974 123.132 68.5001 122.157C68.5001 122.157 70.1873 113.143 67.4715 105.014Z" fill="#315131"/>
<path d="M100.728 109.695C99.9706 109.461 99.0864 109.19 98.13 108.91C98.933 110.715 100.187 119.196 98.933 125.602C99.8134 126.317 100.834 126.839 101.928 127.136C102.924 122.927 103.609 118.651 103.977 114.342C104.032 113.316 103.742 112.301 103.153 111.459C102.564 110.617 101.711 109.996 100.728 109.695Z" fill="#315131"/>
<path d="M94.9278 108.008C93.5113 107.638 92.0406 107.268 90.606 106.952C85.843 106.008 81.0187 105.405 76.1699 105.148C74.3654 105.012 72.5609 104.958 70.8917 104.949C72.0195 106.952 73.4631 116.101 72.8496 121.776C82.0075 124.42 95.6767 124.772 95.6767 124.772C95.6767 124.772 97.3098 113.665 94.9278 108.008Z" fill="#315131"/>
<path d="M79.634 89.125C79.9678 93.8799 79.8234 102.487 76.1964 105.176C76.1964 105.176 77.8475 110.671 85.5438 114.659C91.7422 112.52 90.6054 106.963 90.6054 106.963C85.5889 105.086 86.1934 101.269 87.5468 97.7776L79.634 89.125Z" fill="#FFB573"/>
<path opacity="0.2" d="M82.8552 92.6523L87.5379 97.7681C87.2101 98.5797 86.9565 99.4192 86.78 100.276C84.8402 99.7441 82.395 97.2358 82.4402 95.1426C82.4311 94.2946 82.5716 93.4516 82.8552 92.6523Z" fill="black"/>
<path d="M80.3565 77.0072C77.9836 84.4508 76.8107 87.5546 79.0302 92.7155C82.3776 100.475 92.0317 101.738 96.5881 95.1877C100.693 89.2598 103.896 78.0899 97.9054 72.4237C96.59 71.1705 94.9762 70.2741 93.2171 69.8196C91.458 69.3651 89.612 69.3675 87.8541 69.8266C86.0962 70.2857 84.4847 71.1864 83.1726 72.443C81.8604 73.6997 80.8911 75.2708 80.3565 77.0072Z" fill="#FFB573"/>
<path d="M80.1488 71.2605L78.0645 83.5312C84.263 81.438 95.7397 76.3131 97.2736 73.4349C100.116 67.9853 84.8495 67.2004 80.1488 71.2605Z" fill="#315131"/>
<path d="M76.5756 68.851C75.9711 65.1878 71.7576 59.2419 77.1531 56.066C82.5486 52.8901 100.729 55.651 102.534 58.9171C105.899 65.2329 106.079 74.5262 106.079 74.5262C106.079 74.5262 90.2809 68.2735 76.5756 68.851Z" fill="#72B472"/>
<path d="M74.9874 64.4744C75.5716 65.935 76.0245 67.4447 76.3408 68.9857C76.9002 68.7872 88.0701 68.2098 95.0626 70.9346C98.9232 72.4721 102.877 73.7649 106.9 74.8053C106.9 74.8053 106.341 70.8985 105.745 68.2368C105.15 65.5752 87.4115 61.3436 74.9874 64.4744Z" fill="#72B472"/>
<path opacity="0.3" d="M74.9874 64.4744C75.5716 65.935 76.0245 67.4447 76.3408 68.9857C76.9002 68.7872 88.0701 68.2098 95.0626 70.9346C98.9232 72.4721 102.877 73.7649 106.9 74.8053C106.9 74.8053 106.341 70.8985 105.745 68.2368C105.15 65.5752 87.4115 61.3436 74.9874 64.4744Z" fill="white"/>
<path d="M71.198 70.8989C81.3484 66.965 93.0055 70.4568 102.515 75.5365C112.539 80.8868 125.207 76.2132 127.138 77.2327C126.145 76.3305 124.837 76.5199 120.822 76.7635C116.807 77.0071 111.015 76.2041 106.756 73.741C100.401 69.7463 93.0759 67.5625 85.5709 67.4252C74.4641 67.0011 62.9604 73.1004 58.422 79.4252C61.616 78.2974 64.8912 73.362 71.198 70.8989Z" fill="#72B472"/>
<path d="M93.9986 157.29C93.9986 157.29 92.7264 218.238 89.2617 242.003C85.6527 266.725 77.9114 321.302 77.9114 321.302H67.2647C67.2647 321.302 67.5084 265.949 69.5926 241.489C71.8482 214.827 70.7655 154.412 70.7655 154.412L93.9986 157.29Z" fill="#72B472"/>
<path d="M66.3433 321.682H78.8305L79.7508 317.694L65.7658 317.207L66.3433 321.682Z" fill="#72B472"/>
<path opacity="0.3" d="M66.3433 321.682H78.8305L79.7508 317.694L65.7658 317.207L66.3433 321.682Z" fill="black"/>
<path opacity="0.2" d="M78.4616 170.572C84.3173 187.218 74.5549 215.044 70.4767 225.348C71.0451 209.188 71.0721 189.357 70.9909 174.821C73.1744 166.809 75.7639 162.93 78.4616 170.572Z" fill="black"/>
<path d="M85.6246 156.252C85.6246 156.252 70.6923 217.967 62.7795 237.356C53.387 260.409 22.178 297.861 22.178 297.861L12.8126 292.619C12.8126 292.619 35.4412 248.409 41.9284 236.418C55.76 210.902 51.6998 169.822 62.2652 153.41L85.6246 156.252Z" fill="#72B472"/>
<path d="M10.1065 293.035L21.5111 299.919L24.8855 297.068L11.8479 288.361L10.1065 293.035Z" fill="#72B472"/>
<path opacity="0.3" d="M10.1065 293.035L21.5111 299.919L24.8855 297.068L11.8479 288.361L10.1065 293.035Z" fill="black"/>
<path d="M91.201 83.4496C90.9664 84.0451 91.1018 84.6406 91.4807 84.794C91.8597 84.9474 92.383 84.5865 92.5995 83.991C92.816 83.3955 92.7078 82.8 92.3198 82.6466C91.9318 82.4932 91.4266 82.8541 91.201 83.4496Z" fill="#315131"/>
<path d="M97.8871 86.049C97.6615 86.6445 97.7879 87.249 98.1758 87.3934C98.5638 87.5377 99.0781 87.1858 99.2946 86.5994C99.5112 86.0129 99.3939 85.3994 99.0059 85.255C98.6179 85.1106 98.1217 85.4625 97.8871 86.049Z" fill="#315131"/>
<path d="M98.8252 85.2168L100.404 85.3612C100.404 85.3612 99.2403 86.2363 98.8252 85.2168Z" fill="#315131"/>
<path d="M95.4141 86.3184C95.4138 87.8715 95.6294 89.4171 96.0547 90.9108C95.6693 91.0111 95.2665 91.0251 94.875 90.9518C94.4836 90.8785 94.1131 90.7197 93.7901 90.4868L95.4141 86.3184Z" fill="#ED893E"/>
<path d="M89.6585 91.5514C89.9333 91.7027 90.2164 91.8383 90.5066 91.9574C90.5519 91.9697 90.6002 91.9648 90.642 91.9436C90.6839 91.9224 90.7164 91.8864 90.7333 91.8426C90.7501 91.7988 90.7501 91.7503 90.7332 91.7065C90.7164 91.6627 90.6838 91.6267 90.642 91.6055C89.8983 91.338 89.2289 90.8974 88.6892 90.3201C88.1496 89.7427 87.755 89.0452 87.5382 88.2852C87.5261 88.2376 87.4959 88.1966 87.454 88.1708C87.4122 88.145 87.362 88.1364 87.314 88.147C87.266 88.1575 87.2239 88.1863 87.1968 88.2272C87.1696 88.2682 87.1594 88.3181 87.1683 88.3664C87.3505 89.0363 87.6646 89.6631 88.0922 90.21C88.5198 90.7569 89.0523 91.213 89.6585 91.5514Z" fill="#315131"/>
<path d="M75.8903 82.6918C75.7467 84.1948 76.2041 85.6935 77.1624 86.8602C78.4527 88.4031 80.2211 87.5279 80.7715 85.7234C81.3038 84.0993 81.2767 81.3384 79.5263 80.4632C79.1434 80.2861 78.7226 80.2063 78.3014 80.2309C77.8802 80.2555 77.4715 80.3838 77.1118 80.6043C76.7521 80.8248 76.4523 81.1307 76.2392 81.4948C76.0261 81.859 75.9063 82.2702 75.8903 82.6918Z" fill="#FFB573"/>
<path d="M90.2997 79.552C90.3476 79.6155 90.4151 79.6615 90.4918 79.6827C90.5685 79.7039 90.65 79.6992 90.7237 79.6693C92.3388 79.0738 94.1794 80.3279 94.1974 80.3369C94.2788 80.3932 94.3792 80.4148 94.4764 80.397C94.5737 80.3792 94.66 80.3235 94.7162 80.2422C94.7724 80.1608 94.7941 80.0605 94.7763 79.9632C94.7585 79.8659 94.7029 79.7796 94.6215 79.7234C94.5313 79.6602 92.438 78.2437 90.4621 78.9745C90.3696 79.0091 90.2943 79.0785 90.2521 79.1678C90.21 79.2571 90.2044 79.3593 90.2365 79.4527C90.2521 79.489 90.2735 79.5225 90.2997 79.552Z" fill="#315131"/>
<path d="M101.956 82.6292C102.027 82.6742 102.11 82.6939 102.194 82.6852C102.277 82.6765 102.355 82.6398 102.414 82.5812C102.474 82.5225 102.512 82.4454 102.522 82.3624C102.533 82.2793 102.514 82.1953 102.471 82.1239C102.191 81.6021 101.792 81.1541 101.306 80.8169C100.82 80.4796 100.26 80.2627 99.6735 80.1841C99.5745 80.1791 99.4774 80.2132 99.4032 80.279C99.329 80.3448 99.2835 80.437 99.2765 80.5359C99.2729 80.5846 99.2788 80.6334 99.2941 80.6797C99.3093 80.726 99.3336 80.7688 99.3654 80.8057C99.3973 80.8426 99.4361 80.8729 99.4797 80.8947C99.5233 80.9165 99.5708 80.9295 99.6194 80.9329C100.084 81 100.526 81.1764 100.908 81.4478C101.291 81.7192 101.604 82.0778 101.821 82.4939C101.849 82.5535 101.897 82.6014 101.956 82.6292Z" fill="#315131"/>
<path d="M15.9171 309.591H16.0163C16.1916 309.598 16.3659 309.561 16.5234 309.484C16.681 309.407 16.8168 309.292 16.9186 309.149C16.9969 309.068 17.051 308.967 17.0749 308.857C17.0988 308.747 17.0916 308.633 17.0539 308.526C16.7472 307.57 13.9953 306.839 13.6795 306.722C13.6452 306.714 13.6092 306.715 13.5758 306.727C13.5423 306.738 13.5126 306.758 13.49 306.785C13.4698 306.816 13.4591 306.852 13.4591 306.889C13.4591 306.926 13.4698 306.962 13.49 306.993C13.9682 307.94 14.9156 309.42 15.9171 309.591ZM14.0223 307.29C15.1141 307.606 16.5396 308.193 16.7291 308.689C16.7429 308.736 16.7435 308.787 16.7308 308.834C16.718 308.882 16.6925 308.925 16.6569 308.96C16.5887 309.058 16.4967 309.138 16.3895 309.192C16.2822 309.245 16.1632 309.271 16.0434 309.266C15.466 309.194 14.7441 308.454 14.0223 307.29Z" fill="#72B472"/>
<path d="M13.86 307.2C14.8254 307.38 16.675 307.245 17.1532 306.586C17.247 306.472 17.2983 306.328 17.2983 306.18C17.2983 306.032 17.247 305.889 17.1532 305.774C17.0715 305.657 16.9655 305.56 16.8424 305.488C16.7194 305.417 16.5822 305.372 16.4404 305.359C15.3036 305.233 13.6164 306.758 13.5442 306.821C13.5223 306.843 13.506 306.87 13.4966 306.9C13.4872 306.93 13.485 306.961 13.4901 306.992C13.4979 307.025 13.5135 307.055 13.5355 307.08C13.5575 307.105 13.5853 307.124 13.6164 307.136L13.86 307.2ZM16.4224 305.738C16.5007 305.752 16.5753 305.782 16.6419 305.825C16.7086 305.868 16.7658 305.925 16.8104 305.991C16.9547 306.189 16.9096 306.297 16.8104 306.37C16.4856 306.812 14.9427 307.01 13.9953 306.857C14.6348 306.253 15.4441 305.859 16.3141 305.729L16.4224 305.738Z" fill="#72B472"/>
<path d="M79.6346 332.41C80.3079 332.472 80.9823 332.303 81.5474 331.932C81.6711 331.819 81.766 331.678 81.8241 331.521C81.8822 331.364 81.9017 331.196 81.8812 331.03C81.8769 330.926 81.8455 330.826 81.79 330.739C81.7345 330.652 81.6571 330.581 81.5654 330.533C80.6 330.001 77.4601 331.607 77.1083 331.797C77.0737 331.813 77.0454 331.841 77.0275 331.875C77.0097 331.909 77.0032 331.948 77.009 331.986C77.0179 332.023 77.037 332.057 77.0641 332.084C77.0911 332.111 77.1252 332.13 77.1624 332.139C77.976 332.308 78.8038 332.398 79.6346 332.41ZM81.0421 330.786C81.1598 330.779 81.2774 330.801 81.3849 330.849C81.4229 330.869 81.4548 330.899 81.4771 330.935C81.4993 330.972 81.5111 331.014 81.5113 331.057C81.529 331.166 81.5184 331.278 81.4805 331.383C81.4426 331.487 81.3786 331.58 81.2947 331.652C80.8165 332.085 79.4902 332.157 77.7759 331.869C78.7919 331.31 79.8969 330.931 81.0421 330.75V330.786Z" fill="#72B472"/>
<path d="M77.1981 332.138H77.2703C78.1726 331.714 80.0673 330.009 79.923 329.125C79.923 328.908 79.7335 328.646 79.2192 328.592C79.0298 328.574 78.8387 328.596 78.6584 328.656C78.478 328.717 78.3125 328.815 78.1726 328.944C77.1801 329.765 76.9997 331.885 76.9906 331.976C76.9888 332.009 76.9952 332.042 77.0094 332.072C77.0236 332.102 77.0451 332.128 77.0718 332.147C77.1139 332.156 77.1578 332.153 77.1981 332.138ZM79.0748 328.944H79.1831C79.526 328.944 79.544 329.115 79.553 329.161C79.6433 329.702 78.3801 331.037 77.4237 331.615C77.4972 330.721 77.8472 329.873 78.4252 329.188C78.605 329.03 78.8359 328.944 79.0748 328.944Z" fill="#72B472"/>
<path d="M92.13 82.6289L93.718 82.7733C93.718 82.7733 92.554 83.5853 92.13 82.6289Z" fill="#315131"/>
<path d="M125.55 224.815L75.5655 207.672L97.1475 165.727L134.239 178.439L125.55 224.815Z" fill="#315131"/>
<path d="M127.111 225.346L119.198 222.63L157.265 195.418L157.192 198.91L127.111 225.346Z" fill="#315131"/>
<path d="M93.9353 203.992C86.0768 204.009 78.4868 201.134 72.6125 195.914C66.7381 190.694 62.9904 183.495 62.0839 175.689C61.1773 167.883 63.1754 160.016 67.6972 153.589C72.2189 147.162 78.948 142.623 86.6013 140.839C94.2546 139.055 102.297 140.15 109.194 143.916C116.092 147.681 121.363 153.854 124.001 161.256C126.64 168.658 126.461 176.773 123.501 184.052C120.54 191.331 115.004 197.267 107.947 200.726C103.586 202.865 98.7935 203.982 93.9353 203.992ZM93.8811 142.936C86.5636 142.927 79.51 145.67 74.1204 150.619C68.7308 155.569 65.3991 162.364 64.7865 169.656C64.1739 176.948 66.3253 184.204 70.8135 189.983C75.3018 195.763 81.7989 199.643 89.0154 200.855C96.232 202.067 103.64 200.522 109.77 196.525C115.9 192.529 120.304 186.374 122.107 179.282C123.91 172.19 122.981 164.68 119.504 158.241C116.027 151.802 110.256 146.906 103.337 144.524C100.295 143.473 97.0994 142.937 93.8811 142.936Z" fill="#315131"/>
<path d="M155.36 185.539L155.956 198.243L166.765 204.956L155.36 185.539Z" fill="#315131"/>
<path d="M67.9591 147.718L74.699 144.109L73.0749 151.95C73.0749 151.95 68.2388 153.439 65.92 151.138L66.8764 148.936C67.0886 148.419 67.4705 147.99 67.9591 147.718Z" fill="#FFB573"/>
<path d="M64.9994 119.422C64.458 120.099 63.8265 120.929 63.1949 121.705C62.5633 122.481 62.0219 123.311 61.4625 124.132C60.3437 125.765 59.225 127.407 58.2235 129.103C56.2016 132.392 54.5466 135.893 53.2881 139.542L52.9092 140.733C52.8593 140.888 52.829 141.049 52.8189 141.211C52.8175 141.541 52.9325 141.861 53.1437 142.114C54.1983 143.254 55.5011 144.137 56.9513 144.694C58.7225 145.463 60.5505 146.093 62.4189 146.58C64.3227 147.112 66.3438 147.545 68.2746 147.915L68.0761 151.894C63.6187 152.128 59.1526 151.644 54.849 150.46C53.679 150.109 52.541 149.659 51.4475 149.115C50.1753 148.496 49.021 147.66 48.037 146.643C46.8066 145.371 46.0052 143.747 45.7453 141.996C45.6137 141.123 45.6137 140.235 45.7453 139.362C45.7453 139.172 45.8174 138.92 45.8535 138.775L45.9528 138.36L46.1603 137.512C46.4129 136.375 46.7828 135.311 47.1167 134.219C47.4505 133.127 47.8836 132.081 48.3347 131.061C49.1986 129.012 50.1807 127.015 51.2761 125.079C52.3588 123.157 53.4956 121.29 54.7407 119.485C55.3633 118.583 56.0039 117.681 56.6626 116.778C57.3212 115.876 57.9798 115.064 58.7738 114.135L64.9994 119.422Z" fill="#FFB573"/>
<path d="M65.3247 105.13C56.0766 107.06 51.836 118.248 51.836 118.248L62.8345 128.57C62.8345 128.57 67.824 126.45 68.5187 122.155C69.2225 117.68 67.8962 104.588 65.3247 105.13Z" fill="#315131"/>
<path d="M81.2227 145.173L79.5084 151.66L73.0753 151.913L74.6993 144.072L81.2227 145.173Z" fill="#FFB573"/>
</svg>
