<svg width="308" height="384" viewBox="0 0 308 384" fill="none" xmlns="http://www.w3.org/2000/svg">
<path d="M186.746 338.377H108.563V338.645H186.746V338.377Z" fill="#E6E6E6"/>
<path d="M177.073 199.232H147.741V320.04H177.073V199.232Z" fill="#E6E6E6"/>
<path d="M261.429 248.114H227.899C227.364 248.114 226.85 247.901 226.472 247.523C226.093 247.144 225.881 246.631 225.881 246.096C225.881 245.559 226.093 245.045 226.471 244.665C226.849 244.284 227.363 244.069 227.899 244.066H261.429C261.965 244.069 262.479 244.284 262.857 244.665C263.235 245.045 263.448 245.559 263.448 246.096C263.448 246.631 263.235 247.144 262.856 247.523C262.478 247.901 261.964 248.114 261.429 248.114Z" fill="#F5F5F5"/>
<path d="M261.429 283.009H227.899C227.363 283.006 226.849 282.791 226.471 282.41C226.093 282.03 225.881 281.516 225.881 280.979C225.881 280.444 226.093 279.931 226.472 279.552C226.85 279.174 227.364 278.961 227.899 278.961H261.429C261.964 278.961 262.478 279.174 262.856 279.552C263.235 279.931 263.448 280.444 263.448 280.979C263.448 281.516 263.235 282.03 262.857 282.41C262.479 282.791 261.965 283.006 261.429 283.009Z" fill="#F5F5F5"/>
<path d="M143.638 199.242H177.072V189.322H143.638V199.242Z" fill="#E0E0E0"/>
<path d="M159.036 189.311H188.185V154.374H159.036V189.311Z" fill="#E6E6E6"/>
<path d="M157.413 159.871H188.174V152.935H157.413V159.871Z" fill="#E6E6E6"/>
<path d="M184.137 34.8223H60.5811C51.912 34.8223 44.8843 41.85 44.8843 50.5191V346.364C44.8843 355.033 51.912 362.061 60.5811 362.061H184.137C192.806 362.061 199.834 355.033 199.834 346.364V50.5191C199.834 41.85 192.806 34.8223 184.137 34.8223Z" fill="#72B472"/>
<path opacity="0.7" d="M184.137 34.8223H60.5811C51.912 34.8223 44.8843 41.85 44.8843 50.5191V346.364C44.8843 355.033 51.912 362.061 60.5811 362.061H184.137C192.806 362.061 199.834 355.033 199.834 346.364V50.5191C199.834 41.85 192.806 34.8223 184.137 34.8223Z" fill="white"/>
<path d="M188.281 34.2637H64.7257C56.0566 34.2637 49.0289 41.2914 49.0289 49.9605V345.805C49.0289 354.474 56.0566 361.502 64.7257 361.502H188.281C196.951 361.502 203.978 354.474 203.978 345.805V49.9605C203.978 41.2914 196.951 34.2637 188.281 34.2637Z" fill="#72B472"/>
<path opacity="0.2" d="M188.281 34.2637H64.7257C56.0566 34.2637 49.0289 41.2914 49.0289 49.9605V345.805C49.0289 354.474 56.0566 361.502 64.7257 361.502H188.281C196.951 361.502 203.978 354.474 203.978 345.805V49.9605C203.978 41.2914 196.951 34.2637 188.281 34.2637Z" fill="black"/>
<path d="M132.549 347.084C132.551 348.468 132.143 349.82 131.375 350.971C130.608 352.122 129.517 353.02 128.239 353.55C126.961 354.081 125.555 354.22 124.198 353.951C122.842 353.681 121.595 353.015 120.617 352.037C119.639 351.059 118.973 349.813 118.704 348.456C118.434 347.099 118.574 345.693 119.104 344.415C119.634 343.138 120.532 342.046 121.683 341.279C122.834 340.512 124.187 340.103 125.57 340.105C127.421 340.105 129.196 340.841 130.505 342.15C131.814 343.458 132.549 345.233 132.549 347.084Z" fill="#72B472"/>
<path opacity="0.4" d="M132.549 347.084C132.551 348.468 132.143 349.82 131.375 350.971C130.608 352.122 129.517 353.02 128.239 353.55C126.961 354.081 125.555 354.22 124.198 353.951C122.842 353.681 121.595 353.015 120.617 352.037C119.639 351.059 118.973 349.813 118.704 348.456C118.434 347.099 118.574 345.693 119.104 344.415C119.634 343.138 120.532 342.046 121.683 341.279C122.834 340.512 124.187 340.103 125.57 340.105C127.421 340.105 129.196 340.841 130.505 342.15C131.814 343.458 132.549 345.233 132.549 347.084Z" fill="black"/>
<path d="M202.732 336.852H48.5562V55.6406H203.806L202.732 336.852Z" fill="#72B472"/>
<path opacity="0.8" d="M204.096 336.7L48.4703 336.883V55.6611L203.956 55.5L204.096 336.7Z" fill="white"/>
<path d="M170.459 67.2773H63.5125C57.6185 67.2773 52.8404 72.0554 52.8404 77.9494V141.789C52.8404 147.683 57.6185 152.461 63.5125 152.461H170.459C176.353 152.461 181.131 147.683 181.131 141.789V77.9494C181.131 72.0554 176.353 67.2773 170.459 67.2773Z" fill="white"/>
<path opacity="0.27" d="M77.9714 100.065C85.2091 97.0387 88.6233 88.7182 85.5972 81.4805C82.5711 74.2428 74.2506 70.8286 67.0128 73.8547C59.7751 76.8808 56.3609 85.2013 59.3871 92.4391C62.4132 99.6768 70.7337 103.091 77.9714 100.065Z" fill="#72B472"/>
<path d="M84.2227 86.9596C84.2316 88.9107 83.7439 90.8319 82.8055 92.5426C81.4433 95.0552 79.2102 96.9838 76.526 97.9656C73.8418 98.9474 70.8913 98.9149 68.2294 97.8742C65.5675 96.8335 63.3774 94.8563 62.0708 92.3142C60.7643 89.7722 60.4314 86.8404 61.1346 84.0701C61.8378 81.2998 63.5288 78.8818 65.8896 77.2707C68.2504 75.6596 71.1184 74.9663 73.9544 75.3212C76.7904 75.6762 79.3991 77.0548 81.29 79.1981C83.181 81.3413 84.2239 84.1014 84.2227 86.9596Z" fill="white"/>
<path opacity="0.27" d="M82.806 92.5306C81.7998 94.3868 80.3109 95.9367 78.4967 97.0168C76.6826 98.0969 74.6104 98.6671 72.499 98.6671C70.3876 98.6671 68.3154 98.0969 66.5013 97.0168C64.6871 95.9367 63.1982 94.3868 62.192 92.5306C65.2434 90.4935 68.8301 89.4063 72.499 89.4062C76.1679 89.4062 79.7546 90.4935 82.806 92.5306Z" fill="#72B472"/>
<path opacity="0.27" d="M72.4988 88.1507C75.3806 88.1507 77.7167 85.8146 77.7167 82.9328C77.7167 80.051 75.3806 77.7148 72.4988 77.7148C69.617 77.7148 67.2808 80.051 67.2808 82.9328C67.2808 85.8146 69.617 88.1507 72.4988 88.1507Z" fill="#72B472"/>
<path d="M173.261 160.332H60.7103C56.3639 160.332 52.8404 163.855 52.8404 168.202V182.277C52.8404 186.624 56.3639 190.147 60.7103 190.147H173.261C177.607 190.147 181.131 186.624 181.131 182.277V168.202C181.131 163.855 177.607 160.332 173.261 160.332Z" fill="white"/>
<path opacity="0.6" d="M202.936 193.036L218.107 234.844C218.498 235.938 218.441 237.141 217.948 238.193C217.455 239.245 216.567 240.059 215.476 240.459L135.887 269.33C134.794 269.721 133.592 269.666 132.54 269.175C131.489 268.684 130.673 267.798 130.272 266.71L115.101 224.891C114.707 223.799 114.763 222.595 115.256 221.545C115.75 220.494 116.64 219.682 117.731 219.287L197.321 190.405C198.415 190.014 199.619 190.071 200.67 190.564C201.722 191.057 202.537 191.945 202.936 193.036Z" fill="#72B472"/>
<path d="M200.532 190.5L177.781 227.938C175.674 231.41 172.444 234.057 168.627 235.442C164.809 236.826 160.633 236.865 156.791 235.551L115.327 221.4C115.826 220.404 116.686 219.637 117.732 219.253L197.321 190.371C198.37 190.008 199.516 190.054 200.532 190.5Z" fill="#72B472"/>
<path opacity="0.5" d="M200.532 190.5L177.781 227.938C175.674 231.41 172.444 234.057 168.627 235.442C164.809 236.826 160.633 236.865 156.791 235.551L115.327 221.4C115.826 220.404 116.686 219.637 117.732 219.253L197.321 190.371C198.37 190.008 199.516 190.054 200.532 190.5Z" fill="white"/>
<path opacity="0.6" d="M177.974 264.894L177.244 302.558C177.221 303.541 176.811 304.474 176.103 305.156C175.396 305.838 174.447 306.212 173.464 306.198L101.755 304.802C101.269 304.792 100.789 304.687 100.343 304.492C99.8977 304.296 99.4949 304.015 99.1579 303.664C98.8209 303.313 98.5563 302.899 98.3793 302.446C98.2023 301.993 98.1164 301.509 98.1263 301.023L98.8457 263.359C98.8586 262.85 98.9747 262.348 99.1869 261.885C99.3991 261.422 99.7031 261.007 100.08 260.664C100.779 260.04 101.688 259.702 102.625 259.719L174.334 261.104C175.318 261.127 176.254 261.538 176.936 262.248C177.618 262.959 177.991 263.91 177.974 264.894Z" fill="#72B472"/>
<path d="M176.847 262.157L147.472 284.832C144.747 286.933 141.388 288.042 137.949 287.975C134.509 287.909 131.195 286.671 128.554 284.467L100.134 260.664C100.833 260.04 101.742 259.702 102.679 259.719L174.388 261.104C175.31 261.138 176.186 261.513 176.847 262.157Z" fill="#72B472"/>
<path opacity="0.5" d="M176.847 262.157L147.472 284.832C144.747 286.933 141.388 288.042 137.949 287.975C134.509 287.909 131.195 286.671 128.554 284.467L100.134 260.664C100.833 260.04 101.742 259.702 102.679 259.719L174.388 261.104C175.31 261.138 176.186 261.513 176.847 262.157Z" fill="white"/>
<path d="M105.642 43.1227C105.644 42.6348 105.791 42.1584 106.063 41.7537C106.336 41.3491 106.723 41.0342 107.174 40.849C107.625 40.6637 108.122 40.6163 108.6 40.7128C109.078 40.8093 109.517 41.0453 109.861 41.3911C110.206 41.7369 110.44 42.1769 110.534 42.6556C110.629 43.1344 110.579 43.6303 110.392 44.0809C110.205 44.5315 109.888 44.9166 109.482 45.1874C109.076 45.4583 108.599 45.6029 108.111 45.6029C107.786 45.6029 107.464 45.5386 107.164 45.4139C106.864 45.2891 106.591 45.1062 106.362 44.8758C106.132 44.6454 105.95 44.3719 105.827 44.071C105.704 43.7702 105.641 43.4479 105.642 43.1227Z" fill="#72B472"/>
<path d="M116.648 40.6523H137.165C137.819 40.6552 138.446 40.9162 138.908 41.3787C139.371 41.8412 139.632 42.4677 139.635 43.1217C139.635 43.7777 139.375 44.4069 138.912 44.8717C138.449 45.3365 137.821 45.599 137.165 45.6019H116.648C115.992 45.599 115.364 45.3365 114.901 44.8717C114.438 44.4069 114.178 43.7777 114.178 43.1217C114.181 42.4677 114.442 41.8412 114.905 41.3787C115.367 40.9162 115.994 40.6552 116.648 40.6523Z" fill="#72B472"/>
<path opacity="0.4" d="M105.642 43.1227C105.644 42.6348 105.791 42.1584 106.063 41.7537C106.336 41.3491 106.723 41.0342 107.174 40.849C107.625 40.6637 108.122 40.6163 108.6 40.7128C109.078 40.8093 109.517 41.0453 109.861 41.3911C110.206 41.7369 110.44 42.1769 110.534 42.6556C110.629 43.1344 110.579 43.6303 110.392 44.0809C110.205 44.5315 109.888 44.9166 109.482 45.1874C109.076 45.4583 108.599 45.6029 108.111 45.6029C107.786 45.6029 107.464 45.5386 107.164 45.4139C106.864 45.2891 106.591 45.1062 106.362 44.8758C106.132 44.6454 105.95 44.3719 105.827 44.071C105.704 43.7702 105.641 43.4479 105.642 43.1227Z" fill="black"/>
<path opacity="0.4" d="M116.648 40.6523H137.165C137.819 40.6552 138.446 40.9162 138.908 41.3787C139.371 41.8412 139.632 42.4677 139.635 43.1217C139.635 43.7777 139.375 44.4069 138.912 44.8717C138.449 45.3365 137.821 45.599 137.165 45.6019H116.648C115.992 45.599 115.364 45.3365 114.901 44.8717C114.438 44.4069 114.178 43.7777 114.178 43.1217C114.181 42.4677 114.442 41.8412 114.905 41.3787C115.367 40.9162 115.994 40.6552 116.648 40.6523Z" fill="black"/>
<path d="M204.193 90.4062H193.961C191.583 90.4062 189.656 92.3338 189.656 94.7116V125.88C189.656 128.257 191.583 130.185 193.961 130.185H204.193C206.571 130.185 208.498 128.257 208.498 125.88V94.7116C208.498 92.3338 206.571 90.4062 204.193 90.4062Z" fill="#72B472"/>
<path opacity="0.8" d="M204.193 90.4062H193.961C191.583 90.4062 189.656 92.3338 189.656 94.7116V125.88C189.656 128.257 191.583 130.185 193.961 130.185H204.193C206.571 130.185 208.498 128.257 208.498 125.88V94.7116C208.498 92.3338 206.571 90.4062 204.193 90.4062Z" fill="white"/>
<path d="M205.267 141.66H192.888C191.103 141.66 189.656 143.107 189.656 144.892V160.868C189.656 162.653 191.103 164.099 192.888 164.099H205.267C207.052 164.099 208.498 162.653 208.498 160.868V144.892C208.498 143.107 207.052 141.66 205.267 141.66Z" fill="#72B472"/>
<path opacity="0.8" d="M205.267 141.66H192.888C191.103 141.66 189.656 143.107 189.656 144.892V160.868C189.656 162.653 191.103 164.099 192.888 164.099H205.267C207.052 164.099 208.498 162.653 208.498 160.868V144.892C208.498 143.107 207.052 141.66 205.267 141.66Z" fill="white"/>
<mask id="mask0_75030_18700" style="mask-type:luminance" maskUnits="userSpaceOnUse" x="44" y="54" width="156" height="282">
<path d="M199.502 54.5449H44.5524V335.767H199.502V54.5449Z" fill="white"/>
</mask>
<g mask="url(#mask0_75030_18700)">
<path d="M67.903 328.992L75.7944 329.754L84.0078 310.976L76.1165 310.203L67.903 328.992Z" fill="#E4897B"/>
<path d="M84.0087 310.976L79.7785 320.661H71.5436L76.1067 310.203L84.0087 310.976Z" fill="#CE6F64"/>
<path d="M156.641 136.798L156.899 137.378L157.232 138.054C157.446 138.505 157.693 138.967 157.94 139.428C158.445 140.341 159.014 141.264 159.551 142.145C160.682 143.947 161.926 145.675 163.276 147.32C164.651 148.948 166.117 150.496 167.668 151.958C168.473 152.666 169.257 153.396 170.094 154.105L171.35 155.093L171.64 155.329C171.504 155.286 171.364 155.258 171.221 155.243C170.91 155.211 170.596 155.259 170.309 155.383C170.134 155.434 169.977 155.534 169.858 155.673C169.783 155.78 169.976 155.608 170.137 155.329C170.562 154.546 170.897 153.718 171.136 152.86C171.725 150.774 172.188 148.655 172.521 146.514C172.886 144.303 173.186 142.037 173.422 139.772C173.659 137.506 173.906 135.198 174.12 132.943L178.265 132.879C178.522 135.273 178.63 137.603 178.726 139.986C178.823 142.37 178.78 144.732 178.726 147.148C178.632 149.632 178.348 152.104 177.878 154.545C177.606 155.951 177.17 157.321 176.579 158.625C176.151 159.548 175.562 160.388 174.84 161.105C174.28 161.631 173.624 162.044 172.907 162.318C172.072 162.631 171.174 162.742 170.287 162.641C169.568 162.546 168.871 162.328 168.226 161.996C167.968 161.867 167.717 161.723 167.474 161.567L167.066 161.298L165.499 160.225C164.425 159.516 163.48 158.732 162.503 157.949C160.572 156.336 158.76 154.585 157.081 152.709C155.416 150.817 153.884 148.812 152.497 146.708C151.81 145.634 151.176 144.56 150.564 143.487C150.264 142.918 149.974 142.359 149.695 141.769L149.287 140.856C149.147 140.534 149.04 140.276 148.868 139.836L156.641 136.798Z" fill="#E4897B"/>
<path d="M160.27 142.348L153.055 152.3L156.04 155.231L163.717 145.998L160.27 142.348Z" fill="#F5F5F5"/>
<path d="M148.954 129.217C157.081 131.364 162.686 142.766 162.686 142.766L153.302 155.919C153.302 155.919 142.007 141.714 142.297 137.226C142.576 132.524 144.058 127.896 148.954 129.217Z" fill="#72B472"/>
<path opacity="0.7" d="M148.954 129.217C157.081 131.364 162.686 142.766 162.686 142.766L153.302 155.919C153.302 155.919 142.007 141.714 142.297 137.226C142.576 132.524 144.058 127.896 148.954 129.217Z" fill="white"/>
<path d="M155.965 133.414C155.965 133.414 158.638 136.571 127.695 174.02L99.0612 157.249C106.362 145.879 110.581 138.697 119.01 111.512C123.511 113.026 127.896 114.867 132.13 117.02C136.622 119.283 140.968 121.825 145.142 124.632C150.425 128.411 155.965 133.414 155.965 133.414Z" fill="#72B472"/>
<path opacity="0.7" d="M155.965 133.414C155.965 133.414 158.638 136.571 127.695 174.02L99.0612 157.249C106.362 145.879 110.581 138.697 119.01 111.512C123.511 113.026 127.896 114.867 132.13 117.02C136.622 119.283 140.968 121.825 145.142 124.632C150.425 128.411 155.965 133.414 155.965 133.414Z" fill="white"/>
<path d="M152.249 130.184C150.231 128.509 147.643 126.437 145.142 124.633C140.99 121.791 136.641 119.247 132.129 117.021C129.595 115.7 126.997 114.541 124.785 113.66C124.431 114.251 124.721 116.054 125.805 118.696C129.928 124.01 139.505 131.837 147.493 133.394C151.208 132.857 152.368 131.676 152.249 130.184Z" fill="#F5F5F5"/>
<path d="M125.805 118.695C128.211 124.057 131.415 129.023 135.307 133.426C139.359 133.83 143.441 133.83 147.493 133.426C139.505 131.837 129.928 124.01 125.805 118.695Z" fill="#F5F5F5"/>
<path d="M127.728 174.021C127.728 174.021 128.19 247.588 115.145 268.824C101.574 290.909 83.8803 317.847 83.8803 317.847L68.5593 317.106C68.5593 317.106 86.4248 277.253 93.1673 258.754C102.454 233.254 106.749 161.738 106.749 161.738L127.728 174.021Z" fill="#72B472"/>
<path opacity="0.4" d="M127.728 174.021C127.728 174.021 128.19 247.588 115.145 268.824C101.574 290.909 83.8803 317.847 83.8803 317.847L68.5593 317.106C68.5593 317.106 86.4248 277.253 93.1673 258.754C102.454 233.254 106.749 161.738 106.749 161.738L127.728 174.021Z" fill="black"/>
<path opacity="0.2" d="M111.43 176.07C108.949 178.175 106.815 180.657 105.106 183.425C104.623 188.9 104.033 195.052 103.356 201.494C108.027 195.149 111.72 184.015 111.43 176.07Z" fill="black"/>
<path d="M120.159 169.628C120.159 169.628 87.7453 215.645 67.5499 240.489C51.2304 260.513 3.9898 274.846 3.9898 274.846L-1.7757 265.183C-1.7757 265.183 35.8021 244.204 47.011 230.655C82.8924 187.279 82.4415 164.786 99.1045 157.367L120.159 169.628Z" fill="#72B472"/>
<path opacity="0.4" d="M120.159 169.628C120.159 169.628 87.7453 215.645 67.5499 240.489C51.2304 260.513 3.9898 274.846 3.9898 274.846L-1.7757 265.183C-1.7757 265.183 35.8021 244.204 47.011 230.655C82.8924 187.279 82.4415 164.786 99.1045 157.367L120.159 169.628Z" fill="black"/>
<path d="M174.217 133.952L172.07 125.363L180.262 127.747C180.262 127.747 180.036 133.523 177.202 135.402L174.217 133.952Z" fill="#E4897B"/>
<path d="M174.679 118.469L180.434 121.378L180.294 127.788L172.102 125.405L174.679 118.469Z" fill="#E4897B"/>
<path d="M71.7692 121.628L64.2536 117.012L71.7692 112.996C71.7692 112.996 75.6236 117.291 74.9149 120.619L71.7692 121.628Z" fill="#E4897B"/>
<path d="M61.279 110.235L67.431 108.303L71.8115 112.995L64.2637 117.01L61.279 110.235Z" fill="#E4897B"/>
<path d="M76.8473 327.316H67.1844C67.0102 327.318 66.8412 327.376 66.7034 327.483C66.5657 327.59 66.4669 327.739 66.4221 327.907L64.2748 335.584C64.2222 335.764 64.2131 335.955 64.2482 336.139C64.2833 336.324 64.3616 336.498 64.4768 336.647C64.592 336.795 64.7408 336.915 64.9109 336.995C65.0811 337.075 65.2678 337.114 65.4558 337.108C68.8486 337.054 70.502 336.861 74.7644 336.861C77.3841 336.861 84.1696 337.13 87.7878 337.13C91.406 337.13 92.0824 333.544 90.6115 333.222C84.03 331.772 80.2507 329.764 78.2215 327.853C77.8482 327.506 77.3569 327.314 76.8473 327.316Z" fill="#315131"/>
<path d="M99.6309 155.319L96.8394 157.134C96.6247 157.273 96.7428 157.617 97.0756 157.81L127.138 175.386C127.395 175.536 127.685 175.536 127.793 175.386L129.554 172.97C129.672 172.798 129.554 172.519 129.253 172.358L100.264 155.384C100.175 155.315 100.069 155.272 99.9568 155.261C99.8449 155.25 99.7319 155.27 99.6309 155.319Z" fill="#315131"/>
<path d="M116.658 123.827C114.629 125.448 112.696 126.758 110.646 128.121C108.595 129.485 106.512 130.655 104.365 131.815C100.056 134.173 95.5199 136.09 90.826 137.537C90.2462 137.741 89.6235 137.881 89.033 138.042C88.4425 138.203 87.8734 138.364 87.1648 138.514C85.6257 138.86 84.039 138.939 82.473 138.75C80.8126 138.553 79.2151 137.996 77.7918 137.118C76.4688 136.282 75.3084 135.212 74.3669 133.962C72.7776 131.747 71.6394 129.24 71.0171 126.586C70.6991 125.362 70.4695 124.117 70.33 122.86C70.1594 121.608 70.0769 120.345 70.083 119.081L74.2059 118.727C74.7031 120.823 75.3747 122.873 76.2136 124.857C76.9435 126.675 78.0027 128.342 79.3379 129.775C79.8168 130.315 80.4009 130.751 81.0544 131.058C81.708 131.364 82.4172 131.534 83.1386 131.557C83.8965 131.551 84.6493 131.432 85.3718 131.203C86.3059 130.902 87.401 130.558 88.3995 130.193C92.5318 128.64 96.5286 126.747 100.349 124.535C102.303 123.462 104.171 122.227 106.061 121.035C107.951 119.843 109.808 118.501 111.429 117.277L116.658 123.827Z" fill="#E4897B"/>
<path d="M103.378 121.015L107.092 132.245L110.582 130.151L107.318 119.018L103.378 121.015Z" fill="#F5F5F5"/>
<path d="M81.1418 328.917C80.2485 328.9 79.3596 328.788 78.4899 328.584C78.4505 328.574 78.4152 328.552 78.3884 328.521C78.3616 328.491 78.3446 328.453 78.3395 328.413C78.3393 328.373 78.3502 328.333 78.371 328.299C78.3919 328.265 78.4219 328.237 78.4576 328.219C79.1018 327.908 82.4087 326.416 83.2891 327.006C83.3735 327.066 83.4401 327.147 83.4817 327.242C83.5233 327.336 83.5384 327.44 83.5253 327.543C83.5207 327.723 83.4748 327.901 83.3911 328.061C83.3073 328.221 83.1879 328.359 83.0421 328.466C82.4706 328.81 81.8066 328.967 81.1418 328.917ZM79.1663 328.327C80.2399 328.52 82.0436 328.735 82.8059 328.155C82.9092 328.082 82.9934 327.986 83.0513 327.874C83.1093 327.761 83.1393 327.637 83.1388 327.511C83.145 327.477 83.1424 327.443 83.131 327.411C83.1197 327.379 83.1002 327.35 83.0743 327.328C82.5912 327.006 80.605 327.693 79.1663 328.327Z" fill="#72B472"/>
<path d="M78.5325 328.585C78.4945 328.6 78.4523 328.6 78.4144 328.585C78.3844 328.564 78.362 328.533 78.3504 328.499C78.3388 328.464 78.3387 328.426 78.35 328.391C78.35 328.241 79.1874 324.73 81.12 324.977C81.6246 325.031 81.7534 325.289 81.7856 325.482C81.9145 326.405 79.7028 328.166 78.5647 328.617L78.5325 328.585ZM80.9482 325.31C79.7887 325.31 79.0908 327.189 78.8009 328.037C79.8745 327.425 81.4421 326.029 81.3669 325.493C81.3669 325.407 81.2488 325.342 81.0448 325.321L80.9482 325.31Z" fill="#72B472"/>
<path d="M101.627 160.848L100.854 160.397C100.704 160.3 100.628 160.15 100.693 160.064L103.012 156.939C103.076 156.854 103.259 156.854 103.409 156.939L104.193 157.401C104.343 157.487 104.418 157.637 104.354 157.723L102.035 160.848C101.97 160.933 101.788 160.933 101.627 160.848Z" fill="#72B472"/>
<path d="M124.764 174.387L123.991 173.925C123.841 173.839 123.766 173.689 123.83 173.603L126.149 170.478C126.214 170.393 126.396 170.393 126.547 170.478L127.33 170.929C127.481 171.026 127.556 171.176 127.481 171.262L125.172 174.387C125.108 174.472 124.925 174.472 124.764 174.387Z" fill="#72B472"/>
<path d="M113.202 167.61L112.418 167.16C112.267 167.074 112.192 166.923 112.267 166.827L114.576 163.713C114.651 163.616 114.823 163.616 114.984 163.713L115.757 164.164C115.918 164.25 115.982 164.4 115.918 164.497L113.599 167.61C113.534 167.707 113.352 167.707 113.202 167.61Z" fill="#72B472"/>
<path opacity="0.4" d="M101.627 160.848L100.854 160.397C100.704 160.3 100.628 160.15 100.693 160.064L103.012 156.939C103.076 156.854 103.259 156.854 103.409 156.939L104.193 157.401C104.343 157.487 104.418 157.637 104.354 157.723L102.035 160.848C101.97 160.933 101.788 160.933 101.627 160.848Z" fill="black"/>
<path opacity="0.4" d="M124.764 174.387L123.991 173.925C123.841 173.839 123.766 173.689 123.83 173.603L126.149 170.478C126.214 170.393 126.396 170.393 126.547 170.478L127.33 170.929C127.481 171.026 127.556 171.176 127.481 171.262L125.172 174.387C125.108 174.472 124.925 174.472 124.764 174.387Z" fill="black"/>
<path opacity="0.4" d="M113.202 167.61L112.418 167.16C112.267 167.074 112.192 166.923 112.267 166.827L114.576 163.713C114.651 163.616 114.823 163.616 114.984 163.713L115.757 164.164C115.918 164.25 115.982 164.4 115.918 164.497L113.599 167.61C113.534 167.707 113.352 167.707 113.202 167.61Z" fill="black"/>
<path d="M134.685 119.169C134.685 112.727 132.538 87.3777 143.102 85.2304C146.441 81.7088 162.986 81.3438 165.52 90.2981C168.87 102.055 163.91 130.743 163.91 130.743L134.685 119.169Z" fill="#315131"/>
<path d="M166.111 130.807C166.076 130.803 166.041 130.792 166.01 130.774C165.979 130.757 165.952 130.734 165.93 130.706C165.908 130.678 165.892 130.646 165.882 130.611C165.873 130.577 165.87 130.541 165.875 130.506C165.875 130.216 169.364 101.517 165.51 90.1582C164.436 87.0446 161.451 84.8651 157.028 84.0062C151.273 82.8788 145.046 84.2853 143.317 86.2823C143.267 86.3315 143.2 86.359 143.13 86.359C143.059 86.359 142.992 86.3315 142.942 86.2823C142.892 86.2303 142.864 86.1611 142.864 86.0891C142.864 86.017 142.892 85.9478 142.942 85.8958C144.96 83.5552 151.735 82.385 157.168 83.4479C161.784 84.339 164.941 86.6688 166.057 89.9542C169.944 101.453 166.476 130.248 166.444 130.538C166.443 130.579 166.433 130.619 166.415 130.656C166.397 130.692 166.372 130.724 166.34 130.75C166.308 130.776 166.271 130.794 166.232 130.804C166.192 130.814 166.151 130.815 166.111 130.807Z" fill="#315131"/>
<path d="M142.008 103.139C140.386 107.798 136.714 115.947 132.151 117.021C132.151 117.021 130.809 121.938 138.593 126.491C147.183 131.494 145.164 124.633 145.164 124.633C141.149 120.79 143.285 117.397 146.001 114.627L142.008 103.139Z" fill="#E4897B"/>
<path d="M143.618 107.82L145.98 114.617C145.341 115.258 144.755 115.951 144.23 116.689C142.598 115.39 140.848 112.222 141.749 110.247C142.222 109.333 142.855 108.511 143.618 107.82Z" fill="#CE6F64"/>
<path d="M142.071 93.8516C139.849 101.657 138.743 104.91 141.223 110.182C144.949 118.127 155.009 119.147 159.475 112.168C163.534 105.887 166.475 94.1844 160.076 88.5478C158.673 87.2996 156.975 86.4294 155.143 86.0191C153.31 85.6088 151.403 85.672 149.602 86.2026C147.801 86.7333 146.164 87.7139 144.846 89.0522C143.529 90.3904 142.574 92.0421 142.071 93.8516Z" fill="#E4897B"/>
<path d="M139.785 98.7695C145.335 100.842 158.38 93.9595 161.934 89.74C162.407 83.2337 147.15 85.7997 147.15 85.7997C147.15 85.7997 139.012 83.2981 139.785 98.7695Z" fill="#315131"/>
<path d="M138.465 100.327C138.103 101.852 138.362 103.459 139.184 104.793C140.258 106.554 142.233 105.867 143.092 104.128C143.865 102.539 144.22 99.6934 142.555 98.5446C142.185 98.3008 141.76 98.1532 141.319 98.1153C140.877 98.0773 140.433 98.1501 140.027 98.3271C139.621 98.5041 139.265 98.7797 138.992 99.1289C138.72 99.4781 138.538 99.8898 138.465 100.327Z" fill="#E4897B"/>
<path d="M152.905 100.068C152.68 100.69 152.83 101.313 153.238 101.453C153.646 101.592 154.151 101.206 154.376 100.583C154.602 99.9602 154.441 99.3482 154.033 99.1978C153.625 99.0475 153.12 99.4448 152.905 100.068Z" fill="#315131"/>
<path d="M159.926 102.547C159.712 103.169 159.862 103.781 160.27 103.932C160.678 104.082 161.183 103.685 161.397 103.062C161.612 102.439 161.462 101.817 161.065 101.677C160.667 101.537 160.152 101.924 159.926 102.547Z" fill="#315131"/>
<path d="M160.872 101.645L162.514 101.741C162.514 101.741 161.333 102.643 160.872 101.645Z" fill="#315131"/>
<path d="M157.693 102.957C157.75 104.568 158.024 106.165 158.509 107.703C158.113 107.819 157.696 107.846 157.287 107.783C156.879 107.72 156.49 107.568 156.147 107.338L157.693 102.957Z" fill="#DE5753"/>
<path d="M153.163 109.032H153.098C152.255 108.758 151.49 108.287 150.867 107.658C150.243 107.028 149.778 106.259 149.512 105.414C149.502 105.363 149.512 105.31 149.54 105.266C149.568 105.222 149.612 105.19 149.662 105.177C149.687 105.171 149.713 105.17 149.738 105.174C149.763 105.179 149.787 105.188 149.809 105.203C149.83 105.217 149.848 105.235 149.862 105.257C149.875 105.278 149.884 105.303 149.888 105.328C150.148 106.105 150.585 106.811 151.164 107.39C151.744 107.97 152.45 108.407 153.227 108.667C153.27 108.682 153.307 108.712 153.33 108.751C153.353 108.791 153.362 108.837 153.354 108.882C153.346 108.927 153.323 108.968 153.288 108.997C153.253 109.027 153.208 109.043 153.163 109.043V109.032Z" fill="#315131"/>
<path d="M152.593 97.6079C152.506 97.6091 152.421 97.5809 152.352 97.5277C152.283 97.4746 152.234 97.3997 152.212 97.3152C152.191 97.2306 152.199 97.1414 152.235 97.062C152.271 96.9826 152.333 96.9177 152.41 96.8778C152.944 96.5762 153.542 96.4062 154.154 96.3819C154.767 96.3577 155.376 96.4798 155.932 96.7382C155.982 96.7587 156.027 96.7896 156.065 96.8288C156.102 96.868 156.131 96.9146 156.15 96.9657C156.168 97.0167 156.175 97.0711 156.171 97.1251C156.167 97.1792 156.152 97.2318 156.126 97.2796C156.1 97.3273 156.065 97.3691 156.022 97.4022C155.979 97.4353 155.929 97.459 155.876 97.4717C155.824 97.4844 155.769 97.4859 155.716 97.4761C155.662 97.4663 155.612 97.4453 155.567 97.4146C155.123 97.2178 154.638 97.1289 154.153 97.155C153.668 97.1811 153.196 97.3216 152.775 97.5649C152.719 97.5944 152.656 97.6092 152.593 97.6079Z" fill="#315131"/>
<path d="M164.382 100.454C164.298 100.454 164.216 100.426 164.149 100.373C164.083 100.32 164.036 100.247 164.017 100.165C163.909 99.692 163.692 99.2514 163.382 98.8784C163.072 98.5054 162.679 98.2104 162.235 98.0172C162.138 97.983 162.058 97.9124 162.012 97.8202C161.965 97.7281 161.957 97.6216 161.988 97.5233C162.003 97.4745 162.029 97.4293 162.063 97.3907C162.096 97.352 162.138 97.3206 162.184 97.2985C162.23 97.2764 162.28 97.2639 162.332 97.262C162.383 97.26 162.434 97.2686 162.482 97.2871C163.05 97.5205 163.553 97.8872 163.949 98.3563C164.346 98.8254 164.623 99.383 164.758 99.982C164.771 100.031 164.774 100.083 164.767 100.133C164.76 100.184 164.743 100.232 164.717 100.276C164.691 100.32 164.656 100.359 164.616 100.389C164.575 100.42 164.528 100.442 164.479 100.454H164.382Z" fill="#315131"/>
<path d="M153.817 99.1758L155.46 99.2724C155.46 99.2724 154.311 100.164 153.817 99.1758Z" fill="#315131"/>
<path d="M119.031 111.513C115.649 110.707 105.246 118.631 105.246 118.631L109.658 132.706C109.658 132.706 120.535 126.683 121.544 122.249C122.542 117.654 122.886 112.436 119.031 111.513Z" fill="#72B472"/>
<path opacity="0.7" d="M119.031 111.513C115.649 110.707 105.246 118.631 105.246 118.631L109.658 132.706C109.658 132.706 120.535 126.683 121.544 122.249C122.542 117.654 122.886 112.436 119.031 111.513Z" fill="white"/>
</g>
<path d="M242.93 21.9395H163.265C159.848 21.9395 156.571 23.2969 154.155 25.713C151.739 28.1292 150.382 31.4063 150.382 34.8233V59.5173C150.382 62.9343 151.739 66.2113 154.155 68.6275C156.571 71.0437 159.848 72.4011 163.265 72.4011H169.922V85.0702L182.591 72.4011H242.93C246.347 72.4011 249.624 71.0437 252.04 68.6275C254.457 66.2113 255.814 62.9343 255.814 59.5173V34.8233C255.814 31.4063 254.457 28.1292 252.04 25.713C249.624 23.2969 246.347 21.9395 242.93 21.9395Z" fill="#72B472"/>
<path opacity="0.3" d="M242.93 21.9395H163.265C159.848 21.9395 156.571 23.2969 154.155 25.713C151.739 28.1292 150.382 31.4063 150.382 34.8233V59.5173C150.382 62.9343 151.739 66.2113 154.155 68.6275C156.571 71.0437 159.848 72.4011 163.265 72.4011H169.922V85.0702L182.591 72.4011H242.93C246.347 72.4011 249.624 71.0437 252.04 68.6275C254.457 66.2113 255.814 62.9343 255.814 59.5173V34.8233C255.814 31.4063 254.457 28.1292 252.04 25.713C249.624 23.2969 246.347 21.9395 242.93 21.9395Z" fill="black"/>
<g opacity="0.54">
<path d="M241.063 32.2031H165.113C163.482 32.2031 162.16 33.525 162.16 35.1557C162.16 36.7863 163.482 38.1082 165.113 38.1082H241.063C242.693 38.1082 244.015 36.7863 244.015 35.1557C244.015 33.525 242.693 32.2031 241.063 32.2031Z" fill="#F5F5F5"/>
</g>
<g opacity="0.54">
<path d="M241.052 49.8436H192.372C191.587 49.8407 190.835 49.5276 190.28 48.9725C189.725 48.4174 189.412 47.6653 189.409 46.8803C189.412 46.0962 189.725 45.3453 190.281 44.7919C190.836 44.2385 191.588 43.9277 192.372 43.9277H241.052C241.835 43.9277 242.586 44.2388 243.139 44.7925C243.693 45.3462 244.004 46.0972 244.004 46.8803C244.004 47.6643 243.693 48.4164 243.14 48.9718C242.587 49.5273 241.836 49.8407 241.052 49.8436Z" fill="#F5F5F5"/>
</g>
<g opacity="0.54">
<path d="M177.921 49.8436H165.113C164.328 49.8407 163.578 49.5273 163.024 48.9718C162.471 48.4164 162.16 47.6643 162.16 46.8803C162.16 46.0972 162.471 45.3462 163.025 44.7925C163.578 44.2388 164.329 43.9277 165.113 43.9277H177.921C178.704 43.9277 179.455 44.2388 180.009 44.7925C180.563 45.3462 180.874 46.0972 180.874 46.8803C180.874 47.6643 180.563 48.4164 180.01 48.9718C179.456 49.5273 178.705 49.8407 177.921 49.8436Z" fill="#F5F5F5"/>
</g>
<g opacity="0.54">
<path d="M222.091 61.5682H165.113C164.329 61.5682 163.578 61.2571 163.025 60.7034C162.471 60.1497 162.16 59.3987 162.16 58.6156C162.16 57.8316 162.471 57.0795 163.024 56.5241C163.578 55.9686 164.328 55.6552 165.113 55.6523H222.091C222.875 55.6552 223.626 55.9686 224.18 56.5241C224.733 57.0795 225.044 57.8316 225.044 58.6156C225.044 59.3987 224.733 60.1497 224.179 60.7034C223.625 61.2571 222.874 61.5682 222.091 61.5682Z" fill="#F5F5F5"/>
</g>
</svg>
