<svg width="354" height="373" viewBox="0 0 354 373" fill="none" xmlns="http://www.w3.org/2000/svg">
<g clip-path="url(#clip0_75033_26456)">
<path d="M344.27 71.6854L300.747 137.962L298.833 140.885L295.046 142.636L160.334 205.248L173.64 250.854L176.684 261.281L166.137 269.997L75.2533 358.329H0.0479736L136.022 245.386L127.786 200.543L125.546 188.335L136.073 183.488L279.642 117.374L326.403 59.5175L313.86 57.033L353.29 40.6699L351.264 83.3239L344.27 71.6854Z" fill="#263238"/>
<path opacity="0.6" d="M344.27 71.6854L300.747 137.962L298.833 140.885L295.046 142.636L160.334 205.248L173.64 250.854L176.684 261.281L166.137 269.997L75.2533 358.329H0.0479736L136.022 245.386L127.786 200.543L125.546 188.335L136.073 183.488L279.642 117.374L326.403 59.5175L313.86 57.033L353.29 40.6699L351.264 83.3239L344.27 71.6854Z" fill="#C4DEC4"/>
<path d="M321.516 354.207H249.436C248.728 354.207 248.153 354.781 248.153 355.49V371.924C248.153 372.633 248.728 373.207 249.436 373.207H321.516C322.224 373.207 322.799 372.633 322.799 371.924V355.49C322.799 354.781 322.224 354.207 321.516 354.207Z" fill="#72B472"/>
<path opacity="0.2" d="M254.445 355.307H251.493V372.281H254.445V355.307Z" fill="black"/>
<path opacity="0.2" d="M261.154 355.225H259.006V372.199H261.154V355.225Z" fill="black"/>
<path opacity="0.2" d="M267.334 355.307H266.255V372.281H267.334V355.307Z" fill="black"/>
<path opacity="0.2" d="M275.662 355.225H275.122V372.199H275.662V355.225Z" fill="black"/>
<path opacity="0.2" d="M316.507 372.199H319.459V355.225H316.507V372.199Z" fill="black"/>
<path opacity="0.2" d="M309.798 372.279H311.946V355.305H309.798V372.279Z" fill="black"/>
<path opacity="0.2" d="M303.628 372.199H304.697V355.225H303.628V372.199Z" fill="black"/>
<path opacity="0.2" d="M295.29 372.279H295.83V355.305H295.29V372.279Z" fill="black"/>
<path opacity="0.2" d="M285.344 372.279H285.608V355.305H285.344V372.279Z" fill="black"/>
<path opacity="0.2" d="M320.803 357.099H250.302C250.064 357.099 249.836 357.004 249.668 356.836C249.5 356.668 249.406 356.44 249.406 356.203C249.408 355.966 249.504 355.739 249.671 355.572C249.838 355.405 250.065 355.309 250.302 355.307H320.803C321.041 355.307 321.269 355.401 321.437 355.569C321.605 355.737 321.699 355.965 321.699 356.203C321.701 356.321 321.678 356.438 321.634 356.547C321.589 356.657 321.523 356.756 321.44 356.839C321.356 356.923 321.257 356.989 321.148 357.033C321.039 357.078 320.921 357.1 320.803 357.099Z" fill="white"/>
<path d="M323.552 335.258H251.472C250.764 335.258 250.19 335.832 250.19 336.541V352.975C250.19 353.684 250.764 354.258 251.472 354.258H323.552C324.261 354.258 324.835 353.684 324.835 352.975V336.541C324.835 335.832 324.261 335.258 323.552 335.258Z" fill="#72B472"/>
<path opacity="0.2" d="M256.481 336.357H253.529V353.331H256.481V336.357Z" fill="black"/>
<path opacity="0.2" d="M263.201 336.275H261.052V353.249H263.201V336.275Z" fill="black"/>
<path opacity="0.2" d="M269.37 336.357H268.301V353.331H269.37V336.357Z" fill="black"/>
<path opacity="0.2" d="M277.698 336.275H277.158V353.249H277.698V336.275Z" fill="black"/>
<path opacity="0.2" d="M318.553 353.238H321.506V336.264H318.553V353.238Z" fill="black"/>
<path opacity="0.2" d="M311.834 353.322H313.982V336.348H311.834V353.322Z" fill="black"/>
<path opacity="0.2" d="M305.654 353.238H306.734V336.264H305.654V353.238Z" fill="black"/>
<path opacity="0.2" d="M297.327 353.322H297.866V336.348H297.327V353.322Z" fill="black"/>
<path opacity="0.2" d="M287.38 353.322H287.645V336.348H287.38V353.322Z" fill="black"/>
<path opacity="0.2" d="M322.84 338.15H252.338C252.101 338.147 251.875 338.052 251.707 337.884C251.54 337.717 251.444 337.49 251.442 337.254C251.442 337.016 251.536 336.788 251.704 336.62C251.872 336.452 252.1 336.357 252.338 336.357H322.84C322.958 336.356 323.075 336.378 323.184 336.423C323.293 336.467 323.393 336.533 323.476 336.617C323.56 336.7 323.626 336.8 323.67 336.909C323.715 337.018 323.737 337.135 323.735 337.254C323.735 337.491 323.641 337.719 323.473 337.887C323.305 338.055 323.077 338.15 322.84 338.15Z" fill="white"/>
<path d="M323.552 316.309H251.472C250.764 316.309 250.19 316.883 250.19 317.592V334.026C250.19 334.735 250.764 335.309 251.472 335.309H323.552C324.261 335.309 324.835 334.735 324.835 334.026V317.592C324.835 316.883 324.261 316.309 323.552 316.309Z" fill="#72B472"/>
<path opacity="0.2" d="M256.481 317.398H253.529V334.372H256.481V317.398Z" fill="black"/>
<path opacity="0.2" d="M263.201 317.314H261.052V334.288H263.201V317.314Z" fill="black"/>
<path opacity="0.2" d="M269.37 317.398H268.301V334.372H269.37V317.398Z" fill="black"/>
<path opacity="0.2" d="M277.698 317.314H277.158V334.288H277.698V317.314Z" fill="black"/>
<path opacity="0.2" d="M318.553 334.287H321.506V317.313H318.553V334.287Z" fill="black"/>
<path opacity="0.2" d="M311.834 334.371H313.982V317.397H311.834V334.371Z" fill="black"/>
<path opacity="0.2" d="M305.654 334.287H306.734V317.313H305.654V334.287Z" fill="black"/>
<path opacity="0.2" d="M297.327 334.371H297.866V317.397H297.327V334.371Z" fill="black"/>
<path opacity="0.2" d="M287.38 334.371H287.645V317.397H287.38V334.371Z" fill="black"/>
<path opacity="0.2" d="M322.84 319.191H252.338C252.1 319.191 251.872 319.096 251.704 318.928C251.536 318.76 251.442 318.532 251.442 318.294C251.444 318.058 251.54 317.831 251.707 317.664C251.875 317.496 252.101 317.401 252.338 317.398H322.84C323.077 317.398 323.305 317.493 323.473 317.661C323.641 317.829 323.735 318.057 323.735 318.294C323.737 318.413 323.715 318.53 323.67 318.639C323.626 318.748 323.56 318.848 323.476 318.931C323.393 319.015 323.293 319.081 323.184 319.125C323.075 319.17 322.958 319.192 322.84 319.191Z" fill="white"/>
<path d="M321.516 297.348H249.436C248.728 297.348 248.153 297.922 248.153 298.631V315.065C248.153 315.774 248.728 316.348 249.436 316.348H321.516C322.224 316.348 322.799 315.774 322.799 315.065V298.631C322.799 297.922 322.224 297.348 321.516 297.348Z" fill="#72B472"/>
<path opacity="0.2" d="M254.445 298.447H251.493V315.421H254.445V298.447Z" fill="black"/>
<path opacity="0.2" d="M261.154 298.365H259.006V315.339H261.154V298.365Z" fill="black"/>
<path opacity="0.2" d="M267.334 298.447H266.255V315.421H267.334V298.447Z" fill="black"/>
<path opacity="0.2" d="M275.662 298.365H275.122V315.339H275.662V298.365Z" fill="black"/>
<path opacity="0.2" d="M316.507 315.33H319.459V298.356H316.507V315.33Z" fill="black"/>
<path opacity="0.2" d="M309.798 315.41H311.946V298.436H309.798V315.41Z" fill="black"/>
<path opacity="0.2" d="M303.628 315.33H304.697V298.356H303.628V315.33Z" fill="black"/>
<path opacity="0.2" d="M295.29 315.41H295.83V298.436H295.29V315.41Z" fill="black"/>
<path opacity="0.2" d="M285.344 315.41H285.608V298.436H285.344V315.41Z" fill="black"/>
<path opacity="0.2" d="M320.803 300.239H250.302C250.065 300.237 249.838 300.141 249.671 299.974C249.504 299.807 249.408 299.58 249.406 299.343C249.406 299.106 249.5 298.878 249.668 298.71C249.836 298.542 250.064 298.447 250.302 298.447H320.803C320.921 298.446 321.039 298.468 321.148 298.513C321.257 298.557 321.356 298.623 321.44 298.707C321.523 298.79 321.589 298.89 321.634 298.999C321.678 299.108 321.701 299.225 321.699 299.343C321.699 299.581 321.605 299.809 321.437 299.977C321.269 300.145 321.041 300.239 320.803 300.239Z" fill="white"/>
<path d="M318.462 278.398H246.382C245.674 278.398 245.099 278.973 245.099 279.681V296.116C245.099 296.824 245.674 297.399 246.382 297.399H318.462C319.17 297.399 319.745 296.824 319.745 296.116V279.681C319.745 278.973 319.17 278.398 318.462 278.398Z" fill="#72B472"/>
<path opacity="0.2" d="M251.391 279.486H248.438V296.46H251.391V279.486Z" fill="black"/>
<path opacity="0.2" d="M258.1 279.408H255.952V296.382H258.1V279.408Z" fill="black"/>
<path opacity="0.2" d="M264.269 279.486H263.201V296.46H264.269V279.486Z" fill="black"/>
<path opacity="0.2" d="M272.608 279.408H272.068V296.382H272.608V279.408Z" fill="black"/>
<path opacity="0.2" d="M313.453 296.381H316.405V279.407H313.453V296.381Z" fill="black"/>
<path opacity="0.2" d="M306.734 296.463H308.882V279.489H306.734V296.463Z" fill="black"/>
<path opacity="0.2" d="M300.574 296.381H301.643V279.407H300.574V296.381Z" fill="black"/>
<path opacity="0.2" d="M292.246 296.463H292.786V279.489H292.246V296.463Z" fill="black"/>
<path opacity="0.2" d="M282.29 296.463H282.554V279.489H282.29V296.463Z" fill="black"/>
<path opacity="0.2" d="M317.749 281.278H247.247C247.129 281.28 247.012 281.258 246.903 281.213C246.794 281.168 246.694 281.103 246.611 281.019C246.527 280.936 246.461 280.836 246.417 280.727C246.372 280.618 246.35 280.5 246.351 280.382C246.351 280.145 246.446 279.917 246.614 279.749C246.782 279.581 247.01 279.486 247.247 279.486H317.749C317.987 279.486 318.215 279.581 318.383 279.749C318.551 279.917 318.645 280.145 318.645 280.382C318.646 280.5 318.624 280.618 318.58 280.727C318.535 280.836 318.469 280.936 318.386 281.019C318.302 281.103 318.203 281.168 318.094 281.213C317.984 281.258 317.867 281.28 317.749 281.278Z" fill="white"/>
<path d="M321.516 259.439H249.436C248.728 259.439 248.153 260.014 248.153 260.722V277.157C248.153 277.865 248.728 278.44 249.436 278.44H321.516C322.225 278.44 322.799 277.865 322.799 277.157V260.722C322.799 260.014 322.225 259.439 321.516 259.439Z" fill="#72B472"/>
<path opacity="0.2" d="M254.445 260.537H251.493V277.511H254.445V260.537Z" fill="black"/>
<path opacity="0.2" d="M261.154 260.457H259.006V277.431H261.154V260.457Z" fill="black"/>
<path opacity="0.2" d="M267.334 260.537H266.255V277.511H267.334V260.537Z" fill="black"/>
<path opacity="0.2" d="M275.662 260.457H275.122V277.431H275.662V260.457Z" fill="black"/>
<path opacity="0.2" d="M316.507 277.422H319.459V260.448H316.507V277.422Z" fill="black"/>
<path opacity="0.2" d="M309.798 277.502H311.946V260.528H309.798V277.502Z" fill="black"/>
<path opacity="0.2" d="M303.628 277.422H304.697V260.448H303.628V277.422Z" fill="black"/>
<path opacity="0.2" d="M295.29 277.502H295.83V260.528H295.29V277.502Z" fill="black"/>
<path opacity="0.2" d="M285.344 277.502H285.608V260.528H285.344V277.502Z" fill="black"/>
<path opacity="0.2" d="M320.803 262.329H250.302C250.064 262.329 249.836 262.235 249.668 262.067C249.5 261.899 249.406 261.671 249.406 261.433C249.406 261.196 249.5 260.968 249.668 260.8C249.836 260.632 250.064 260.537 250.302 260.537H320.803C320.921 260.536 321.039 260.558 321.148 260.603C321.257 260.647 321.356 260.713 321.44 260.797C321.523 260.88 321.589 260.979 321.634 261.089C321.678 261.198 321.701 261.315 321.699 261.433C321.701 261.551 321.678 261.668 321.634 261.778C321.589 261.887 321.523 261.986 321.44 262.07C321.356 262.153 321.257 262.219 321.148 262.264C321.039 262.308 320.921 262.331 320.803 262.329Z" fill="white"/>
<path d="M321.516 240.49H249.436C248.728 240.49 248.153 241.065 248.153 241.773V258.208C248.153 258.916 248.728 259.491 249.436 259.491H321.516C322.224 259.491 322.799 258.916 322.799 258.208V241.773C322.799 241.065 322.224 240.49 321.516 240.49Z" fill="#72B472"/>
<path opacity="0.2" d="M254.445 241.58H251.493V258.554H254.445V241.58Z" fill="black"/>
<path opacity="0.2" d="M261.154 241.5H259.006V258.474H261.154V241.5Z" fill="black"/>
<path opacity="0.2" d="M267.334 241.58H266.255V258.554H267.334V241.58Z" fill="black"/>
<path opacity="0.2" d="M275.662 241.5H275.122V258.474H275.662V241.5Z" fill="black"/>
<path opacity="0.2" d="M316.507 258.473H319.459V241.499H316.507V258.473Z" fill="black"/>
<path opacity="0.2" d="M309.798 258.553H311.946V241.579H309.798V258.553Z" fill="black"/>
<path opacity="0.2" d="M303.628 258.473H304.697V241.499H303.628V258.473Z" fill="black"/>
<path opacity="0.2" d="M295.29 258.553H295.83V241.579H295.29V258.553Z" fill="black"/>
<path opacity="0.2" d="M285.344 258.553H285.608V241.579H285.344V258.553Z" fill="black"/>
<path opacity="0.2" d="M320.803 243.382H250.302C250.063 243.38 249.835 243.283 249.667 243.113C249.5 242.944 249.406 242.715 249.406 242.476C249.408 242.239 249.504 242.013 249.671 241.845C249.838 241.678 250.065 241.583 250.302 241.58H320.803C321.041 241.58 321.269 241.674 321.437 241.843C321.605 242.011 321.699 242.238 321.699 242.476C321.701 242.595 321.678 242.712 321.634 242.822C321.59 242.932 321.524 243.032 321.441 243.116C321.357 243.201 321.258 243.268 321.149 243.313C321.039 243.359 320.922 243.382 320.803 243.382Z" fill="white"/>
<path d="M324.57 221.529H252.49C251.782 221.529 251.208 222.104 251.208 222.812V239.247C251.208 239.955 251.782 240.53 252.49 240.53H324.57C325.279 240.53 325.853 239.955 325.853 239.247V222.812C325.853 222.104 325.279 221.529 324.57 221.529Z" fill="#72B472"/>
<path opacity="0.2" d="M257.499 222.629H254.547V239.603H257.499V222.629Z" fill="black"/>
<path opacity="0.2" d="M264.219 222.549H262.07V239.523H264.219V222.549Z" fill="black"/>
<path opacity="0.2" d="M270.398 222.629H269.319V239.603H270.398V222.629Z" fill="black"/>
<path opacity="0.2" d="M278.716 222.549H278.177V239.523H278.716V222.549Z" fill="black"/>
<path opacity="0.2" d="M319.572 239.512H322.524V222.538H319.572V239.512Z" fill="black"/>
<path opacity="0.2" d="M312.852 239.604H315V222.629H312.852V239.604Z" fill="black"/>
<path opacity="0.2" d="M306.683 239.512H307.752V222.538H306.683V239.512Z" fill="black"/>
<path opacity="0.2" d="M298.345 239.604H298.884V222.629H298.345V239.604Z" fill="black"/>
<path opacity="0.2" d="M288.408 239.604H288.673V222.629H288.408V239.604Z" fill="black"/>
<path opacity="0.2" d="M323.858 224.39H253.366C253.247 224.391 253.13 224.369 253.02 224.325C252.91 224.28 252.81 224.214 252.726 224.131C252.642 224.048 252.575 223.948 252.529 223.839C252.483 223.73 252.46 223.612 252.46 223.494C252.46 223.375 252.483 223.258 252.529 223.149C252.575 223.039 252.642 222.94 252.726 222.857C252.81 222.773 252.91 222.707 253.02 222.663C253.13 222.619 253.247 222.596 253.366 222.598H323.858C323.976 222.596 324.094 222.619 324.204 222.663C324.313 222.707 324.413 222.773 324.498 222.857C324.582 222.94 324.649 223.039 324.695 223.149C324.74 223.258 324.764 223.375 324.764 223.494C324.764 223.612 324.74 223.73 324.695 223.839C324.649 223.948 324.582 224.048 324.498 224.131C324.413 224.214 324.313 224.28 324.204 224.325C324.094 224.369 323.976 224.391 323.858 224.39Z" fill="white"/>
<path d="M319.48 202.582H247.4C246.692 202.582 246.117 203.156 246.117 203.865V220.299C246.117 221.008 246.692 221.582 247.4 221.582H319.48C320.188 221.582 320.763 221.008 320.763 220.299V203.865C320.763 203.156 320.188 202.582 319.48 202.582Z" fill="#72B472"/>
<path opacity="0.2" d="M252.409 203.682H249.457V220.656H252.409V203.682Z" fill="black"/>
<path opacity="0.2" d="M259.118 203.588H256.97V220.562H259.118V203.588Z" fill="black"/>
<path opacity="0.2" d="M265.288 203.682H264.219V220.656H265.288V203.682Z" fill="black"/>
<path opacity="0.2" d="M273.626 203.588H273.086V220.562H273.626V203.588Z" fill="black"/>
<path opacity="0.2" d="M314.471 220.562H317.423V203.589H314.471V220.562Z" fill="black"/>
<path opacity="0.2" d="M307.752 220.645H309.9V203.671H307.752V220.645Z" fill="black"/>
<path opacity="0.2" d="M301.592 220.562H302.661V203.589H301.592V220.562Z" fill="black"/>
<path opacity="0.2" d="M293.254 220.645H293.794V203.671H293.254V220.645Z" fill="black"/>
<path opacity="0.2" d="M283.308 220.645H283.572V203.671H283.308V220.645Z" fill="black"/>
<path opacity="0.2" d="M318.767 205.474H248.265C248.029 205.471 247.802 205.376 247.635 205.208C247.467 205.041 247.372 204.815 247.369 204.578C247.369 204.34 247.464 204.112 247.632 203.944C247.8 203.776 248.028 203.682 248.265 203.682H318.767C318.885 203.68 319.002 203.703 319.112 203.747C319.221 203.792 319.32 203.858 319.404 203.941C319.487 204.025 319.553 204.124 319.598 204.233C319.642 204.343 319.664 204.46 319.663 204.578C319.663 204.815 319.569 205.043 319.401 205.211C319.233 205.379 319.005 205.474 318.767 205.474Z" fill="white"/>
<path d="M317.444 183.621H245.364C244.655 183.621 244.081 184.195 244.081 184.904V201.338C244.081 202.047 244.655 202.621 245.364 202.621H317.444C318.152 202.621 318.727 202.047 318.727 201.338V184.904C318.727 184.195 318.152 183.621 317.444 183.621Z" fill="#72B472"/>
<path opacity="0.2" d="M250.373 184.721H247.42V201.695H250.373V184.721Z" fill="black"/>
<path opacity="0.2" d="M257.082 184.639H254.934V201.613H257.082V184.639Z" fill="black"/>
<path opacity="0.2" d="M263.262 184.721H262.182V201.695H263.262V184.721Z" fill="black"/>
<path opacity="0.2" d="M271.59 184.639H271.05V201.613H271.59V184.639Z" fill="black"/>
<path opacity="0.2" d="M312.435 201.604H315.387V184.63H312.435V201.604Z" fill="black"/>
<path opacity="0.2" d="M305.715 201.697H307.864V184.723H305.715V201.697Z" fill="black"/>
<path opacity="0.2" d="M299.546 201.604H300.615V184.63H299.546V201.604Z" fill="black"/>
<path opacity="0.2" d="M291.228 201.697H291.768V184.723H291.228V201.697Z" fill="black"/>
<path opacity="0.2" d="M281.271 201.697H281.536V184.723H281.271V201.697Z" fill="black"/>
<path opacity="0.2" d="M316.731 186.513H246.229C246.111 186.514 245.994 186.492 245.885 186.447C245.775 186.403 245.676 186.337 245.593 186.253C245.509 186.17 245.443 186.071 245.399 185.961C245.354 185.852 245.332 185.735 245.333 185.617C245.332 185.499 245.354 185.382 245.399 185.272C245.443 185.163 245.509 185.064 245.593 184.98C245.676 184.897 245.775 184.831 245.885 184.786C245.994 184.742 246.111 184.719 246.229 184.721H316.731C316.849 184.719 316.966 184.742 317.076 184.786C317.185 184.831 317.284 184.897 317.368 184.98C317.451 185.064 317.517 185.163 317.562 185.272C317.606 185.382 317.628 185.499 317.627 185.617C317.628 185.735 317.606 185.852 317.562 185.961C317.517 186.071 317.451 186.17 317.368 186.253C317.284 186.337 317.185 186.403 317.076 186.447C316.966 186.492 316.849 186.514 316.731 186.513Z" fill="white"/>
<path d="M229.838 354.207H157.758C157.05 354.207 156.476 354.781 156.476 355.49V371.924C156.476 372.633 157.05 373.207 157.758 373.207H229.838C230.547 373.207 231.121 372.633 231.121 371.924V355.49C231.121 354.781 230.547 354.207 229.838 354.207Z" fill="#72B472"/>
<path opacity="0.2" d="M162.757 355.307H159.805V372.281H162.757V355.307Z" fill="black"/>
<path opacity="0.2" d="M169.476 355.225H167.328V372.199H169.476V355.225Z" fill="black"/>
<path opacity="0.2" d="M175.646 355.307H174.577V372.281H175.646V355.307Z" fill="black"/>
<path opacity="0.2" d="M183.974 355.225H183.434V372.199H183.974V355.225Z" fill="black"/>
<path opacity="0.2" d="M224.829 372.199H227.782V355.225H224.829V372.199Z" fill="black"/>
<path opacity="0.2" d="M218.11 372.279H220.258V355.305H218.11V372.279Z" fill="black"/>
<path opacity="0.2" d="M211.94 372.199H213.009V355.225H211.94V372.199Z" fill="black"/>
<path opacity="0.2" d="M203.613 372.279H204.152V355.305H203.613V372.279Z" fill="black"/>
<path opacity="0.2" d="M193.666 372.279H193.931V355.305H193.666V372.279Z" fill="black"/>
<path opacity="0.2" d="M229.126 357.099H158.624C158.506 357.1 158.389 357.078 158.279 357.033C158.17 356.989 158.071 356.923 157.987 356.839C157.904 356.756 157.838 356.657 157.793 356.547C157.749 356.438 157.726 356.321 157.728 356.203C157.728 355.965 157.822 355.737 157.99 355.569C158.158 355.401 158.386 355.307 158.624 355.307H229.126C229.362 355.309 229.589 355.405 229.756 355.572C229.924 355.739 230.019 355.966 230.021 356.203C230.021 356.44 229.927 356.668 229.759 356.836C229.591 357.004 229.363 357.099 229.126 357.099Z" fill="white"/>
<path d="M226.774 335.258H154.694C153.985 335.258 153.411 335.832 153.411 336.541V352.975C153.411 353.684 153.985 354.258 154.694 354.258H226.774C227.482 354.258 228.057 353.684 228.057 352.975V336.541C228.057 335.832 227.482 335.258 226.774 335.258Z" fill="#72B472"/>
<path opacity="0.2" d="M159.703 336.357H156.75V353.331H159.703V336.357Z" fill="black"/>
<path opacity="0.2" d="M166.422 336.275H164.274V353.249H166.422V336.275Z" fill="black"/>
<path opacity="0.2" d="M172.592 336.357H171.523V353.331H172.592V336.357Z" fill="black"/>
<path opacity="0.2" d="M180.92 336.275H180.38V353.249H180.92V336.275Z" fill="black"/>
<path opacity="0.2" d="M221.775 353.238H224.727V336.264H221.775V353.238Z" fill="black"/>
<path opacity="0.2" d="M215.056 353.322H217.204V336.348H215.056V353.322Z" fill="black"/>
<path opacity="0.2" d="M208.886 353.238H209.955V336.264H208.886V353.238Z" fill="black"/>
<path opacity="0.2" d="M200.548 353.322H201.088V336.348H200.548V353.322Z" fill="black"/>
<path opacity="0.2" d="M190.602 353.322H190.866V336.348H190.602V353.322Z" fill="black"/>
<path opacity="0.2" d="M226.061 338.15H155.559C155.323 338.147 155.096 338.052 154.929 337.884C154.761 337.717 154.666 337.49 154.663 337.254C154.663 337.016 154.758 336.788 154.926 336.62C155.094 336.452 155.322 336.357 155.559 336.357H226.061C226.179 336.356 226.296 336.378 226.406 336.423C226.515 336.467 226.614 336.533 226.698 336.617C226.781 336.7 226.847 336.8 226.892 336.909C226.936 337.018 226.958 337.135 226.957 337.254C226.957 337.491 226.863 337.719 226.695 337.887C226.527 338.055 226.299 338.15 226.061 338.15Z" fill="white"/>
<path d="M229.838 316.309H157.758C157.05 316.309 156.476 316.883 156.476 317.592V334.026C156.476 334.735 157.05 335.309 157.758 335.309H229.838C230.547 335.309 231.121 334.735 231.121 334.026V317.592C231.121 316.883 230.547 316.309 229.838 316.309Z" fill="#72B472"/>
<path opacity="0.2" d="M162.757 317.398H159.805V334.372H162.757V317.398Z" fill="black"/>
<path opacity="0.2" d="M169.476 317.314H167.328V334.288H169.476V317.314Z" fill="black"/>
<path opacity="0.2" d="M175.646 317.398H174.577V334.372H175.646V317.398Z" fill="black"/>
<path opacity="0.2" d="M183.974 317.314H183.434V334.288H183.974V317.314Z" fill="black"/>
<path opacity="0.2" d="M224.829 334.287H227.782V317.313H224.829V334.287Z" fill="black"/>
<path opacity="0.2" d="M218.11 334.371H220.258V317.397H218.11V334.371Z" fill="black"/>
<path opacity="0.2" d="M211.94 334.287H213.009V317.313H211.94V334.287Z" fill="black"/>
<path opacity="0.2" d="M203.613 334.371H204.152V317.397H203.613V334.371Z" fill="black"/>
<path opacity="0.2" d="M193.666 334.371H193.931V317.397H193.666V334.371Z" fill="black"/>
<path opacity="0.2" d="M229.126 319.191H158.624C158.506 319.192 158.389 319.17 158.279 319.125C158.17 319.081 158.071 319.015 157.987 318.931C157.904 318.848 157.838 318.748 157.793 318.639C157.749 318.53 157.726 318.413 157.728 318.294C157.728 318.057 157.822 317.829 157.99 317.661C158.158 317.493 158.386 317.398 158.624 317.398H229.126C229.362 317.401 229.589 317.496 229.756 317.664C229.924 317.831 230.019 318.058 230.021 318.294C230.021 318.532 229.927 318.76 229.759 318.928C229.591 319.096 229.363 319.191 229.126 319.191Z" fill="white"/>
<path d="M227.792 297.348H155.712C155.004 297.348 154.429 297.922 154.429 298.631V315.065C154.429 315.774 155.004 316.348 155.712 316.348H227.792C228.5 316.348 229.075 315.774 229.075 315.065V298.631C229.075 297.922 228.5 297.348 227.792 297.348Z" fill="#72B472"/>
<path opacity="0.2" d="M160.721 298.447H157.769V315.421H160.721V298.447Z" fill="black"/>
<path opacity="0.2" d="M167.44 298.365H165.292V315.339H167.44V298.365Z" fill="black"/>
<path opacity="0.2" d="M173.61 298.447H172.541V315.421H173.61V298.447Z" fill="black"/>
<path opacity="0.2" d="M181.938 298.365H181.398V315.339H181.938V298.365Z" fill="black"/>
<path opacity="0.2" d="M222.793 315.33H225.745V298.356H222.793V315.33Z" fill="black"/>
<path opacity="0.2" d="M216.074 315.41H218.222V298.436H216.074V315.41Z" fill="black"/>
<path opacity="0.2" d="M209.894 315.33H210.973V298.356H209.894V315.33Z" fill="black"/>
<path opacity="0.2" d="M201.566 315.41H202.106V298.436H201.566V315.41Z" fill="black"/>
<path opacity="0.2" d="M191.63 315.41H191.894V298.436H191.63V315.41Z" fill="black"/>
<path opacity="0.2" d="M227.079 300.239H156.588C156.349 300.239 156.12 300.145 155.95 299.978C155.781 299.81 155.684 299.582 155.681 299.343C155.681 299.225 155.705 299.107 155.751 298.998C155.796 298.889 155.863 298.789 155.947 298.706C156.032 298.623 156.132 298.557 156.242 298.513C156.351 298.468 156.469 298.446 156.588 298.447H227.079C227.198 298.446 227.315 298.468 227.425 298.513C227.535 298.557 227.635 298.623 227.719 298.706C227.804 298.789 227.87 298.889 227.916 298.998C227.962 299.107 227.985 299.225 227.985 299.343C227.983 299.582 227.886 299.81 227.716 299.978C227.547 300.145 227.318 300.239 227.079 300.239Z" fill="white"/>
<path d="M227.792 278.398H155.712C155.004 278.398 154.429 278.973 154.429 279.681V296.116C154.429 296.824 155.004 297.399 155.712 297.399H227.792C228.5 297.399 229.075 296.824 229.075 296.116V279.681C229.075 278.973 228.5 278.398 227.792 278.398Z" fill="#72B472"/>
<path opacity="0.2" d="M160.721 279.486H157.769V296.46H160.721V279.486Z" fill="black"/>
<path opacity="0.2" d="M167.44 279.408H165.292V296.382H167.44V279.408Z" fill="black"/>
<path opacity="0.2" d="M173.61 279.486H172.541V296.46H173.61V279.486Z" fill="black"/>
<path opacity="0.2" d="M181.938 279.408H181.398V296.382H181.938V279.408Z" fill="black"/>
<path opacity="0.2" d="M222.793 296.381H225.746V279.407H222.793V296.381Z" fill="black"/>
<path opacity="0.2" d="M216.074 296.463H218.222V279.489H216.074V296.463Z" fill="black"/>
<path opacity="0.2" d="M209.894 296.381H210.973V279.407H209.894V296.381Z" fill="black"/>
<path opacity="0.2" d="M201.566 296.463H202.106V279.489H201.566V296.463Z" fill="black"/>
<path opacity="0.2" d="M191.63 296.463H191.894V279.489H191.63V296.463Z" fill="black"/>
<path opacity="0.2" d="M227.079 281.278H156.587C156.469 281.28 156.351 281.258 156.242 281.213C156.132 281.169 156.032 281.103 155.947 281.02C155.863 280.936 155.796 280.837 155.751 280.728C155.705 280.618 155.681 280.501 155.681 280.382C155.684 280.144 155.781 279.916 155.95 279.748C156.12 279.58 156.349 279.486 156.587 279.486H227.079C227.318 279.486 227.547 279.58 227.716 279.748C227.886 279.916 227.983 280.144 227.985 280.382C227.985 280.501 227.962 280.618 227.916 280.728C227.87 280.837 227.804 280.936 227.719 281.02C227.635 281.103 227.535 281.169 227.425 281.213C227.315 281.258 227.198 281.28 227.079 281.278Z" fill="white"/>
<path d="M227.792 259.439H155.712C155.004 259.439 154.429 260.014 154.429 260.722V277.157C154.429 277.865 155.004 278.44 155.712 278.44H227.792C228.5 278.44 229.075 277.865 229.075 277.157V260.722C229.075 260.014 228.5 259.439 227.792 259.439Z" fill="#72B472"/>
<path opacity="0.2" d="M160.721 260.537H157.769V277.511H160.721V260.537Z" fill="black"/>
<path opacity="0.2" d="M167.44 260.457H165.292V277.431H167.44V260.457Z" fill="black"/>
<path opacity="0.2" d="M173.61 260.537H172.541V277.511H173.61V260.537Z" fill="black"/>
<path opacity="0.2" d="M181.938 260.457H181.398V277.431H181.938V260.457Z" fill="black"/>
<path opacity="0.2" d="M222.793 277.422H225.746V260.448H222.793V277.422Z" fill="black"/>
<path opacity="0.2" d="M216.074 277.502H218.222V260.528H216.074V277.502Z" fill="black"/>
<path opacity="0.2" d="M209.894 277.422H210.973V260.448H209.894V277.422Z" fill="black"/>
<path opacity="0.2" d="M201.566 277.502H202.106V260.528H201.566V277.502Z" fill="black"/>
<path opacity="0.2" d="M191.63 277.502H191.894V260.528H191.63V277.502Z" fill="black"/>
<path opacity="0.2" d="M227.079 262.329H156.587C156.469 262.331 156.351 262.308 156.242 262.264C156.132 262.22 156.032 262.154 155.947 262.07C155.863 261.987 155.796 261.888 155.751 261.778C155.705 261.669 155.681 261.552 155.681 261.433C155.681 261.315 155.705 261.197 155.751 261.088C155.796 260.979 155.863 260.879 155.947 260.796C156.032 260.713 156.132 260.647 156.242 260.602C156.351 260.558 156.469 260.536 156.587 260.537H227.079C227.198 260.536 227.315 260.558 227.425 260.602C227.535 260.647 227.635 260.713 227.719 260.796C227.804 260.879 227.87 260.979 227.916 261.088C227.962 261.197 227.985 261.315 227.985 261.433C227.985 261.552 227.962 261.669 227.916 261.778C227.87 261.888 227.804 261.987 227.719 262.07C227.635 262.154 227.535 262.22 227.425 262.264C227.315 262.308 227.198 262.331 227.079 262.329Z" fill="white"/>
<path d="M228.678 221.326H156.598C155.889 221.326 155.315 221.901 155.315 222.609V239.044C155.315 239.752 155.889 240.326 156.598 240.326H228.678C229.386 240.326 229.96 239.752 229.96 239.044V222.609C229.96 221.901 229.386 221.326 228.678 221.326Z" fill="#72B472"/>
<path opacity="0.2" d="M161.607 222.428H158.654V239.402H161.607V222.428Z" fill="black"/>
<path opacity="0.2" d="M168.326 222.344H166.178V239.318H168.326V222.344Z" fill="black"/>
<path opacity="0.2" d="M174.495 222.428H173.427V239.402H174.495V222.428Z" fill="black"/>
<path opacity="0.2" d="M182.823 222.344H182.284V239.318H182.823V222.344Z" fill="black"/>
<path opacity="0.2" d="M223.679 239.309H226.631V222.335H223.679V239.309Z" fill="black"/>
<path opacity="0.2" d="M216.959 239.4H219.108V222.426H216.959V239.4Z" fill="black"/>
<path opacity="0.2" d="M210.79 239.309H211.859V222.335H210.79V239.309Z" fill="black"/>
<path opacity="0.2" d="M202.452 239.4H202.992V222.426H202.452V239.4Z" fill="black"/>
<path opacity="0.2" d="M192.515 239.4H192.78V222.426H192.515V239.4Z" fill="black"/>
<path opacity="0.2" d="M227.965 224.22H157.473C157.355 224.221 157.237 224.199 157.127 224.155C157.017 224.11 156.917 224.044 156.833 223.961C156.749 223.878 156.682 223.778 156.636 223.669C156.591 223.56 156.567 223.442 156.567 223.324C156.57 223.085 156.666 222.857 156.836 222.69C157.006 222.522 157.235 222.428 157.473 222.428H227.965C228.203 222.428 228.432 222.522 228.602 222.69C228.772 222.857 228.868 223.085 228.871 223.324C228.871 223.442 228.847 223.56 228.802 223.669C228.756 223.778 228.689 223.878 228.605 223.961C228.521 224.044 228.421 224.11 228.311 224.155C228.201 224.199 228.083 224.221 227.965 224.22Z" fill="white"/>
<path d="M229.838 240.49H157.758C157.05 240.49 156.476 241.065 156.476 241.773V258.208C156.476 258.916 157.05 259.491 157.758 259.491H229.838C230.547 259.491 231.121 258.916 231.121 258.208V241.773C231.121 241.065 230.547 240.49 229.838 240.49Z" fill="#72B472"/>
<path opacity="0.2" d="M162.757 241.58H159.805V258.554H162.757V241.58Z" fill="black"/>
<path opacity="0.2" d="M169.476 241.5H167.328V258.474H169.476V241.5Z" fill="black"/>
<path opacity="0.2" d="M175.646 241.58H174.577V258.554H175.646V241.58Z" fill="black"/>
<path opacity="0.2" d="M183.974 241.5H183.434V258.474H183.974V241.5Z" fill="black"/>
<path opacity="0.2" d="M224.829 258.473H227.782V241.499H224.829V258.473Z" fill="black"/>
<path opacity="0.2" d="M218.11 258.553H220.258V241.579H218.11V258.553Z" fill="black"/>
<path opacity="0.2" d="M211.94 258.473H213.009V241.499H211.94V258.473Z" fill="black"/>
<path opacity="0.2" d="M203.613 258.553H204.152V241.579H203.613V258.553Z" fill="black"/>
<path opacity="0.2" d="M193.666 258.553H193.931V241.579H193.666V258.553Z" fill="black"/>
<path opacity="0.2" d="M229.126 243.382H158.624C158.505 243.382 158.388 243.359 158.279 243.313C158.169 243.268 158.07 243.201 157.987 243.116C157.903 243.032 157.838 242.932 157.793 242.822C157.749 242.712 157.726 242.595 157.728 242.476C157.728 242.238 157.822 242.011 157.99 241.843C158.158 241.674 158.386 241.58 158.624 241.58H229.126C229.362 241.583 229.589 241.678 229.756 241.845C229.924 242.013 230.019 242.239 230.021 242.476C230.021 242.715 229.927 242.944 229.76 243.113C229.592 243.283 229.364 243.38 229.126 243.382Z" fill="white"/>
<path d="M203.042 209.434L200.762 213.894L198.441 218.425L194.379 216.938L196.415 212.957L198.98 207.947L203.042 209.434Z" fill="#FFC2BC"/>
<path opacity="0.2" d="M203.042 209.434L200.762 213.894L196.415 212.957L198.98 207.947L203.042 209.434Z" fill="black"/>
<path d="M291.758 184.212C291.635 184.213 291.517 184.168 291.425 184.088C291.333 184.007 291.274 183.895 291.259 183.774C291.116 182.756 277.739 82.9683 261.592 39.1842C261.559 39.1203 261.541 39.0503 261.537 38.9787C261.533 38.9072 261.545 38.8356 261.571 38.7687C261.596 38.7019 261.636 38.6413 261.687 38.5908C261.738 38.5404 261.799 38.5012 261.866 38.476C261.933 38.4507 262.005 38.4399 262.076 38.4443C262.148 38.4487 262.218 38.4681 262.281 38.5013C262.345 38.5345 262.4 38.5807 262.445 38.637C262.489 38.6933 262.521 38.7583 262.539 38.8278C278.736 82.6934 292.134 182.644 292.267 183.662C292.284 183.797 292.248 183.933 292.166 184.041C292.084 184.15 291.963 184.222 291.829 184.242L291.758 184.212Z" fill="#263238"/>
<path d="M265.98 181.338L270.307 181.165L271.152 171.125L266.815 171.298L265.98 181.338Z" fill="#FFC2BC"/>
<path d="M270.714 178.875L265.99 178.723C265.904 178.723 265.82 178.751 265.75 178.802C265.681 178.853 265.629 178.925 265.603 179.008L264.585 182.816C264.561 182.908 264.557 183.004 264.575 183.098C264.593 183.191 264.632 183.279 264.688 183.356C264.745 183.432 264.818 183.495 264.903 183.539C264.987 183.583 265.08 183.607 265.176 183.61C266.886 183.61 269.36 183.61 271.508 183.671C274.012 183.753 275.58 183.671 278.553 183.722C280.325 183.773 280.895 182.001 280.152 181.818C276.792 180.973 274.593 181.126 271.742 179.242C271.439 179.028 271.084 178.902 270.714 178.875Z" fill="#263238"/>
<path opacity="0.2" d="M271.152 171.125L270.714 176.298L266.387 176.481L266.815 171.298L271.152 171.125Z" fill="black"/>
<path d="M264.219 144.968C265.318 147.075 265.4 169.171 265.4 174.782H272.882C273.85 168.967 278.635 137.748 271.864 133.288C264.412 128.37 245.516 130.061 245.516 130.061L244.152 127.301L241.424 121.803L225.786 127.658L222.376 128.92L220.971 129.45H220.849C220.849 129.45 220.849 129.602 220.849 129.867C220.899 130.478 221.042 131.71 221.296 133.248C221.592 135.092 222.007 136.915 222.539 138.705C223.984 143.42 226.55 147.87 231.009 146.383C231.202 146.322 231.396 146.24 231.589 146.159C231.956 145.996 232.353 145.843 232.76 145.691C236.334 144.539 240.031 143.811 243.776 143.522C253.223 142.626 263.384 143.338 264.219 144.968Z" fill="#263238"/>
<path d="M273.218 175.435L264.473 175.669L264.422 172.848L274.033 172.451L273.218 175.435Z" fill="#72B472"/>
<path d="M199.194 216.246H193.92C193.835 216.246 193.752 216.275 193.685 216.329C193.619 216.383 193.572 216.457 193.554 216.541L192.658 220.38C192.636 220.473 192.636 220.57 192.657 220.663C192.679 220.756 192.721 220.843 192.781 220.917C192.84 220.992 192.916 221.052 193.003 221.093C193.089 221.134 193.183 221.155 193.279 221.154C194.979 221.154 196.221 221.021 198.369 221.021C199.683 221.021 203.643 221.164 205.496 221.164C207.349 221.164 207.532 219.362 206.819 219.199C203.5 218.476 200.996 217.468 199.937 216.51C199.837 216.419 199.72 216.349 199.592 216.303C199.465 216.258 199.329 216.238 199.194 216.246Z" fill="#263238"/>
<path d="M237.576 129.409L236.669 132.534C236.191 134.204 235.529 136.475 234.755 139.112L232.821 145.7C229.523 156.85 225.328 170.769 223.007 177.378C218.385 190.493 202.92 213.82 202.92 213.82L195.478 211.091C195.478 211.091 206.901 189.118 210.647 175.82C213.264 166.533 217.367 149.845 220.065 138.634L221.358 133.257C221.795 131.425 222.152 129.928 222.376 128.879C222.6 127.83 222.783 127.158 222.783 127.158L225.786 127.616L237.576 129.409Z" fill="#263238"/>
<path d="M203.724 214.311L194.969 211.093L195.956 208.486L205.292 211.317L203.724 214.311Z" fill="#72B472"/>
<path opacity="0.2" d="M244.183 127.291L237.575 134.999L236.669 132.535L235.651 129.847L234.725 139.113L222.569 138.716L220.034 138.634L221.327 133.258C221.072 131.72 220.93 130.488 220.879 129.877L220.96 129.419L222.365 128.89C222.63 127.79 222.773 127.169 222.773 127.169L225.776 127.627L241.444 121.803L244.183 127.291Z" fill="black"/>
<path opacity="0.2" d="M243.816 143.534C239.638 143.814 235.522 144.703 231.599 146.171C231.406 146.253 231.213 146.334 231.019 146.395L231.905 142.037C231.905 142.037 239.53 141.681 243.816 143.534Z" fill="black"/>
<path d="M186.957 131.476L184.3 134.999L182.05 130.712C182.05 130.712 184.605 127.709 186.122 129.093L186.957 131.476Z" fill="#FFC2BC"/>
<path d="M180.237 136.611L179.576 132.222L182.05 130.664L184.299 135.002L180.237 136.611Z" fill="#FFC2BC"/>
<path d="M187.68 131.151L186.936 131.528L185.837 128.738L187.018 128.168L187.68 131.151Z" fill="white"/>
<path d="M217.316 105.725C216.929 106.404 216.532 107.055 216.125 107.68C215.1 109.35 214.027 110.993 212.908 112.608L211.981 113.942C211.044 115.286 210.057 116.6 208.998 117.913C208.469 118.565 207.929 119.227 207.328 119.878C206.726 120.561 206.083 121.207 205.404 121.813C202.8 124.03 199.935 125.921 196.873 127.444C193.921 128.97 190.858 130.27 187.71 131.334L186.387 128.36C187.71 127.556 189.085 126.731 190.398 125.876C191.711 125.021 193.045 124.175 194.317 123.279C195.59 122.383 196.842 121.477 198.023 120.53C199.184 119.621 200.286 118.638 201.322 117.587C203.277 115.316 205.037 112.884 206.585 110.317C208.285 107.68 210.434 103.057 212.113 100.42L217.316 105.725Z" fill="#263238"/>
<path opacity="0.2" d="M216.125 107.681C215.1 109.351 214.027 110.994 212.907 112.609C213.021 110.468 213.616 108.38 214.648 106.5C215.262 106.712 215.783 107.129 216.125 107.681Z" fill="black"/>
<path d="M274.501 94.7597L271.549 97.5089L271.966 100.055C273.045 101.48 275.529 99.7185 276.11 99.2705C276.202 99.2031 276.301 99.1451 276.405 99.0974L277.973 98.4661C278.25 98.3508 278.48 98.1453 278.626 97.8829C278.772 97.6205 278.825 97.3165 278.777 97.0202L278.472 95.1466C278.444 94.9708 278.38 94.8024 278.285 94.6518C278.19 94.5013 278.066 94.3715 277.919 94.2706C277.773 94.1696 277.607 94.0996 277.432 94.0646C277.258 94.0297 277.078 94.0306 276.904 94.0673L275.143 94.4237C274.901 94.4706 274.678 94.5874 274.501 94.7597Z" fill="#FFC2BC"/>
<path d="M270.867 97.5298L271.681 97.3262L272.149 100.279L270.867 100.585V97.5298Z" fill="white"/>
<path d="M271.549 100.606C268.315 101.291 265.034 101.733 261.735 101.93C258.335 102.194 254.915 102.037 251.554 101.462C250.659 101.29 249.775 101.066 248.907 100.79C248.052 100.525 247.257 100.24 246.463 99.9444C244.885 99.364 243.409 98.7429 241.872 98.0606L240.07 97.2461C238.706 96.6148 237.362 95.9631 235.998 95.2809C234.979 94.7921 234.033 94.2626 233.055 93.7331L235.672 87.5117C238.471 88.9169 241.78 90.821 244.59 92.216C247.228 93.6339 249.983 94.8195 252.826 95.7594C254.252 96.1367 255.701 96.419 257.163 96.6046C258.67 96.8184 260.218 96.9508 261.755 97.073C263.292 97.1952 264.88 97.2664 266.448 97.2868C268.016 97.3072 269.625 97.3581 271.172 97.3784L271.549 100.606Z" fill="#263238"/>
<path opacity="0.2" d="M240.039 97.2437C238.675 96.6124 237.331 95.9607 235.967 95.2785L235.438 92.3867C237.475 93.441 239.096 95.1525 240.039 97.2437Z" fill="black"/>
<path d="M213.02 99.8597C214.702 104 216.044 108.27 217.031 112.628C217.764 115.683 220.36 118.738 220.808 121.538C221.236 124.626 221.848 127.687 222.64 130.702C225.746 129.032 235.142 126.965 241.444 123.574C241.709 98.2 234.898 88.3027 234.898 88.3027C233.169 88.7428 231.469 89.2903 229.808 89.9421L228.708 90.4003C225.676 91.8316 222.719 93.4188 219.851 95.1555C219.291 95.4915 218.731 95.8377 218.191 96.1737C215.422 97.9862 213.02 99.8597 213.02 99.8597Z" fill="#72B472"/>
<path opacity="0.7" d="M213.02 99.8597C214.702 104 216.044 108.27 217.031 112.628C217.764 115.683 220.36 118.738 220.808 121.538C221.236 124.626 221.848 127.687 222.64 130.702C225.746 129.032 235.142 126.965 241.444 123.574C241.709 98.2 234.898 88.3027 234.898 88.3027C233.169 88.7428 231.469 89.2903 229.808 89.9421L228.708 90.4003C225.676 91.8316 222.719 93.4188 219.851 95.1555C219.291 95.4915 218.731 95.8377 218.191 96.1737C215.422 97.9862 213.02 99.8597 213.02 99.8597Z" fill="white"/>
<path d="M229.706 99.3817L230.093 97.0295L228.474 96.9277L227.486 98.0172L229.706 99.3817Z" fill="#72B472"/>
<path d="M228.474 96.9266C225.481 98.5965 222.518 96.6517 220.604 95.3178L220.401 95.1752C221.246 94.0043 221.327 92.1205 221.052 90.2266C220.727 88.1338 220.167 86.0844 219.383 84.1172L226.234 88.0476C226.234 88.516 226.153 88.9334 226.132 89.3C226.041 90.1859 226.031 90.7866 226.519 91.1736C227.279 91.5975 228.145 91.792 229.014 91.7336C229.797 92.6398 230.531 95.776 228.474 96.9266Z" fill="#FFC2BC"/>
<path d="M218.232 96.2075C218.232 96.2075 226.855 105.209 233.167 110.106C233.167 110.106 232.699 94.1913 229.848 89.9657L235.712 87.5117C235.712 87.5117 241.353 99.9749 242.157 120.788L244.702 126.032L237.576 133.281L235.285 127.905L233.748 136.825L219.047 138.128L220.849 127.946L212.164 100.454L218.232 96.2075Z" fill="#263238"/>
<path d="M228.932 98.9049C228.932 98.9049 230.968 105.849 230.826 109.556L233.452 110.92L233.921 108.884C233.921 108.884 231.61 99.9333 229.482 98.3652L228.932 98.9049Z" fill="#72B472"/>
<path d="M218.537 95.4632C218.537 95.4632 229.309 107.285 233.116 110.105C233.116 110.105 232.007 94.0987 229.533 90.0767C229.533 90.0767 231.233 88.9057 234.857 92.439L233.045 95.7992L236.262 98.0189C236.262 98.0189 235.163 110.014 233.045 115.706C233.199 114.504 233.267 113.292 233.249 112.081L220.614 105.075L221.174 101.206L216.4 101.002C216.4 101.002 216.929 96.4305 218.537 95.4632Z" fill="#263238"/>
<path opacity="0.2" d="M218.537 95.4632C218.537 95.4632 229.309 107.285 233.116 110.105C233.116 110.105 232.007 94.0987 229.533 90.0767C229.533 90.0767 231.233 88.9057 234.857 92.439L233.045 95.7992L236.262 98.0189C236.262 98.0189 235.163 110.014 233.045 115.706C233.199 114.504 233.267 113.292 233.249 112.081L220.614 105.075L221.174 101.206L216.4 101.002C216.4 101.002 216.929 96.4305 218.537 95.4632Z" fill="white"/>
<path d="M262.396 39.9079C262.396 39.9079 256.288 39.2155 252.877 40.8243C249.467 42.4332 246.036 47.6771 240.497 48.176C234.959 48.675 233.849 46.8727 233.849 46.8727C233.849 46.8727 238.726 55.5277 248.103 55.436C257.479 55.3444 262.356 53.7967 267.884 57.2791C267.904 57.2791 263.649 42.6063 262.396 39.9079Z" fill="#72B472"/>
<path opacity="0.2" d="M226.519 91.1548C225.949 92.9266 224.534 95.4314 221.185 95.3703C220.991 95.3864 220.797 95.3864 220.604 95.3703L220.401 95.2278C221.246 94.0568 221.327 92.1731 221.052 90.2792C222.558 89.3046 224.387 88.9642 226.143 89.3322C226.041 90.1672 226.031 90.7679 226.519 91.1548Z" fill="black"/>
<path d="M228.474 96.9295C228.527 98.1599 228.265 99.3835 227.71 100.483C225.827 100.218 220.197 97.4285 219.912 95.0967C220.057 94.537 220.361 94.0312 220.787 93.6406C222.934 95.5282 225.627 96.6806 228.474 96.9295Z" fill="white"/>
<path d="M228.474 96.9298C229.522 97.2019 230.498 97.6987 231.335 98.3859C231.864 96.1967 229.675 90.9324 229.115 90.6473C228.202 90.5588 227.282 90.7134 226.448 91.0953C226.448 91.0953 229.523 93.9668 228.474 96.9298Z" fill="white"/>
<path d="M213.396 81.9202C213.284 83.6613 214.414 86.9197 216.369 85.2905C218.324 83.6613 213.59 78.9265 213.396 81.9202Z" fill="#263238"/>
<path d="M225.583 81.2572C226.845 85.3301 227.792 87.6925 226.54 90.4926C224.646 94.7081 218.985 94.6979 216.512 91.0425C214.292 87.7637 212.592 81.6136 215.941 78.5691C216.682 77.8974 217.58 77.4244 218.553 77.1942C219.526 76.9639 220.541 76.984 221.504 77.2525C222.466 77.5209 223.346 78.029 224.059 78.7293C224.772 79.4297 225.296 80.2994 225.583 81.2572Z" fill="#FFC2BC"/>
<path d="M226.234 76.072C225.827 73.4042 222.661 73.781 220.808 75.1862V80.4504C221.523 80.1106 222.204 79.705 222.844 79.2387C222.844 79.2387 223.567 83.1793 225.98 84.3299C229.054 81.3465 229.309 76.7441 226.234 76.072Z" fill="#263238"/>
<path d="M228.413 84.0157C228.471 85.0859 228.105 86.1359 227.395 86.9381C226.428 87.9563 225.186 87.2945 224.829 85.9809C224.473 84.6674 224.615 82.8549 225.847 82.2949C226.13 82.1772 226.437 82.1313 226.741 82.1612C227.046 82.1912 227.338 82.296 227.592 82.4664C227.846 82.6368 228.054 82.8675 228.197 83.1378C228.34 83.4082 228.415 83.7098 228.413 84.0157Z" fill="#FFC2BC"/>
<path d="M219.902 84.6203C220.024 84.9461 219.902 85.272 219.729 85.3534C219.556 85.4349 219.24 85.2312 219.118 84.9054C218.996 84.5796 219.118 84.2537 219.291 84.1723C219.464 84.0908 219.769 84.2944 219.902 84.6203Z" fill="#263238"/>
<path d="M216.196 85.9738C216.328 86.2996 216.247 86.6255 216.033 86.7069C215.819 86.7884 215.544 86.5847 215.422 86.2589C215.3 85.9331 215.371 85.6072 215.585 85.5258C215.799 85.4443 216.064 85.648 216.196 85.9738Z" fill="#263238"/>
<path d="M217.428 85.707C217.388 86.8183 217.192 87.9184 216.848 88.9756C217.13 89.0462 217.424 89.0555 217.71 89.0028C217.997 88.9502 218.268 88.8367 218.507 88.6701L217.428 85.707Z" fill="#ED893E"/>
<path d="M220.737 89.2822L220.319 89.4655C220.293 89.4749 220.265 89.4738 220.24 89.4624C220.215 89.4509 220.196 89.43 220.187 89.4044C220.177 89.3787 220.178 89.3504 220.19 89.3255C220.201 89.3007 220.222 89.2815 220.248 89.272C220.657 89.1324 221.028 88.8983 221.331 88.5887C221.633 88.2792 221.859 87.9029 221.989 87.4901C221.991 87.4766 221.996 87.4637 222.004 87.4523C222.011 87.4408 222.021 87.431 222.033 87.4233C222.044 87.4157 222.057 87.4105 222.07 87.408C222.084 87.4055 222.098 87.4057 222.111 87.4086C222.124 87.4108 222.137 87.4159 222.148 87.4236C222.159 87.4312 222.169 87.4412 222.175 87.4529C222.182 87.4646 222.186 87.4776 222.188 87.4911C222.189 87.5046 222.187 87.5181 222.182 87.5308C222.074 87.906 221.889 88.2549 221.641 88.5561C221.392 88.8573 221.084 89.1044 220.737 89.2822Z" fill="#263238"/>
<path d="M220.594 83.0081C220.561 83.026 220.524 83.0353 220.487 83.0353C220.45 83.0353 220.413 83.026 220.38 83.0081C220.166 82.8625 219.921 82.77 219.664 82.7381C219.408 82.7062 219.147 82.736 218.904 82.8249C218.854 82.8465 218.798 82.8473 218.747 82.8273C218.696 82.8072 218.656 82.7679 218.634 82.7179C218.613 82.668 218.612 82.6115 218.632 82.5609C218.652 82.5103 218.691 82.4697 218.741 82.4481C219.046 82.3318 219.375 82.2905 219.699 82.3277C220.023 82.3649 220.334 82.4796 220.604 82.6619C220.649 82.6929 220.68 82.7396 220.691 82.7925C220.702 82.8454 220.693 82.9006 220.665 82.947C220.646 82.972 220.622 82.9928 220.594 83.0081Z" fill="#263238"/>
<path d="M214.16 85.2896C214.12 85.3045 214.077 85.3045 214.038 85.2896C214.011 85.2871 213.985 85.2792 213.961 85.2666C213.937 85.2539 213.916 85.2367 213.899 85.2158C213.882 85.195 213.869 85.171 213.862 85.1452C213.854 85.1194 213.852 85.0924 213.854 85.0656C213.883 84.7383 213.991 84.4229 214.168 84.1463C214.346 83.8697 214.587 83.6401 214.872 83.4772C214.896 83.4649 214.923 83.4576 214.95 83.4556C214.976 83.4536 215.003 83.457 215.029 83.4655C215.055 83.4741 215.078 83.4876 215.098 83.5053C215.119 83.523 215.135 83.5446 215.147 83.5688C215.173 83.6161 215.178 83.6715 215.163 83.723C215.148 83.7745 215.113 83.8179 215.066 83.8437C214.845 83.976 214.661 84.1602 214.527 84.3803C214.394 84.6003 214.317 84.8496 214.302 85.1063C214.3 85.1478 214.285 85.1875 214.26 85.2203C214.234 85.253 214.199 85.2772 214.16 85.2896Z" fill="#263238"/>
<path d="M222.752 79.2717C222.752 79.2717 220.177 81.9294 217.662 81.797C218.34 81.4886 218.957 81.061 219.484 80.5344C219.484 80.5344 214.567 82.6625 212.144 81.5526C209.721 80.4427 209.996 79.2412 209.996 79.2412C209.996 79.2412 210.271 79.9438 212.622 79.8725C212.622 79.8725 210.586 78.5386 211.411 76.6549C211.529 76.8803 211.701 77.0723 211.913 77.2129C212.125 77.3536 212.369 77.4383 212.622 77.4593C213.42 76.2304 214.492 75.203 215.753 74.4575C217.014 73.712 218.431 73.2687 219.892 73.1623C225.175 72.5616 226.244 74.649 226.479 76.217C226.713 77.7851 222.752 79.2717 222.752 79.2717Z" fill="#263238"/>
<path d="M138.15 354.205H66.0704C65.3619 354.205 64.7876 354.779 64.7876 355.488V371.922C64.7876 372.631 65.3619 373.205 66.0704 373.205H138.15C138.859 373.205 139.433 372.631 139.433 371.922V355.488C139.433 354.779 138.859 354.205 138.15 354.205Z" fill="#72B472"/>
<path opacity="0.2" d="M71.0793 355.305H68.1268V372.279H71.0793V355.305Z" fill="black"/>
<path opacity="0.2" d="M77.7884 355.223H75.6403V372.197H77.7884V355.223Z" fill="black"/>
<path opacity="0.2" d="M83.958 355.305H82.889V372.279H83.958V355.305Z" fill="black"/>
<path opacity="0.2" d="M92.2859 355.223H91.7463V372.197H92.2859V355.223Z" fill="black"/>
<path opacity="0.2" d="M133.141 372.197H136.094V355.223H133.141V372.197Z" fill="black"/>
<path opacity="0.2" d="M126.432 372.277H128.58V355.303H126.432V372.277Z" fill="black"/>
<path opacity="0.2" d="M120.252 372.197H121.321V355.223H120.252V372.197Z" fill="black"/>
<path opacity="0.2" d="M111.925 372.277H112.464V355.303H111.925V372.277Z" fill="black"/>
<path opacity="0.2" d="M101.978 372.277H102.243V355.303H101.978V372.277Z" fill="black"/>
<path opacity="0.2" d="M137.438 357.097H66.9357C66.8177 357.098 66.7006 357.076 66.5912 357.031C66.4819 356.987 66.3826 356.921 66.2992 356.837C66.2157 356.754 66.1497 356.655 66.1052 356.545C66.0607 356.436 66.0384 356.319 66.0398 356.201C66.0398 355.963 66.1342 355.735 66.3022 355.567C66.4702 355.399 66.6981 355.305 66.9357 355.305H137.438C137.675 355.305 137.903 355.399 138.071 355.567C138.239 355.735 138.333 355.963 138.333 356.201C138.335 356.319 138.313 356.436 138.268 356.545C138.223 356.655 138.158 356.754 138.074 356.837C137.991 356.921 137.891 356.987 137.782 357.031C137.673 357.076 137.556 357.098 137.438 357.097Z" fill="white"/>
<path d="M139.168 335.254H67.0885C66.38 335.254 65.8057 335.828 65.8057 336.537V352.971C65.8057 353.68 66.38 354.254 67.0885 354.254H139.168C139.877 354.254 140.451 353.68 140.451 352.971V336.537C140.451 335.828 139.877 335.254 139.168 335.254Z" fill="#72B472"/>
<path opacity="0.2" d="M72.0973 336.354H69.1448V353.328H72.0973V336.354Z" fill="black"/>
<path opacity="0.2" d="M78.8064 336.273H76.6583V353.247H78.8064V336.273Z" fill="black"/>
<path opacity="0.2" d="M84.976 336.354H83.907V353.328H84.976V336.354Z" fill="black"/>
<path opacity="0.2" d="M93.3142 336.273H92.7746V353.247H93.3142V336.273Z" fill="black"/>
<path opacity="0.2" d="M134.159 353.236H137.112V336.262H134.159V353.236Z" fill="black"/>
<path opacity="0.2" d="M127.44 353.318H129.588V336.344H127.44V353.318Z" fill="black"/>
<path opacity="0.2" d="M121.271 353.236H122.34V336.262H121.271V353.236Z" fill="black"/>
<path opacity="0.2" d="M112.943 353.318H113.482V336.344H112.943V353.318Z" fill="black"/>
<path opacity="0.2" d="M102.996 353.318H103.261V336.344H102.996V353.318Z" fill="black"/>
<path opacity="0.2" d="M138.456 338.146H67.9538C67.7162 338.146 67.4883 338.051 67.3203 337.883C67.1522 337.715 67.0579 337.487 67.0579 337.25C67.0565 337.132 67.0787 337.014 67.1233 336.905C67.1678 336.796 67.2338 336.696 67.3172 336.613C67.4007 336.53 67.5 336.464 67.6093 336.419C67.7186 336.374 67.8357 336.352 67.9538 336.354H138.456C138.574 336.352 138.691 336.374 138.8 336.419C138.909 336.464 139.009 336.53 139.092 336.613C139.176 336.696 139.242 336.796 139.286 336.905C139.331 337.014 139.353 337.132 139.352 337.25C139.352 337.487 139.257 337.715 139.089 337.883C138.921 338.051 138.693 338.146 138.456 338.146Z" fill="white"/>
<path d="M135.096 316.307H63.0161C62.3077 316.307 61.7333 316.881 61.7333 317.59V334.024C61.7333 334.733 62.3077 335.307 63.0161 335.307H135.096C135.804 335.307 136.379 334.733 136.379 334.024V317.59C136.379 316.881 135.804 316.307 135.096 316.307Z" fill="#72B472"/>
<path opacity="0.2" d="M68.0149 317.396H65.0625V334.371H68.0149V317.396Z" fill="black"/>
<path opacity="0.2" d="M74.7341 317.314H72.586V334.288H74.7341V317.314Z" fill="black"/>
<path opacity="0.2" d="M80.9037 317.396H79.8347V334.371H80.9037V317.396Z" fill="black"/>
<path opacity="0.2" d="M89.2315 317.314H88.692V334.288H89.2315V317.314Z" fill="black"/>
<path opacity="0.2" d="M130.077 334.289H133.029V317.315H130.077V334.289Z" fill="black"/>
<path opacity="0.2" d="M123.378 334.369H125.526V317.395H123.378V334.369Z" fill="black"/>
<path opacity="0.2" d="M117.198 334.289H118.267V317.315H117.198V334.289Z" fill="black"/>
<path opacity="0.2" d="M108.87 334.369H109.41V317.395H108.87V334.369Z" fill="black"/>
<path opacity="0.2" d="M98.9237 334.369H99.1884V317.395H98.9237V334.369Z" fill="black"/>
<path opacity="0.2" d="M134.383 319.189H63.8814C63.7634 319.19 63.6463 319.168 63.537 319.123C63.4277 319.079 63.3284 319.013 63.2449 318.929C63.1614 318.846 63.0955 318.746 63.0509 318.637C63.0064 318.528 62.9842 318.411 62.9855 318.293C62.9855 318.055 63.0799 317.827 63.2479 317.659C63.416 317.491 63.6438 317.396 63.8814 317.396H134.383C134.62 317.399 134.846 317.494 135.014 317.662C135.181 317.829 135.277 318.056 135.279 318.293C135.279 318.53 135.185 318.758 135.017 318.926C134.849 319.094 134.621 319.189 134.383 319.189Z" fill="white"/>
<path d="M94.4951 303.743L92.4487 308.783L90.9013 312.591L87.0122 311.206L88.407 307.785L90.606 302.348L94.4951 303.743Z" fill="#E4897B"/>
<path d="M177.611 276.757L174.302 279.211L173.091 276.523L170.281 270.312L173.589 267.848L176.247 273.733L177.611 276.757Z" fill="#E4897B"/>
<path opacity="0.2" d="M90.606 302.348L94.495 303.743L92.4487 308.783L88.4069 307.785L90.606 302.348Z" fill="black"/>
<path opacity="0.2" d="M176.247 273.733L173.091 276.523L170.281 270.312L173.589 267.848L176.247 273.733Z" fill="black"/>
<path d="M123.683 164.192C123.795 164.508 124.05 164.701 124.253 164.63C124.457 164.559 124.539 164.243 124.427 163.927C124.315 163.612 124.06 163.418 123.856 163.489C123.653 163.561 123.551 163.876 123.683 164.192Z" fill="#263238"/>
<path d="M124.019 164.709C124.731 165.534 125.553 166.257 126.463 166.857C126.305 167.088 126.098 167.281 125.857 167.422C125.616 167.563 125.346 167.648 125.068 167.672L124.019 164.709Z" fill="#DE5753"/>
<path d="M121.922 162.857C121.875 162.871 121.826 162.871 121.779 162.857C121.746 162.821 121.727 162.774 121.727 162.725C121.727 162.676 121.746 162.628 121.779 162.592C121.95 162.335 122.179 162.121 122.448 161.968C122.717 161.816 123.018 161.73 123.327 161.717C123.379 161.719 123.428 161.742 123.464 161.78C123.5 161.818 123.52 161.868 123.52 161.92C123.52 161.947 123.515 161.973 123.505 161.997C123.494 162.021 123.479 162.043 123.46 162.061C123.441 162.079 123.419 162.093 123.394 162.102C123.369 162.111 123.343 162.115 123.317 162.114C123.072 162.124 122.833 162.194 122.62 162.316C122.407 162.438 122.227 162.61 122.095 162.816C122.071 162.835 122.043 162.848 122.013 162.855C121.983 162.862 121.952 162.863 121.922 162.857Z" fill="#263238"/>
<path d="M116.15 169.324C116.2 172.379 115.814 177.939 113.38 179.558C113.38 179.558 113.655 182.714 119.173 183.692C125.282 184.781 122.614 181.197 122.614 181.197C119.448 179.822 119.967 177.378 120.955 175.169L116.15 169.324Z" fill="#E4897B"/>
<path d="M112.994 167.216C114.582 170.983 115.325 173.325 117.972 174.567C121.942 176.502 126.117 173.06 125.638 168.896C125.251 165.138 122.706 159.609 118.389 159.406C117.44 159.357 116.493 159.552 115.64 159.972C114.787 160.393 114.055 161.024 113.515 161.806C112.974 162.589 112.642 163.496 112.551 164.443C112.46 165.39 112.612 166.344 112.994 167.216Z" fill="#E4897B"/>
<path d="M115.681 173.344C117.473 174.067 123.103 170.035 121.179 165.391C121.179 165.391 123.103 162.286 122.411 159.282C121.719 156.278 119.458 155.372 117.32 156.349C115.427 157.205 115.63 158.274 115.63 158.274C115.63 158.274 106.468 160.677 108.972 164.19C105.745 168.833 113.431 172.458 115.681 173.344Z" fill="#263238"/>
<path d="M119.672 166.451C120.075 167.384 120.772 168.16 121.657 168.661C122.838 169.302 123.52 168.406 123.276 167.215C123.032 166.023 122.187 164.516 120.965 164.364C119.743 164.211 119.204 165.331 119.672 166.451Z" fill="#E4897B"/>
<path d="M111.914 179.588C111.487 178.733 111.018 177.755 112.057 177.491C113.095 177.226 120.466 176.798 122.574 177.491C121.881 178.641 122.95 180.107 122.95 180.107L111.914 179.588Z" fill="#72B472"/>
<path opacity="0.5" d="M111.914 179.588C111.487 178.733 111.018 177.755 112.057 177.491C113.095 177.226 120.466 176.798 122.574 177.491C121.881 178.641 122.95 180.107 122.95 180.107L111.914 179.588Z" fill="#FAFAFA"/>
<path d="M91.1659 310.941H86.666C86.5844 310.942 86.5055 310.971 86.4425 311.023C86.3795 311.075 86.3362 311.147 86.3199 311.227L85.5054 314.892C85.4834 314.981 85.4821 315.073 85.5018 315.162C85.5214 315.251 85.5613 315.334 85.6185 315.405C85.6757 315.476 85.7486 315.533 85.8314 315.571C85.9143 315.61 86.0048 315.628 86.0959 315.625C87.7147 315.625 90.0664 315.503 92.1026 315.503C94.4951 315.503 96.5516 315.635 99.3513 315.635C101.051 315.635 101.52 313.925 100.807 313.772C97.5798 313.059 94.9532 312.988 92.1637 311.267C91.8668 311.07 91.5219 310.958 91.1659 310.941Z" fill="#263238"/>
<path d="M120.283 215.991C120.283 215.991 119 224.635 117.443 234.573C116.76 238.83 116.027 243.32 115.305 247.475C114.5 252.128 113.716 256.343 113.065 259.317C110.224 272.248 95.1466 307.887 95.1466 307.887L87.7656 306.288C87.7656 306.288 98.3128 278.561 100.665 260.467C102.487 246.589 106.06 215.98 106.06 215.98L120.283 215.991Z" fill="#263238"/>
<path d="M96.9078 305.411L95.5334 308.079L87.2259 306.277L87.9182 303.812L96.9078 305.411Z" fill="#72B472"/>
<path opacity="0.3" d="M96.9078 305.411L95.5334 308.079L87.2259 306.277L87.9182 303.812L96.9078 305.411Z" fill="black"/>
<path opacity="0.2" d="M117.443 234.572C116.76 238.828 116.027 243.319 115.305 247.473C113.268 239.256 113.93 234.338 113.93 234.338L117.443 234.572Z" fill="black"/>
<path d="M108.219 187.134C106.234 189.008 104.146 190.993 102.253 192.979C100.339 194.923 98.5248 196.962 96.8163 199.088C96.0872 200.142 95.4308 201.244 94.8514 202.387C94.2202 203.619 93.5788 204.872 92.968 206.155L89.2316 213.873L86.2996 212.855C86.9308 209.994 87.735 207.204 88.6106 204.404C89.0687 203.009 89.5574 201.614 90.097 200.219C90.666 198.718 91.3643 197.27 92.184 195.891C93.8384 193.367 95.6976 190.983 97.7427 188.763C99.7204 186.543 101.828 184.442 104.055 182.471L108.219 187.134Z" fill="#DC897C"/>
<path d="M86.0552 220.388L87.5518 217.73L82.9908 216.346C82.7336 216.961 82.608 217.623 82.622 218.289C82.6361 218.955 82.7894 219.611 83.0722 220.215L86.0552 220.388Z" fill="#E4897B"/>
<path d="M89.2215 213.832L86.2996 212.885L82.9908 216.347L87.5518 217.732L89.2215 213.832Z" fill="#E4897B"/>
<path d="M177.56 276.197L173.844 278.956C173.779 279.006 173.733 279.076 173.713 279.156C173.692 279.235 173.699 279.319 173.732 279.394L175.259 282.825C175.295 282.909 175.35 282.984 175.42 283.043C175.49 283.102 175.573 283.144 175.661 283.166C175.75 283.188 175.843 283.188 175.932 283.168C176.021 283.148 176.105 283.107 176.175 283.049C177.458 282.031 178.039 281.522 179.667 280.31C180.686 279.567 183.007 277.928 184.401 276.899C185.796 275.871 184.951 274.354 184.29 274.659C181.327 275.993 179.617 276.135 178.252 276.003C178.006 275.981 177.76 276.05 177.56 276.197Z" fill="#263238"/>
<path d="M106.447 179.974C102.487 179.73 96.6432 188.293 96.6432 188.293L102.405 196.164C104.934 194.688 107.039 192.584 108.514 190.054C111.253 185.432 110.489 180.228 106.447 179.974Z" fill="#72B472"/>
<path opacity="0.6" d="M106.447 179.974C102.487 179.73 96.6432 188.293 96.6432 188.293L102.405 196.164C104.934 194.688 107.039 192.584 108.514 190.054C111.253 185.432 110.489 180.228 106.447 179.974Z" fill="#FAFAFA"/>
<path opacity="0.2" d="M107.567 187.875C104.971 189.27 103.24 192.701 102.151 195.807L102.406 196.163C104.934 194.688 107.039 192.583 108.514 190.054C108.677 189.789 108.83 189.504 108.972 189.229L107.567 187.875Z" fill="black"/>
<path d="M129.883 179.343C129.883 179.343 132.256 185.31 128.102 216H106.06C105.908 212.609 108.035 196.093 104.767 180.148C107.205 179.675 109.67 179.362 112.149 179.211C114.969 179.079 124.365 177.174 126.85 177.409C130.118 177.694 129.883 179.343 129.883 179.343Z" fill="#72B472"/>
<path opacity="0.6" d="M130.403 192.876C130.138 198.303 129.476 205.777 128.102 215.99H106.06C105.908 212.599 108.035 196.083 104.767 180.138C107.205 179.665 109.67 179.352 112.149 179.201C114.969 179.069 124.365 177.165 126.85 177.399C130.118 177.694 129.904 179.344 129.904 179.344C129.904 179.344 130.403 180.596 130.535 184.903C130.586 186.868 130.576 189.465 130.403 192.876Z" fill="#FAFAFA"/>
<path d="M127.206 214.207L131.563 224.389C131.563 224.389 152.668 227.037 158.654 234.297C164.641 241.557 175.962 271.014 175.962 271.014L170.321 275.81C170.321 275.81 154.134 246.037 149.604 242.443C145.073 238.848 119.285 238.859 113.523 236.71C107.761 234.562 106.101 215.958 106.101 215.958L127.206 214.207Z" fill="#263238"/>
<path d="M169.12 275.251L175.921 270.037L176.796 271.717L170.281 276.859L169.12 275.251Z" fill="#72B472"/>
<path opacity="0.3" d="M169.12 275.251L175.921 270.037L176.796 271.717L170.281 276.859L169.12 275.251Z" fill="black"/>
<path d="M122.533 160.751C122.533 160.751 122.278 154.702 119.082 154.499C115.885 154.295 113.37 157.187 113.37 157.187C113.061 156.801 112.669 156.489 112.223 156.274C111.777 156.059 111.289 155.946 110.794 155.944C108.982 155.843 105.826 158.928 105.826 158.928C105.826 158.928 109.766 156.504 111.426 157.614C111.426 157.614 106.956 158.857 105.826 161.687C105.342 163.125 104.541 164.437 103.485 165.526H105.826L104.289 168.143C104.289 168.143 107.526 171.269 109.97 170.75L109.186 172.236C109.186 172.236 113.981 173.988 115.936 173.448C117.89 172.908 116.038 163.174 116.038 163.174L122.533 160.751Z" fill="#263238"/>
<path opacity="0.2" d="M130.403 192.875C126.402 190.157 126.463 183.895 126.463 183.895L130.535 184.913C130.586 186.868 130.576 189.464 130.403 192.875Z" fill="black"/>
<path d="M93.4973 223.791L66.3045 219.219L59.2696 240.154L63.7695 248.33L93.4566 252.24L99.4735 229.432L93.4973 223.791Z" fill="#72B472"/>
<path opacity="0.4" d="M59.2696 240.154L61.0207 243.341L61.4177 244.043L63.7695 248.33L93.4566 252.24L99.4735 229.432L96.9181 227.029L96.1342 226.285L93.5075 223.791L66.3045 219.219L59.2696 240.154Z" fill="black"/>
<path opacity="0.2" d="M99.4735 229.432L72.5556 225.247L66.3046 219.219L93.5076 223.791L99.4735 229.432Z" fill="white"/>
<path opacity="0.1" d="M72.5555 225.247L63.7695 248.33L59.2696 240.154L66.3045 219.219L72.5555 225.247Z" fill="white"/>
<path d="M61.0206 243.34L61.4177 244.043L69.5521 222.426L96.918 227.028L96.1341 226.285L69.0634 221.947L61.0206 243.34Z" fill="#263238"/>
<path d="M87.7351 225.031L86.3607 223.758L79.509 222.516L80.7104 223.9L87.7351 225.031Z" fill="#263238"/>
<path d="M90.382 225.541C90.382 225.541 90.6976 218.352 90.5042 217.873C90.3107 217.395 80.6696 215.837 79.9467 215.684C79.2239 215.531 76.0475 222.537 76.0475 222.537L76.5972 223.382L78.4196 223.626C78.4196 223.626 80.7306 217.588 80.9648 217.435C83.6065 217.717 86.2304 218.145 88.8244 218.718C89.028 218.881 88.2339 224.37 88.2339 224.37L88.8549 225.266L90.382 225.541Z" fill="#263238"/>
<path d="M61.1122 236.967L63.1484 239.584L63.3418 239.064L64.8791 234.991L65.0624 234.503L65.3882 233.627C65.3882 233.627 64.8079 234.279 64.0138 235.022C63.1903 235.863 62.2026 236.525 61.1122 236.967Z" fill="#72B472"/>
<path opacity="0.2" d="M61.774 237.158L63.291 239.062L64.8283 234.989L65.0115 234.5C64.1678 235.639 63.0556 236.552 61.774 237.158Z" fill="white"/>
<path opacity="0.2" d="M63.9629 235.011H64.8283L65.3373 233.646C65.3373 233.646 64.757 234.268 63.9629 235.011Z" fill="black"/>
<path d="M60.3691 231.841L59.9924 235.527C61.5139 234.832 63.2079 234.605 64.8588 234.875L65.0522 234.366L66.2332 231.2L66.3655 230.874C64.3167 230.672 62.2506 231.005 60.3691 231.841Z" fill="#72B472"/>
<path d="M64.2378 225.591C64.9491 226.978 65.8848 228.237 67.007 229.318L67.1495 228.931L67.516 227.913L68.1268 226.233L68.4221 225.418L68.5035 225.184C68.0159 224.438 67.5935 223.651 67.2411 222.832L64.2378 225.591Z" fill="#72B472"/>
<path d="M70.4685 220.845C70.8398 221.426 71.1277 222.057 71.3237 222.719L71.7513 222.79L72.3418 222.881L73.2886 223.055L74.1947 223.207L74.5103 223.258C74.4942 221.844 73.9661 220.484 73.0239 219.43L70.4685 220.845Z" fill="#72B472"/>
<path opacity="0.2" d="M71.0385 220.947C71.3424 221.534 71.5813 222.152 71.7512 222.79L72.3417 222.882C72.2918 222.804 72.2596 222.717 72.2473 222.625C72.2349 222.534 72.2428 222.44 72.2704 222.352C72.2968 222.272 72.339 222.198 72.3943 222.134C72.4496 222.069 72.5171 222.017 72.5928 221.979C72.6685 221.941 72.751 221.919 72.8354 221.913C72.9199 221.907 73.0046 221.918 73.0849 221.945C73.1649 221.97 73.2391 222.012 73.303 222.066C73.367 222.12 73.4195 222.187 73.4574 222.262C73.4953 222.337 73.5179 222.418 73.5239 222.502C73.5298 222.586 73.519 222.67 73.4921 222.75C73.4549 222.869 73.3842 222.975 73.2885 223.055L74.1946 223.208C74.1408 222.01 73.7256 220.856 73.0034 219.898L71.0385 220.947Z" fill="white"/>
<path opacity="0.2" d="M60.6134 231.986L60.3793 234.969C61.8823 234.464 63.4703 234.259 65.0523 234.368L66.2332 231.202C64.3237 230.97 62.3867 231.24 60.6134 231.986ZM63.8815 231.741C64.0037 231.699 64.1341 231.685 64.2626 231.701C64.391 231.717 64.5141 231.762 64.6223 231.833C64.7305 231.904 64.821 231.999 64.8867 232.111C64.9524 232.222 64.9916 232.347 65.0013 232.476C65.0109 232.606 64.9908 232.735 64.9425 232.855C64.8942 232.975 64.8189 233.083 64.7225 233.169C64.6261 233.255 64.5111 233.319 64.3865 233.353C64.2619 233.388 64.1309 233.394 64.0036 233.37C63.8814 233.413 63.751 233.427 63.6225 233.411C63.4941 233.395 63.371 233.35 63.2628 233.279C63.1546 233.208 63.0641 233.113 62.9984 233.001C62.9327 232.889 62.8935 232.764 62.8838 232.635C62.8741 232.506 62.8942 232.377 62.9426 232.256C62.9909 232.136 63.0662 232.029 63.1626 231.943C63.259 231.856 63.3739 231.793 63.4986 231.758C63.6232 231.723 63.7542 231.717 63.8815 231.741Z" fill="white"/>
<path opacity="0.2" d="M64.7571 225.754C65.4264 226.904 66.2295 227.97 67.1496 228.931L67.5161 227.913C67.3079 227.828 67.1406 227.667 67.0494 227.462C66.9582 227.256 66.9503 227.024 67.0274 226.813C67.0914 226.604 67.2313 226.426 67.4198 226.315C67.6082 226.204 67.8314 226.167 68.0455 226.212L68.3407 225.398C67.8234 224.825 67.4038 224.172 67.0987 223.463L64.7571 225.754Z" fill="white"/>
<path d="M155.854 160.097L157.422 157.48L160.884 160.759C160.476 161.286 159.964 161.722 159.378 162.04C158.793 162.357 158.147 162.549 157.483 162.602L155.854 160.097Z" fill="#E4897B"/>
<path d="M159.845 153.979L162.299 157.43L160.884 160.76L157.422 157.481L159.845 153.979Z" fill="#E4897B"/>
<path d="M128.763 177.917C131.581 177.339 134.367 176.618 137.112 175.758C139.756 174.974 142.293 173.866 144.666 172.459C144.882 172.324 145.09 172.174 145.287 172.011L145.989 171.359C146.478 170.891 147.007 170.341 147.466 169.852C148.433 168.773 149.43 167.663 150.387 166.523C152.352 164.262 154.266 161.91 156.241 159.619L158.817 161.33C157.402 164.089 155.834 166.716 154.175 169.333C153.33 170.626 152.464 171.93 151.507 173.202C151.029 173.834 150.489 174.475 149.98 175.117C149.716 175.432 149.38 175.758 149.084 176.084C148.72 176.445 148.336 176.785 147.934 177.102C145.231 179.042 142.257 180.572 139.107 181.644C136.096 182.733 132.996 183.561 129.843 184.118L128.763 177.917Z" fill="#DC897C"/>
<path d="M127.45 186.817C131.736 190.533 141.154 184.159 141.154 184.159L137.397 174.883C133.941 175.286 130.532 176.019 127.216 177.072C121.26 179.098 124.172 183.986 127.45 186.817Z" fill="#72B472"/>
<path opacity="0.6" d="M127.45 186.817C131.736 190.533 141.154 184.159 141.154 184.159L137.397 174.883C133.941 175.286 130.532 176.019 127.216 177.072C121.26 179.098 124.172 183.986 127.45 186.817Z" fill="#FAFAFA"/>
</g>
<defs>
<clipPath id="clip0_75033_26456">
<rect width="353.273" height="334.947" fill="white" transform="translate(0.363647 38.0527)"/>
</clipPath>
</defs>
</svg>
