<svg width="316" height="283" viewBox="0 0 316 283" fill="none" xmlns="http://www.w3.org/2000/svg">
<g clip-path="url(#clip0_75030_21026)">
<path d="M118.048 48.6886C175.671 48.5042 260.622 -37.5368 303.617 19.5752C354.811 87.5764 221.944 123.438 187.709 173.399C139.415 243.873 41.4457 195.387 4.96385 114.72C-8.64142 84.6508 11.0078 33.0463 49.225 28.2094C90.9461 22.9115 85.0279 48.7892 118.048 48.6886Z" fill="#315131"/>
<path opacity="0.9" d="M118.048 48.6886C175.671 48.5042 260.622 -37.5368 303.617 19.5752C354.811 87.5764 221.944 123.438 187.709 173.399C139.415 243.873 41.4457 195.387 4.96385 114.72C-8.64142 84.6508 11.0078 33.0463 49.225 28.2094C90.9461 22.9115 85.0279 48.7892 118.048 48.6886Z" fill="white"/>
<path d="M164.287 282.131C254.052 282.131 326.821 277.882 326.821 272.642C326.821 267.401 254.052 263.152 164.287 263.152C74.5221 263.152 1.75317 267.401 1.75317 272.642C1.75317 277.882 74.5221 282.131 164.287 282.131Z" fill="#F5F5F5"/>
<path d="M259.968 272.642H151.612C150.024 272.651 148.451 272.336 146.989 271.717C145.527 271.097 144.206 270.186 143.108 269.039C142.01 267.892 141.157 266.533 140.601 265.046C140.046 263.558 139.799 261.973 139.876 260.387L149.726 29.3906C149.901 26.1072 151.318 23.0133 153.691 20.737C156.064 18.4608 159.214 17.173 162.502 17.135H270.858C272.446 17.1251 274.02 17.4393 275.482 18.0584C276.945 18.6775 278.266 19.5885 279.365 20.7357C280.463 21.8829 281.316 23.2421 281.871 24.7303C282.426 26.2185 282.672 27.8042 282.593 29.3906L272.744 260.387C272.567 263.669 271.149 266.762 268.777 269.038C266.405 271.314 263.256 272.602 259.968 272.642Z" fill="#315131"/>
<path d="M277.975 109.119H277.228C276.872 109.121 276.52 109.05 276.192 108.911C275.864 108.772 275.568 108.567 275.322 108.31C275.076 108.053 274.884 107.748 274.759 107.414C274.635 107.081 274.579 106.725 274.596 106.37L276.449 62.9468C276.489 62.2105 276.808 61.517 277.34 61.0065C277.872 60.4961 278.578 60.2068 279.316 60.1973H280.062C280.418 60.1957 280.77 60.2667 281.097 60.4059C281.425 60.5451 281.72 60.7497 281.966 61.0071C282.211 61.2645 282.402 61.5692 282.526 61.9028C282.649 62.2363 282.704 62.5916 282.686 62.9468L280.841 106.37C280.801 107.106 280.483 107.8 279.95 108.31C279.418 108.82 278.712 109.11 277.975 109.119Z" fill="#315131"/>
<path d="M147.069 76.9461H145.183C144.901 76.9488 144.622 76.8938 144.362 76.7844C144.103 76.675 143.868 76.5137 143.674 76.3102C143.479 76.1068 143.328 75.8656 143.23 75.6016C143.132 75.3375 143.089 75.0562 143.104 74.775L143.632 62.3768C143.662 61.794 143.912 61.2443 144.333 60.8395C144.753 60.4347 145.312 60.2051 145.895 60.1973H147.781C148.064 60.1958 148.343 60.2519 148.603 60.3621C148.863 60.4723 149.098 60.6343 149.294 60.8383C149.489 61.0422 149.641 61.2838 149.739 61.5484C149.838 61.8129 149.882 62.0948 149.869 62.3768L149.341 74.775C149.309 75.3578 149.056 75.9066 148.634 76.3098C148.212 76.7131 147.652 76.9406 147.069 76.9461Z" fill="#263238"/>
<path d="M146.13 99.0946H144.235C143.954 99.096 143.676 99.0402 143.417 98.9304C143.158 98.8206 142.924 98.6592 142.729 98.456C142.535 98.2529 142.383 98.0122 142.285 97.7487C142.187 97.4852 142.143 97.2044 142.156 96.9234L142.685 84.5169C142.716 83.9355 142.968 83.3879 143.388 82.9849C143.808 82.5818 144.366 82.3534 144.948 82.3457H146.842C147.124 82.3443 147.402 82.4001 147.661 82.5099C147.92 82.6197 148.154 82.7811 148.349 82.9843C148.543 83.1874 148.694 83.4281 148.793 83.6916C148.891 83.9551 148.935 84.2359 148.921 84.5169L148.393 96.9234C148.361 97.5048 148.11 98.0524 147.69 98.4554C147.27 98.8585 146.712 99.0869 146.13 99.0946Z" fill="#263238"/>
<path d="M257.051 272.642H148.695C147.106 272.654 145.532 272.34 144.069 271.721C142.606 271.103 141.284 270.192 140.185 269.044C139.087 267.897 138.234 266.537 137.679 265.048C137.124 263.56 136.879 261.973 136.959 260.387L146.801 29.3906C146.975 26.1072 148.393 23.0133 150.765 20.737C153.138 18.4608 156.288 17.173 159.576 17.135H267.94C269.529 17.1251 271.102 17.4393 272.565 18.0584C274.028 18.6775 275.349 19.5885 276.447 20.7357C277.546 21.8829 278.399 23.2422 278.954 24.7303C279.509 26.2185 279.755 27.8042 279.676 29.3906L269.826 260.387C269.652 263.67 268.235 266.764 265.862 269.04C263.489 271.317 260.339 272.604 257.051 272.642Z" fill="#263238"/>
<path opacity="0.6" d="M257.051 272.642H148.695C147.106 272.654 145.532 272.34 144.069 271.721C142.606 271.103 141.284 270.192 140.185 269.044C139.087 267.897 138.234 266.537 137.679 265.048C137.124 263.56 136.879 261.973 136.959 260.387L146.801 29.3906C146.975 26.1072 148.393 23.0133 150.765 20.737C153.138 18.4608 156.288 17.173 159.576 17.135H267.94C269.529 17.1251 271.102 17.4393 272.565 18.0584C274.028 18.6775 275.349 19.5885 276.447 20.7357C277.546 21.8829 278.399 23.2422 278.954 24.7303C279.509 26.2185 279.755 27.8042 279.676 29.3906L269.826 260.387C269.652 263.67 268.235 266.764 265.862 269.04C263.489 271.317 260.339 272.604 257.051 272.642Z" fill="#315131"/>
<path opacity="0.5" d="M211.784 257.059C211.671 259.271 210.718 261.356 209.119 262.889C207.521 264.422 205.398 265.287 203.183 265.308C202.114 265.317 201.054 265.108 200.069 264.692C199.083 264.276 198.194 263.663 197.455 262.89C196.716 262.117 196.143 261.201 195.771 260.198C195.4 259.195 195.238 258.127 195.295 257.059C195.406 254.849 196.358 252.764 197.955 251.233C199.552 249.701 201.674 248.837 203.887 248.819C204.956 248.809 206.016 249.019 207.001 249.434C207.986 249.849 208.876 250.461 209.615 251.233C210.355 252.005 210.929 252.92 211.302 253.922C211.675 254.924 211.839 255.991 211.784 257.059Z" fill="#315131"/>
<path opacity="0.8" d="M264.822 242.648H143.473C143.104 242.651 142.74 242.579 142.4 242.435C142.061 242.292 141.755 242.08 141.501 241.814C141.246 241.548 141.049 241.233 140.921 240.887C140.793 240.542 140.737 240.174 140.757 239.807L149.198 41.9142C149.234 41.152 149.561 40.4327 150.112 39.9042C150.662 39.3756 151.394 39.078 152.157 39.0724H273.498C273.867 39.0685 274.233 39.1402 274.573 39.2831C274.913 39.4261 275.22 39.6372 275.475 39.9035C275.731 40.1698 275.929 40.4856 276.057 40.8315C276.186 41.1773 276.242 41.5458 276.222 41.9142L267.789 239.807C267.751 240.57 267.422 241.289 266.87 241.817C266.319 242.346 265.586 242.643 264.822 242.648Z" fill="white"/>
<path opacity="0.5" d="M189.712 27.9997C189.755 27.1025 190.139 26.2556 190.786 25.6322C191.432 25.0089 192.293 24.6563 193.191 24.6466C193.625 24.6424 194.056 24.7276 194.456 24.8967C194.856 25.0658 195.217 25.3153 195.516 25.6297C195.816 25.9442 196.047 26.3168 196.197 26.7245C196.346 27.1322 196.41 27.5663 196.385 27.9997C196.344 28.8976 195.961 29.7458 195.314 30.3695C194.666 30.9933 193.805 31.3452 192.906 31.3529C192.472 31.357 192.041 31.2719 191.641 31.1028C191.241 30.9337 190.881 30.6842 190.581 30.3698C190.282 30.0553 190.05 29.6827 189.9 29.275C189.751 28.8673 189.687 28.4332 189.712 27.9997Z" fill="#315131"/>
<path opacity="0.5" d="M204.726 24.6543H232.473C232.906 24.6526 233.336 24.7393 233.734 24.9093C234.133 25.0793 234.493 25.3288 234.792 25.6427C235.091 25.9567 235.323 26.3283 235.473 26.7349C235.624 27.1415 235.689 27.5745 235.667 28.0074C235.624 28.9046 235.24 29.7516 234.593 30.3749C233.946 30.9983 233.086 31.3509 232.188 31.3606H204.441C204.007 31.3635 203.577 31.2776 203.178 31.108C202.778 30.9385 202.418 30.6889 202.119 30.3748C201.819 30.0606 201.588 29.6885 201.438 29.2813C201.288 28.8742 201.223 28.4406 201.247 28.0074C201.292 27.1109 201.676 26.2651 202.322 25.6422C202.969 25.0193 203.828 24.666 204.726 24.6543Z" fill="#315131"/>
<path d="M242.807 187.788C263.524 167.507 264.566 134.975 245.134 115.125C225.702 95.2749 193.155 95.6237 172.438 115.904C151.721 136.184 150.679 168.717 170.111 188.567C189.543 208.417 222.09 208.068 242.807 187.788Z" fill="white"/>
<path d="M216.453 143.556H217.25L219.077 142.634H220.502L221.726 143.204H223.067L223.579 142.911L223.612 142.081L222.874 141.737L221.835 140.656L221.877 139.616H221.047L220.343 140.295L219.412 139.314H218.331L216.562 142.24L216.948 142.944L216.361 143.33L216.453 143.556Z" fill="#315131"/>
<path d="M227.192 144.344L227.15 145.358L228.047 146.306H229.899L229.975 144.369H229.564L229.639 142.55L228.877 141.754L228.927 140.496H229.723L229.774 139.39L228.617 139.23L226.664 141.108L226.622 142.148L227.695 143.279L227.669 143.883L227.192 144.344Z" fill="#315131"/>
<path d="M163.491 171.848L160.138 168.344L160.247 165.762L163.03 163.097L163.088 161.764L161.68 160.289H158.897L158.956 158.863L156.323 157.598C156.909 166.348 159.827 174.783 164.773 182.025L165.846 175.772L163.432 173.257L163.491 171.848Z" fill="#315131"/>
<path d="M258.962 152.568L256.179 153.808H255.198L254.159 154.806V155.694L255.551 157.144L255.475 158.947L253.304 160.33V159.785L251.753 158.159H250.806L250.714 160.213L252.39 162.501L252.332 163.8L252.751 164.236H252.155L250.982 162.727L251.024 161.621L250.236 160.607L250.336 158.251L249.833 155.895H249.548L249.012 156.415H248.517L248.584 154.89L247.478 153.733V152.894H247.277L246.64 153.506H245.349L241.853 156.859L241.769 158.754L240.73 160.573L240.042 160.263L239.003 157.706L238.424 154.412L237.293 153.976L235.415 151.059H231.123L230.737 150.614H229.061L227.787 149.734L227.435 148.594H226.596L226.202 148.887L226.982 151.042L228.332 152.718L229.782 151.327H230.159L230.369 151.956L231.676 153.112L230.67 154.294L230.494 155.007L227.887 156.91L223.361 158.402L223.118 155.837L221.583 153.875L220.745 151.545L219.069 149.223V149.768L220.569 155.485L223.302 159.743L226.32 159.274L226.236 161.126L224.643 163.549L220.267 167.548L220.184 169.518L220.938 172.929L218.147 175.939L218.054 178.018L215.456 181.212V181.932L211.985 183.902H210.351L209.848 183.014L207.878 174.363L207.961 172.368L208.397 171.756L208.473 169.953L206.645 165.628L206.696 164.479L207.115 164.211V163.121L206.805 162.602H205.195L204.449 161.604H202.412L199.721 162.082H196.469L193.769 157.597L193.962 153.096L199.872 145.836L203.493 144.839H207.4L207.668 146.767L211.583 148.443L212.488 147.605H214.584L215.213 148.259H218.901L220.116 146.155L220.167 145.157L219.89 144.864H219.479L219.178 145.149H218.532L218.214 144.822H217.652L217.317 145.149H216.881L216.529 144.772L215.741 143.933L215.808 142.257H214.584L214.031 142.542L214.232 143.849L213.695 144.084V144.713L213.31 144.512L212.362 142.508V141.561L211.122 140.723L209.621 139.155H209.001V139.884L209.839 140.597L209.906 141.15L211.776 142.575L211.591 142.969L211.507 142.575H211.03L211.105 143.187L210.2 144.118L209.923 144.788L209.135 143.95H210.141L210.585 143.531V142.743L208.07 140.781L207.861 140.102H206.981L206.067 140.798H205.363L204.851 140.563L204.013 141.083V141.603L202.647 142.919V143.598L201.549 144.746H200.501L200.065 145.023H199.537L199.302 144.646L198.128 144.411L198.195 142.86L198.916 142.173V140.832H202.177L202.362 138.828L200.995 137.537L206.293 134.05L207.676 133.472L207.76 131.636L208.498 130.923L208.397 133.27L211.155 132.893H213.57L213.645 131.099L214.215 130.554L214.567 130.923H215.045L215.104 129.481H216.956L217.644 128.827H214.584L213.964 128.182L214.039 126.589L215.799 124.913V124.074H214.584L211.398 127.126L211.231 131.443L209.764 131.988L208.925 129.817L207.031 130.563L206.318 129.817L206.402 127.78L211.868 121.333L217.845 119.573L222.967 122.389L222.011 123.303H218.859L221.374 125.952L224.291 124.276L234.568 121.09L246.086 116.236C241.458 111.237 235.838 107.257 229.586 104.551C223.333 101.845 216.585 100.471 209.772 100.519C201.791 100.525 193.916 102.348 186.745 105.85L189.134 105.599L196.678 107.82L192.487 120.394L186.912 122.658L183.132 124.51L181.765 128.853L178.739 127.721L176.635 123.018L177.239 121.576L175.562 114.426L174.338 114.166C172.2 116.068 170.213 118.134 168.395 120.344L171.178 122.859L169.635 127.168L166.14 124.862L166.903 123.286L166.45 122.817C164.082 126.061 162.083 129.559 160.49 133.245L162.166 134.243L164.245 132.256L164.455 127.168L171.161 130.177L174.665 134.561L173.081 136.079H169.895L170.784 139.038L161.563 147.722L162.636 150.405L161.982 151.033L160.02 148.98H156.474C156.382 149.935 156.307 150.908 156.265 151.88C156.223 152.853 156.214 154.001 156.265 155.049H156.399L157.463 154.034H159.023L158.184 154.873L158.092 157.044H159.987L160.59 159.391H162.108L163.591 160.95L165.201 159.374L174.732 162.945L175.763 165.251L179.259 166.927L181.472 167.061L183.869 169.14L181.539 172.845L180.231 177.096L176.736 178.454L169.107 187.482C176.026 195.019 185.146 200.182 195.169 202.236L195.941 201.867L203.183 201.355L208.096 200.945L209.672 200.106L213.729 200.249L216.755 201.087L216.034 201.355L217.233 201.951C226.165 199.847 234.423 195.524 241.241 189.382C248.059 183.239 253.217 175.475 256.238 166.81L255.232 164.949L257.261 163.624C258.227 160.011 258.797 156.304 258.962 152.568ZM231.676 115.096L236.086 113.537H238.056L232.246 116.111L231.006 118.198L232.196 119.657L230.645 119.455L229.807 118.064L231.676 115.096ZM217.048 109.857L215.716 110.452L212.941 109.53L217.048 109.857ZM211.725 109.857L214.684 111.165L216.135 112.112L214.458 112.38L214.098 111.433L213.159 111.198L211.876 113.403L209.973 110.989L209.739 110.151L211.725 109.857ZM164.564 154.73L163.725 154.537L160.288 153.138L161.051 152.811L164.622 154.034L164.564 154.73ZM166.894 155.627H165.067L165.578 154.73L167.615 154.94L166.894 155.627ZM200.207 130.621L201.197 130.144L202.035 131.862L203.577 134.821L200.501 136.045L201.146 133.094L200.056 132.021L200.207 130.621ZM198.313 132.876H199.989L199.604 134.771H198.078L198.313 132.876ZM194.666 125.642L193.929 125.868L192.579 125.592L192.294 124.812L192.629 124.443L195.421 123.798L196.821 124.443L196.544 124.963L195.06 125.156L194.666 125.642ZM225.314 176.165L223.88 178.722H222.908L222.497 178.294L222.581 176.417L223.076 175.939L222.774 175.62L222.858 173.944L224.769 172.963L225.532 171.789L225.733 173.08L225.314 176.165ZM253.371 168.042H252.382L250.085 164.689L248.651 162.484L249.833 162.585L253.43 166.625L253.371 168.042Z" fill="#315131"/>
<path opacity="0.3" d="M226.613 182.904L221.382 200.734C223.64 200.024 225.844 199.156 227.98 198.136L226.613 182.904Z" fill="#263238"/>
<path opacity="0.9" d="M199.604 64.1887C199.906 56.9795 205.598 51.1367 212.312 51.1367C219.027 51.1367 224.216 57.0047 223.914 64.1887C223.352 77.3329 210.887 84.6595 210.887 84.6595C210.887 84.6595 199.042 77.3329 199.604 64.1887Z" fill="#315131"/>
<path d="M87.3666 50.548C85.8158 54.8316 84.2483 59.199 82.7561 63.5161C81.9933 65.6789 81.2724 67.8417 80.5766 69.996C79.8808 72.1504 79.2353 74.2964 78.7072 76.3753C78.439 77.4064 78.2126 78.4291 78.0701 79.3261C77.9947 79.7788 77.9695 80.1644 77.936 80.4661C77.9025 80.7679 77.936 81.3044 77.936 81.7403C78.1244 83.8232 78.4719 85.8886 78.9755 87.9184C79.9898 92.2272 81.2975 96.6784 82.5884 101.063L78.112 103.167C75.5112 99.0874 73.2916 94.7772 71.4813 90.2908C70.4985 87.9013 69.7489 85.4224 69.2431 82.8888C69.1081 82.1599 69.0157 81.4237 68.9664 80.6841C68.9272 79.9015 68.944 79.1171 69.0167 78.3369C69.1425 76.9118 69.3436 75.6376 69.57 74.397C70.5543 69.6516 71.7997 64.9641 73.3003 60.3558C74.7422 55.8291 76.293 51.4114 78.045 46.9434L87.3666 50.548Z" fill="#B55B52"/>
<path d="M81.2137 98.918L84.944 103.73L78.0701 106.982C78.0701 106.982 76.1086 103.814 77.2906 100.846L81.2137 98.918Z" fill="#B55B52"/>
<path d="M87.2241 107.877L82.2112 111.003L78.0701 106.971L84.944 103.719L87.2241 107.877Z" fill="#B55B52"/>
<path d="M111.199 18.9874C111.14 19.5155 111.367 19.9682 111.719 20.0101C112.071 20.052 112.389 19.6496 112.448 19.1215C112.507 18.5934 112.272 18.1407 111.928 18.0988C111.585 18.0569 111.258 18.4425 111.199 18.9874Z" fill="#263238"/>
<path d="M111.325 19.9668C111.775 21.6475 112.455 23.2581 113.345 24.7534C112.956 24.9724 112.525 25.1039 112.08 25.1386C111.636 25.1734 111.189 25.1106 110.771 24.9546L111.325 19.9668Z" fill="#A02724"/>
<path d="M109.589 15.8432C109.514 15.8204 109.451 15.7693 109.413 15.7007C109.393 15.665 109.379 15.6256 109.374 15.5846C109.368 15.5437 109.371 15.5021 109.382 15.4623C109.393 15.4224 109.412 15.3852 109.437 15.3527C109.463 15.3203 109.495 15.2932 109.531 15.2732C109.956 15.0204 110.436 14.8725 110.93 14.8419C111.425 14.8113 111.919 14.8988 112.373 15.0971C112.445 15.1379 112.499 15.2049 112.524 15.2843C112.549 15.3638 112.543 15.4497 112.507 15.5247C112.467 15.5966 112.402 15.6508 112.324 15.6757C112.246 15.7007 112.161 15.6946 112.087 15.6588C111.726 15.5035 111.333 15.4369 110.941 15.4646C110.548 15.4923 110.168 15.6135 109.833 15.8181C109.796 15.8385 109.755 15.8513 109.714 15.8556C109.672 15.8599 109.63 15.8557 109.589 15.8432Z" fill="#263238"/>
<path d="M94.2657 22.8926C95.213 27.7043 96.1519 36.5314 92.782 39.742C92.782 39.742 94.1065 44.6292 103.051 44.6292C112.892 44.6292 107.754 39.742 107.754 39.742C102.38 38.4594 102.523 34.4776 103.453 30.7305L94.2657 22.8926Z" fill="#B55B52"/>
<path d="M89.9402 42.2243C89.0516 41.6375 90.2085 38.561 91.097 38.0329C93.4526 36.6078 103.898 36.13 108.248 38.8711C108.648 39.3729 108.931 39.9577 109.076 40.5828C109.221 41.2079 109.225 41.8575 109.087 42.4841L89.9402 42.2243Z" fill="#263238"/>
<path d="M65.63 265.415C65.8989 265.498 66.1817 265.524 66.4612 265.494C66.7408 265.464 67.0112 265.377 67.2563 265.239C67.3503 265.146 67.4123 265.025 67.4334 264.894C67.4545 264.763 67.4336 264.628 67.3737 264.51C67.3411 264.411 67.2865 264.32 67.2139 264.244C67.1414 264.169 67.0527 264.111 66.9545 264.074C66.0408 263.697 64.0457 264.627 63.9619 264.669C63.934 264.681 63.9103 264.701 63.8938 264.726C63.8774 264.752 63.869 264.782 63.8697 264.812C63.871 264.842 63.8802 264.871 63.8964 264.896C63.9126 264.921 63.9352 264.941 63.9619 264.954C64.5004 265.166 65.0595 265.32 65.63 265.415ZM66.6444 264.309L66.8288 264.359C66.8863 264.383 66.9383 264.418 66.9816 264.463C67.0249 264.508 67.0585 264.561 67.0803 264.619C67.1809 264.896 67.0803 264.988 67.0803 265.013C66.745 265.332 65.4037 265.122 64.4732 264.795C65.1534 264.478 65.8941 264.313 66.6444 264.309Z" fill="#315131"/>
<path d="M64.0038 264.963H64.0792C64.8085 264.711 66.3426 263.504 66.3258 262.758C66.3232 262.64 66.2789 262.526 66.2007 262.437C66.1225 262.348 66.0154 262.29 65.8983 262.272C65.7838 262.238 65.6632 262.228 65.5446 262.244C65.426 262.26 65.3123 262.301 65.2109 262.364C64.3726 262.851 63.8948 264.703 63.878 264.779C63.8695 264.805 63.869 264.833 63.8764 264.86C63.8839 264.887 63.899 264.911 63.92 264.929C63.9441 264.948 63.9732 264.96 64.0038 264.963ZM65.7474 262.549H65.8145C66.0073 262.599 66.0157 262.7 66.0157 262.733C66.0157 263.177 65.0181 264.116 64.2636 264.51C64.4327 263.779 64.8183 263.116 65.3702 262.607C65.4839 262.541 65.6188 262.52 65.7474 262.549Z" fill="#315131"/>
<path d="M110.294 266.253C111.132 266.253 111.97 266.136 112.23 265.759C112.299 265.659 112.336 265.541 112.336 265.419C112.336 265.298 112.299 265.179 112.23 265.08C112.177 264.988 112.106 264.908 112.021 264.844C111.936 264.781 111.839 264.735 111.735 264.711C110.646 264.417 108.382 265.725 108.248 265.784C108.22 265.798 108.197 265.821 108.183 265.85C108.169 265.879 108.166 265.912 108.173 265.943C108.176 265.974 108.189 266.003 108.21 266.026C108.232 266.048 108.26 266.064 108.29 266.069C108.951 266.188 109.622 266.25 110.294 266.253ZM111.341 264.979C111.442 264.966 111.543 264.966 111.643 264.979C111.706 264.992 111.765 265.019 111.817 265.056C111.869 265.094 111.913 265.142 111.945 265.197C112.054 265.39 112.012 265.49 111.945 265.541C111.635 265.968 109.975 265.977 108.751 265.809C109.552 265.364 110.432 265.082 111.341 264.979Z" fill="#315131"/>
<path d="M108.307 266.078H108.374C109.162 265.718 110.738 264.301 110.62 263.563C110.62 263.387 110.47 263.169 110.034 263.127C109.883 263.114 109.731 263.131 109.588 263.177C109.444 263.223 109.31 263.298 109.195 263.396C108.357 264.083 108.181 265.852 108.173 265.91C108.172 265.938 108.178 265.965 108.189 265.99C108.201 266.014 108.218 266.036 108.24 266.053C108.26 266.066 108.283 266.074 108.307 266.078ZM109.916 263.404H110.008C110.285 263.404 110.302 263.538 110.31 263.58C110.386 264.024 109.313 265.139 108.5 265.634C108.563 264.885 108.856 264.173 109.338 263.597C109.5 263.462 109.706 263.393 109.916 263.404Z" fill="#315131"/>
<path d="M101.064 265.918H107.653L108.307 250.67H101.726L101.064 265.918Z" fill="#B55B52"/>
<path d="M56.6521 263.58L63.2242 264.653L67.8934 250.151L61.3129 249.078L56.6521 263.58Z" fill="#B55B52"/>
<path d="M63.6937 263.973L56.3923 262.774C56.2629 262.752 56.1298 262.774 56.0152 262.838C55.9007 262.902 55.8118 263.004 55.7635 263.126L53.5337 268.684C53.4805 268.82 53.4584 268.965 53.469 269.111C53.4797 269.256 53.5228 269.397 53.5952 269.523C53.6676 269.649 53.7675 269.758 53.8874 269.84C54.0074 269.923 54.1443 269.978 54.2882 270C56.803 270.369 58.1107 270.428 61.313 270.956C63.2913 271.283 68.321 272.456 71.0789 272.632C73.8368 272.808 74.3733 270.118 73.2584 269.782C68.2707 268.349 66.0408 266.253 64.6744 264.551C64.4305 264.244 64.081 264.038 63.6937 263.973Z" fill="#263238"/>
<path d="M107.611 265.154H100.419C100.287 265.153 100.16 265.198 100.057 265.281C99.9548 265.363 99.8841 265.478 99.857 265.607L98.5577 271.475C98.526 271.616 98.5267 271.762 98.5597 271.903C98.5928 272.044 98.6573 272.175 98.7485 272.287C98.8397 272.4 98.9552 272.49 99.0862 272.551C99.2172 272.612 99.3604 272.642 99.505 272.64C102.095 272.598 105.842 272.447 109.103 272.447C112.917 272.447 114.527 272.657 118.995 272.657C121.694 272.657 122.449 269.924 121.317 269.673C116.162 268.549 113.647 268.432 109.195 265.682C108.725 265.365 108.178 265.183 107.611 265.154Z" fill="#263238"/>
<path d="M80.9957 41.2338C74.9852 43.2121 71.3806 59.3657 71.3806 59.3657L84.5835 67.6228C87.462 63.9218 89.3308 59.5372 90.0072 54.8977C91.3568 46.4814 87.1654 39.2051 80.9957 41.2338Z" fill="#315131"/>
<g opacity="0.4">
<path d="M80.9957 41.2338C74.9852 43.2121 71.3806 59.3657 71.3806 59.3657L84.5835 67.6228C87.462 63.9218 89.3308 59.5372 90.0072 54.8977C91.3568 46.4814 87.1654 39.2051 80.9957 41.2338Z" fill="white"/>
</g>
<path opacity="0.2" d="M84.6004 58.1669C83.0993 60.4823 82.1104 63.0917 81.7 65.8204L84.5836 67.6227C87.0678 64.4392 88.7885 60.7283 89.6133 56.7754L84.6004 58.1669Z" fill="black"/>
<path d="M117.88 41.5699C117.88 41.5699 124.888 49.4833 118.266 98.4723H83.0579C82.8148 93.0654 86.2098 66.7015 80.9957 41.2346C84.8879 40.4821 88.825 39.9836 92.7819 39.7425C97.7683 39.453 102.767 39.453 107.754 39.7425C111.171 40.0886 114.557 40.6996 117.88 41.5699Z" fill="#315131"/>
<g opacity="0.4">
<path d="M117.88 41.5699C117.88 41.5699 124.888 49.4833 118.266 98.4723H83.0579C82.8148 93.0654 86.2098 66.7015 80.9957 41.2346C84.8879 40.4821 88.825 39.9836 92.7819 39.7425C97.7683 39.453 102.767 39.453 107.754 39.7425C111.171 40.0886 114.557 40.6996 117.88 41.5699Z" fill="white"/>
</g>
<path opacity="0.2" d="M120.956 56.5412L120.822 56.4238L112.817 58.3435C112.364 63.7588 117.93 70.2219 120.797 73.181C121.152 67.6414 121.205 62.0866 120.956 56.5412Z" fill="black"/>
<path opacity="0.2" d="M108.307 250.678L107.972 258.532H101.383L101.718 250.678H108.307Z" fill="black"/>
<path opacity="0.2" d="M61.313 249.078L67.8934 250.16L65.4792 257.629L58.9071 256.556L61.313 249.078Z" fill="black"/>
<path d="M93.7125 15.9278C93.4023 22.4496 92.8742 26.2554 95.7914 29.9438C100.159 35.4932 108.491 33.4059 110.746 27.1021C112.783 21.4353 112.959 11.7113 106.899 8.4336C105.565 7.70335 104.068 7.32625 102.548 7.33816C101.028 7.35008 99.5361 7.75062 98.2146 8.50168C96.8931 9.25275 95.7857 10.3294 94.9977 11.6292C94.2096 12.929 93.7672 14.4088 93.7125 15.9278Z" fill="#B55B52"/>
<path d="M105.834 21.6525C103.185 25.7098 104.669 27.0594 103.185 28.9204C101.701 30.7814 91.7677 33.4387 91.6754 28.736C91.7218 27.0564 91.3807 25.3888 90.6785 23.8624C89.9764 22.3359 88.9321 20.9917 87.6266 19.9341C87.0558 19.3715 86.625 18.6828 86.3688 17.9235C86.1126 17.1641 86.0382 16.3552 86.1516 15.5619C86.2649 14.7685 86.5628 14.0128 87.0214 13.3556C87.4799 12.6983 88.0863 12.1579 88.7918 11.7776C92.3293 9.82441 87.2912 8.86877 89.454 5.72523C92.673 1.0644 97.074 -0.469657 100.754 2.74933C104.434 5.96832 110.403 7.77901 114.686 3.67982C118.97 -0.41936 118.224 15.5666 107.561 14.8373C112.146 19.4227 104.484 17.1845 105.834 21.6525Z" fill="#263238"/>
<path d="M91.0299 10.1605C89.2947 11.376 86.7547 7.33553 87.3583 5.13086C85.162 7.6457 85.6817 11.77 90.1749 11.8371C94.668 11.9042 91.0299 10.1605 91.0299 10.1605Z" fill="#263238"/>
<path d="M103.713 18.5761C103.538 20.19 103.9 21.8167 104.744 23.2034C105.876 25.0225 107.527 24.3184 108.097 22.4741C108.634 20.7976 108.692 17.8552 107.125 16.6816C105.557 15.508 103.931 16.6397 103.713 18.5761Z" fill="#B55B52"/>
<path d="M105.775 98.4727C105.775 98.4727 98.3062 148.769 94.207 167.622C89.6803 188.261 68.9078 256.513 68.9078 256.513L57.1719 253.999C57.1719 253.999 70.7268 198.354 74.4991 169.5C77.3912 147.336 83.0998 98.4727 83.0998 98.4727H105.775Z" fill="#263238"/>
<path d="M71.7328 252.617C71.7831 252.617 69.5365 256.875 69.5365 256.875L56.2749 254L57.3982 250.01L71.7328 252.617Z" fill="#315131"/>
<path opacity="0.3" d="M101.056 116.396C92.4215 118.072 93.3352 150.304 94.3495 166.869C96.8644 155.133 100.486 132.625 102.975 116.631C102.38 116.34 101.704 116.257 101.056 116.396Z" fill="black"/>
<path d="M118.266 98.4727C118.266 98.4727 121.007 147.688 120.286 167.765C119.54 188.613 110.419 257.016 110.419 257.016H99.2702C99.2702 257.016 100.687 189.862 100.192 169.358C99.6474 147.001 92.9496 98.4727 92.9496 98.4727H118.266Z" fill="#263238"/>
<path d="M112.565 252.572C112.616 252.572 111.937 257.2 111.937 257.2H98.3732L98.0044 253.067L112.565 252.572Z" fill="#315131"/>
<path d="M121.459 48.2422C123.346 52.618 125.399 57.1279 127.529 61.4618C129.571 65.7556 131.878 69.9186 134.436 73.9271C135.065 74.8827 135.71 75.7964 136.372 76.6515L136.875 77.2718C137.043 77.4646 137.093 77.5484 137.261 77.7245C137.546 78.043 137.94 78.3951 138.326 78.7555C139.935 80.2141 141.897 81.6476 143.842 83.0811C147.765 85.9228 151.881 88.7394 155.913 91.598L153.641 95.9905C148.859 94.2183 144.199 92.132 139.692 89.7454C137.329 88.519 135.05 87.1384 132.868 85.6127C132.252 85.1711 131.659 84.6982 131.091 84.196C130.806 83.9445 130.437 83.5756 130.178 83.3158L129.448 82.5194C128.509 81.4632 127.646 80.3986 126.824 79.3172C123.76 75.0815 121.025 70.6171 118.643 65.9634C117.469 63.6833 116.321 61.4032 115.29 59.0727C114.259 56.7423 113.152 54.4874 112.213 51.9725L121.459 48.2422Z" fill="#B55B52"/>
<path d="M108.273 48.1515C103.193 55.696 115.089 69.3851 115.089 69.3851L128.392 60.164C127.466 55.4861 125.947 50.9452 123.874 46.6509C119.54 37.5389 112.146 42.426 108.273 48.1515Z" fill="#315131"/>
<g opacity="0.4">
<path d="M108.273 48.1515C103.193 55.696 115.089 69.3851 115.089 69.3851L128.392 60.164C127.466 55.4861 125.947 50.9452 123.874 46.6509C119.54 37.5389 112.146 42.426 108.273 48.1515Z" fill="white"/>
</g>
<path d="M151.914 90.7188L160.096 91.8756L157.958 98.7495C157.958 98.7495 152.149 98.7495 150.414 94.2731L151.914 90.7188Z" fill="#B55B52"/>
<path d="M162.636 94.0713L160.867 99.7045L157.933 98.7489L160.071 91.875L162.636 94.0713Z" fill="#B55B52"/>
</g>
<defs>
<clipPath id="clip0_75030_21026">
<rect width="314.355" height="282.5" fill="white" transform="translate(0.822754)"/>
</clipPath>
</defs>
</svg>
