<svg width="351" height="296" viewBox="0 0 351 296" fill="none" xmlns="http://www.w3.org/2000/svg">
<g clip-path="url(#clip0_75055_22955)">
<path d="M152.064 218.964C232.134 231.975 329.886 223.375 348.578 131.729C365.528 48.591 289.242 -20.9109 203.593 5.84605C166.651 17.3868 149.426 52.836 109.771 58.8361C70.1168 64.8362 19.7425 50.2725 3.59849 101.351C-21.4146 180.428 99.372 210.419 152.064 218.964Z" fill="#72B472"/>
<path opacity="0.9" d="M152.064 218.964C232.134 231.975 329.886 223.375 348.578 131.729C365.528 48.591 289.242 -20.9109 203.593 5.84605C166.651 17.3868 149.426 52.836 109.771 58.8361C70.1168 64.8362 19.7425 50.2725 3.59849 101.351C-21.4146 180.428 99.372 210.419 152.064 218.964Z" fill="white"/>
<path d="M323.601 49.8281H185.507C185.507 49.8281 160.632 72.7994 160.632 128.647C160.632 176.675 179.497 241.794 172.414 268.45C167.073 288.564 141.171 292.019 128.756 292.496H260.198C260.198 292.496 303.426 295.115 310.508 268.45C317.591 241.785 298.726 176.675 298.726 128.638C298.726 72.7626 323.601 49.8281 323.601 49.8281Z" fill="#72B472"/>
<path opacity="0.7" d="M323.601 49.8281H185.507C185.507 49.8281 160.632 72.7994 160.632 128.647C160.632 176.675 179.497 241.794 172.414 268.45C167.073 288.564 141.171 292.019 128.756 292.496H260.198C260.198 292.496 303.426 295.115 310.508 268.45C317.591 241.785 298.726 176.675 298.726 128.638C298.726 72.7626 323.601 49.8281 323.601 49.8281Z" fill="white"/>
<g opacity="0.8">
<path opacity="0.8" d="M286.036 108.727H175.594C178.718 84.1568 187.138 69.8595 191.784 63.6113H298.277C293.054 74.5456 288.125 89.4402 286.036 108.727Z" fill="#72B472"/>
<path opacity="0.3" d="M285.111 121.756H174.513C174.604 119.523 174.733 117.355 174.916 115.26H285.45C285.297 117.373 285.184 119.539 285.111 121.756Z" fill="#72B472"/>
<path opacity="0.3" d="M209.192 134.776H174.476C174.415 132.7 174.381 130.657 174.375 128.647V128.289H209.1V128.638C209.1 130.669 209.128 132.718 209.192 134.776Z" fill="#72B472"/>
<path opacity="0.3" d="M285.77 147.796H175.254C175.062 145.609 174.906 143.44 174.787 141.309H285.349C285.459 143.459 285.599 145.621 285.77 147.796Z" fill="#72B472"/>
<path opacity="0.3" d="M286.989 160.797H176.565C176.309 158.622 176.07 156.457 175.851 154.301H286.366C286.522 156.488 286.751 158.656 286.989 160.797Z" fill="#72B472"/>
<path opacity="0.3" d="M288.583 173.846H178.251C177.949 171.678 177.665 169.509 177.39 167.359H287.759C288.015 169.522 288.29 171.684 288.583 173.846Z" fill="#72B472"/>
<path opacity="0.3" d="M290.407 186.866H180.083C179.766 184.698 179.46 182.535 179.167 180.379H289.481C289.783 182.538 290.095 184.688 290.407 186.866Z" fill="#72B472"/>
<path opacity="0.3" d="M292.358 199.895H182.071C181.897 198.709 181.714 197.506 181.531 196.302L181.091 193.398H291.377C291.707 195.567 292.028 197.735 292.358 199.895Z" fill="#72B472"/>
<path opacity="0.3" d="M183.995 212.915C183.69 210.771 183.385 208.608 183.079 206.428H293.347C293.668 208.596 293.998 210.756 294.309 212.915H183.995Z" fill="#72B472"/>
<path opacity="0.3" d="M185.745 225.934C185.488 223.812 185.204 221.643 184.911 219.447H276.901C277.212 221.634 277.505 223.803 277.817 225.934H185.745Z" fill="#72B472"/>
<path opacity="0.3" d="M187.102 238.963C186.925 236.844 186.723 234.678 186.497 232.467H296.921C297.169 234.69 297.398 236.859 297.59 238.963H187.102Z" fill="#72B472"/>
<path opacity="0.3" d="M187.734 251.983C187.734 249.888 187.651 247.72 187.532 245.496H245.795C245.942 247.766 246.024 249.934 246.052 251.983H187.734Z" fill="#72B472"/>
</g>
<path d="M270.789 285.467C263.78 286.744 256.68 285.77 249.634 285.467C246.255 285.247 242.863 285.337 239.5 285.733C236.202 286.174 232.922 287.038 229.596 286.744C230.695 286.152 231.73 285.447 232.683 284.64C232.726 284.598 232.756 284.546 232.772 284.488C232.788 284.431 232.789 284.37 232.774 284.312C232.759 284.255 232.729 284.202 232.688 284.159C232.646 284.117 232.594 284.086 232.537 284.07C222.193 280.395 212.774 290.337 202.466 288.021C205.389 285.853 209.503 285.807 211.995 282.958C212.041 282.909 212.072 282.847 212.084 282.781C212.096 282.714 212.088 282.646 212.062 282.584C212.036 282.521 211.992 282.468 211.936 282.43C211.881 282.392 211.815 282.371 211.748 282.37C202.53 282.186 193.826 285.761 184.664 286.578C184.224 286.578 184.224 287.304 184.664 287.268C193.505 286.496 201.981 283.105 210.896 283.032C208.229 285.421 204.161 285.503 201.449 287.911C201.407 287.954 201.377 288.007 201.361 288.064C201.346 288.122 201.345 288.183 201.36 288.242C201.375 288.3 201.404 288.353 201.445 288.397C201.487 288.44 201.539 288.472 201.596 288.49C211.986 291.366 221.441 281.424 231.703 284.493C230.633 285.335 229.467 286.047 228.231 286.615C228.173 286.65 228.126 286.701 228.097 286.763C228.068 286.824 228.057 286.892 228.065 286.959C228.074 287.026 228.102 287.09 228.146 287.141C228.19 287.193 228.248 287.23 228.313 287.249C231.694 287.819 235.002 287.093 238.337 286.56C242.071 286.023 245.851 285.875 249.615 286.119C256.735 286.459 263.881 287.424 270.954 286.119C271.422 286.055 271.238 285.384 270.789 285.467Z" fill="#72B472"/>
<path d="M83.7672 83.7363C84.3444 84.4806 85.0865 85.3535 85.7645 86.1621C86.4425 86.9707 87.1847 87.7884 87.9177 88.5787C89.3928 90.1591 90.8863 91.7119 92.4988 93.1729C95.4892 96.0203 98.886 98.4049 102.577 100.248C103.026 100.45 103.494 100.634 103.906 100.799C104.11 100.881 104.318 100.951 104.529 101.011C104.724 101.088 104.927 101.147 105.134 101.185C106.013 101.412 106.912 101.554 107.818 101.608C109.847 101.707 111.88 101.59 113.884 101.259C116.012 100.933 118.12 100.485 120.196 99.9173C122.304 99.366 124.457 98.686 126.463 97.9785L128.296 101.654C124.223 104.207 119.812 106.174 115.194 107.498C112.759 108.197 110.249 108.601 107.717 108.701C106.347 108.757 104.974 108.667 103.622 108.435C103.274 108.38 102.916 108.297 102.568 108.214C102.22 108.132 101.854 108.04 101.551 107.939C100.91 107.746 100.287 107.535 99.7187 107.296C95.0552 105.372 90.7635 102.645 87.0381 99.2373C85.2201 97.6573 83.4861 95.9827 81.8431 94.2204C81.0276 93.3015 80.2305 92.447 79.4609 91.5282C78.6912 90.6093 77.9583 89.6905 77.1611 88.6338L83.7672 83.7363Z" fill="#FFB573"/>
<path d="M74.4496 81.1357C74.248 86.2812 76.2821 95.5616 76.2821 95.5616L88.981 94.0179C88.981 94.0179 89.4483 80.4373 86.9836 77.157C82.8148 71.6715 74.642 76.2658 74.4496 81.1357Z" fill="#72B472"/>
<path d="M124.76 99.2822L130.706 93.8242L131.467 99.7049C131.467 99.7049 129.002 103.022 126.207 101.625L124.76 99.2822Z" fill="#FFB573"/>
<path d="M133.692 94.1458L136.212 97.4537L131.466 99.7049L130.705 93.8242L133.692 94.1458Z" fill="#FFB573"/>
<path d="M132.19 79.2717C132.823 79.2717 133.171 79.2717 133.62 79.2717C133.812 79.2584 134.005 79.2584 134.197 79.2717L134.673 79.336C135.085 79.3845 135.476 79.5397 135.81 79.7862C135.972 79.9777 136.079 80.2094 136.121 80.457L136.332 81.1553L137.184 83.9119L138.888 89.4893L142.287 100.653C144.532 108.096 146.869 115.52 149.031 122.981C153.475 137.885 157.68 152.844 161.812 167.83C165.944 182.817 169.829 197.868 173.824 212.854C177.819 227.841 181.392 243.002 182.666 258.732C182.712 259.784 182.396 260.82 181.772 261.666C181.148 262.512 180.253 263.118 179.236 263.382C178.22 263.645 177.144 263.551 176.189 263.114C175.234 262.678 174.457 261.926 173.989 260.984C167.484 246.613 163.232 231.663 159.512 216.576C155.793 201.488 151.844 186.529 148.197 171.451C144.55 156.372 140.986 141.211 137.651 126.023C135.938 118.442 134.38 110.816 132.74 103.217L130.312 91.8048L129.094 86.0987L128.489 83.2411L128.333 82.5336C128.25 82.2946 128.231 82.038 128.278 81.7893C128.457 81.4249 128.721 81.1095 129.048 80.8705L129.442 80.5764C129.593 80.4609 129.752 80.3565 129.918 80.264C130.312 80.0343 130.596 79.8414 131.164 79.5657C131.484 79.4014 131.833 79.3015 132.19 79.2717Z" fill="#263238"/>
<path d="M181.786 261.102C181.718 260.853 181.554 260.641 181.331 260.512C181.109 260.384 180.844 260.348 180.595 260.412L178.579 260.936L176.564 261.46C176.314 261.525 176.101 261.686 175.969 261.907C175.837 262.129 175.797 262.394 175.858 262.645C177.113 268.434 175.858 272.578 177.196 277.668C178.579 283.025 184.599 285.773 184.599 285.773L184.407 283.485L185.323 285.58C185.323 285.58 189.253 280.25 187.87 274.893C186.569 269.803 183.49 266.771 181.786 261.102Z" fill="#72B472"/>
<path opacity="0.3" d="M181.786 261.102C181.718 260.853 181.554 260.641 181.331 260.512C181.109 260.384 180.844 260.348 180.595 260.412L178.579 260.936L176.564 261.46C176.314 261.525 176.101 261.686 175.969 261.907C175.837 262.129 175.797 262.394 175.858 262.645C177.113 268.434 175.858 272.578 177.196 277.668C178.579 283.025 184.599 285.773 184.599 285.773L184.407 283.485L185.323 285.58C185.323 285.58 189.253 280.25 187.87 274.893C186.569 269.803 183.49 266.771 181.786 261.102Z" fill="white"/>
<path d="M183.352 274.388C183.411 274.629 183.398 274.883 183.314 275.116C183.23 275.35 183.078 275.553 182.879 275.701C182.68 275.849 182.441 275.934 182.194 275.946C181.946 275.958 181.701 275.896 181.488 275.769C181.276 275.641 181.106 275.453 180.999 275.229C180.893 275.004 180.855 274.753 180.891 274.507C180.927 274.261 181.034 274.032 181.2 273.847C181.365 273.662 181.582 273.531 181.822 273.469C182.146 273.388 182.489 273.44 182.776 273.612C183.063 273.784 183.27 274.063 183.352 274.388Z" fill="#263238"/>
<path d="M184.48 283.76C184.444 283.771 184.406 283.775 184.368 283.77C184.331 283.766 184.294 283.754 184.262 283.735C184.229 283.716 184.201 283.691 184.178 283.66C184.156 283.63 184.14 283.595 184.132 283.558L181.859 274.783C181.85 274.747 181.847 274.709 181.852 274.672C181.857 274.635 181.869 274.599 181.888 274.566C181.907 274.534 181.931 274.506 181.961 274.483C181.991 274.46 182.025 274.443 182.061 274.434C182.097 274.423 182.135 274.419 182.172 274.424C182.21 274.428 182.246 274.44 182.279 274.459C182.312 274.478 182.34 274.503 182.362 274.534C182.385 274.564 182.401 274.599 182.409 274.636L184.681 283.411C184.691 283.447 184.693 283.485 184.689 283.522C184.684 283.559 184.672 283.595 184.653 283.628C184.634 283.66 184.609 283.688 184.579 283.711C184.55 283.734 184.516 283.751 184.48 283.76Z" fill="#263238"/>
<path d="M177.058 229.549L164.707 232.756C164.365 232.842 164.002 232.789 163.698 232.609C163.394 232.428 163.174 232.134 163.086 231.791C162.998 231.454 163.044 231.095 163.215 230.792C163.386 230.488 163.668 230.263 164.002 230.165L176.417 226.958C176.753 226.869 177.11 226.916 177.413 227.088C177.716 227.259 177.94 227.542 178.038 227.877C178.086 228.051 178.099 228.233 178.076 228.413C178.052 228.592 177.993 228.765 177.901 228.921C177.81 229.077 177.688 229.213 177.543 229.321C177.398 229.429 177.233 229.506 177.058 229.549Z" fill="#72B472"/>
<path d="M114.361 61.3812C114.141 61.9325 114.26 62.5113 114.617 62.6675C114.975 62.8238 115.451 62.5022 115.671 61.9508C115.891 61.3995 115.781 60.8207 115.414 60.6645C115.048 60.5083 114.59 60.8299 114.361 61.3812Z" fill="#263238"/>
<path d="M115.249 60.6465L116.724 60.8394C116.724 60.8394 115.625 61.5653 115.249 60.6465Z" fill="#263238"/>
<path d="M114.617 62.1172C114.603 63.5963 114.788 65.0706 115.167 66.5001C114.801 66.5783 114.423 66.5752 114.059 66.4911C113.695 66.407 113.354 66.2438 113.06 66.0131L114.617 62.1172Z" fill="#ED893E"/>
<path d="M116.578 58.0176C116.521 58.0066 116.467 57.9813 116.422 57.9441C116.092 57.6419 115.698 57.4201 115.269 57.2958C114.84 57.1715 114.388 57.1481 113.948 57.2274C113.858 57.2501 113.763 57.2369 113.683 57.1906C113.603 57.1443 113.543 57.0686 113.518 56.9793C113.495 56.8892 113.508 56.7938 113.554 56.7132C113.6 56.6327 113.676 56.5732 113.765 56.5474C114.315 56.438 114.884 56.4591 115.425 56.6091C115.966 56.7591 116.464 57.0337 116.88 57.4112C116.913 57.4436 116.939 57.4823 116.957 57.5248C116.974 57.5674 116.983 57.6131 116.983 57.6592C116.983 57.7054 116.974 57.7511 116.957 57.7936C116.939 57.8362 116.913 57.8749 116.88 57.9073C116.843 57.9494 116.796 57.9815 116.743 58.0007C116.69 58.02 116.633 58.0258 116.578 58.0176Z" fill="#263238"/>
<path d="M94.9367 61.0977C95.3306 65.5725 93.8463 72.8957 90.4746 75.3858C90.4746 75.3858 93.0126 80.0903 101.14 81.1837C110.073 82.3874 105.876 77.3429 105.876 77.3429C101.121 75.5052 101.634 71.9493 102.835 68.6782L94.9367 61.0977Z" fill="#FFB573"/>
<path d="M119.281 84.9766C119.986 89.1481 120.857 93.4759 121.764 97.6935C122.249 99.7976 122.735 101.911 123.303 103.978C123.871 106.046 124.439 108.113 125.071 110.144C125.419 111.145 125.731 112.165 126.097 113.139L126.647 114.609L126.775 114.968V115.078C126.794 115.134 126.815 115.19 126.84 115.243C127.029 115.571 127.338 115.812 127.701 115.914C128.426 116.173 129.186 116.319 129.955 116.346C131.921 116.4 133.887 116.24 135.819 115.868C137.844 115.501 139.978 115.005 141.967 114.453L143.643 118.175C142.633 118.778 141.593 119.33 140.528 119.829C139.475 120.346 138.396 120.806 137.294 121.207C134.987 122.11 132.566 122.692 130.101 122.934C128.653 123.066 127.194 122.967 125.777 122.64C123.961 122.225 122.326 121.236 121.113 119.819C120.799 119.439 120.517 119.033 120.27 118.606C120.142 118.395 120.041 118.175 119.931 117.963L119.757 117.55L119.043 115.942C118.575 114.867 118.126 113.792 117.732 112.707C116.944 110.539 116.193 108.361 115.542 106.174C114.892 103.988 114.306 101.782 113.71 99.5771C112.62 95.1482 111.731 90.7653 111.071 86.1803L119.281 84.9766Z" fill="#FFB573"/>
<path d="M141.087 114.71L144.623 111.898L146.217 117.356C146.217 117.356 141.38 120.866 140.088 116.741L141.087 114.71Z" fill="#FFB573"/>
<path d="M147.82 112.863L149.085 116.851L146.217 117.356L144.632 111.898L147.82 112.863Z" fill="#FFB573"/>
<path d="M81.7422 287.977L89.1362 288.529L91.326 271.502L83.932 270.951L81.7422 287.977Z" fill="#FFB573"/>
<path d="M34.3916 266.35L40.7961 270.255L51.4518 256.913L45.0474 253.008L34.3916 266.35Z" fill="#FFB573"/>
<path d="M45.2674 272.22C45.1763 272.234 45.0836 272.234 44.9925 272.22C44.0763 272.22 42.986 270.787 42.4362 269.942C42.4161 269.913 42.4053 269.88 42.4053 269.845C42.4053 269.81 42.4161 269.777 42.4362 269.749C42.4539 269.719 42.4799 269.696 42.5108 269.681C42.5418 269.666 42.5764 269.661 42.6103 269.666C42.9127 269.73 45.5606 270.291 45.9088 271.173C45.9461 271.27 45.9573 271.376 45.9412 271.479C45.9251 271.582 45.8823 271.679 45.8171 271.761C45.6942 271.975 45.4993 272.138 45.2674 272.22ZM42.9768 270.134C43.7556 271.237 44.4978 271.889 45.0017 271.899C45.1114 271.9 45.2194 271.871 45.3145 271.816C45.4096 271.762 45.4882 271.682 45.5423 271.586C45.5667 271.548 45.5797 271.503 45.5797 271.458C45.5797 271.412 45.5667 271.367 45.5423 271.329C45.3957 270.86 44.0305 270.392 42.9768 270.144V270.134Z" fill="#72B472"/>
<path d="M44.8731 269.922C44.1119 270.13 43.315 270.17 42.5367 270.042C42.5077 270.032 42.4817 270.015 42.4609 269.992C42.44 269.97 42.4252 269.943 42.4176 269.913C42.4031 269.888 42.3955 269.859 42.3955 269.83C42.3955 269.801 42.4031 269.773 42.4176 269.748C42.4726 269.683 43.9294 268.186 45.0014 268.232C45.1397 268.233 45.2759 268.266 45.3997 268.328C45.5235 268.39 45.6316 268.48 45.716 268.59C45.8152 268.688 45.8784 268.817 45.895 268.955C45.9117 269.094 45.8808 269.234 45.8077 269.353C45.5652 269.638 45.2376 269.838 44.8731 269.922ZM42.949 269.757C43.8652 269.858 45.2762 269.591 45.5603 269.169C45.5603 269.095 45.6336 268.994 45.487 268.81C45.4329 268.74 45.3636 268.682 45.2842 268.643C45.2049 268.603 45.1176 268.582 45.0289 268.581C44.2307 268.747 43.5039 269.158 42.949 269.757Z" fill="#72B472"/>
<path d="M42.72 268.819L36.6454 262.957C36.545 262.854 36.4101 262.791 36.2665 262.781C36.1229 262.771 35.9806 262.814 35.8666 262.902L30.6808 266.908C30.5558 267.019 30.4557 267.156 30.3872 267.309C30.3186 267.462 30.2832 267.627 30.2832 267.795C30.2832 267.963 30.3186 268.128 30.3872 268.281C30.4557 268.434 30.5558 268.57 30.6808 268.682C32.8339 270.694 33.97 271.558 36.6363 274.14C38.2855 275.729 40.5211 278.21 42.7933 280.406C45.0656 282.602 47.2829 280.526 46.5316 279.414C43.1415 274.434 43.6454 272.568 43.3431 270.023C43.2784 269.562 43.0585 269.138 42.72 268.819Z" fill="#263238"/>
<path d="M92.3432 288.768C91.5607 288.754 90.7815 288.664 90.0159 288.502C89.9807 288.494 89.9485 288.476 89.9239 288.45C89.8993 288.424 89.8834 288.39 89.8785 288.355C89.8738 288.318 89.88 288.281 89.8963 288.249C89.9126 288.216 89.9383 288.189 89.9701 288.171C90.3091 287.996 93.3143 286.48 94.1939 286.995C94.2785 287.038 94.3496 287.104 94.3996 287.185C94.4497 287.266 94.4768 287.359 94.478 287.454C94.4968 287.614 94.4757 287.775 94.4165 287.925C94.3573 288.074 94.2619 288.206 94.139 288.309C93.6093 288.661 92.9763 288.823 92.3432 288.768ZM90.6023 288.254C92.2332 288.52 93.4518 288.456 93.9099 288.051C93.9908 287.982 94.0532 287.894 94.0916 287.794C94.13 287.695 94.1431 287.587 94.1298 287.482C94.1325 287.445 94.1244 287.407 94.1065 287.375C94.0886 287.342 94.0617 287.316 94.029 287.298C93.5342 287.022 91.8392 287.665 90.6023 288.254Z" fill="#72B472"/>
<path d="M90.0532 288.52C90.0202 288.529 89.9853 288.529 89.9524 288.52C89.9255 288.502 89.9042 288.477 89.8912 288.448C89.8781 288.418 89.874 288.386 89.8791 288.354C89.8791 288.226 90.2364 285.193 91.8948 285.193H92.0322C92.5178 285.239 92.6553 285.478 92.6827 285.68C92.8202 286.517 91.0244 288.124 90.1265 288.529L90.0532 288.52ZM91.8856 285.515C90.8228 285.515 90.4013 287.279 90.2731 288.033C91.1893 287.481 92.4079 286.195 92.3254 285.717C92.3254 285.671 92.3254 285.552 91.9864 285.524L91.8856 285.515Z" fill="#72B472"/>
<path d="M89.594 287.473H81.2838C81.1399 287.472 81.0005 287.523 80.89 287.615C80.7795 287.708 80.7048 287.836 80.6791 287.978L79.5613 294.566C79.539 294.731 79.5523 294.899 79.6001 295.059C79.648 295.218 79.7293 295.365 79.8387 295.491C79.9481 295.616 80.0829 295.717 80.2342 295.785C80.3854 295.854 80.5496 295.89 80.7157 295.889C83.611 295.889 85.0128 295.669 88.6686 295.669C90.9133 295.669 95.5586 295.899 98.6647 295.899C101.771 295.899 102.018 292.82 100.726 292.545C94.9631 291.295 92.7275 289.568 90.8217 287.95C90.4817 287.651 90.0467 287.481 89.594 287.473Z" fill="#263238"/>
<path opacity="0.2" d="M91.325 271.503L90.1064 280.967L82.7949 279.736L83.931 270.961L91.325 271.503Z" fill="black"/>
<path opacity="0.2" d="M45.0377 253.008L51.4513 256.922L47.035 262.435L40.4932 258.695L45.0377 253.008Z" fill="black"/>
<path d="M78.0131 120.06L107.946 124.094C119.546 81.9925 116.128 80.8623 116.128 80.8623C114.809 80.2317 113.447 79.6974 112.051 79.2635C110.64 78.7489 109.214 78.2803 107.772 77.8576C104.893 77.0005 101.965 76.3163 99.0039 75.8086C93.2573 74.8177 87.4167 74.4878 81.5955 74.8254C81.0121 74.8663 80.4455 75.0388 79.9378 75.3299C79.4301 75.6211 78.9946 76.0234 78.6636 76.5069C78.5391 76.6863 78.4317 76.8771 78.3429 77.0766C78.0172 77.7759 77.8903 78.5517 77.9764 79.3186C80.5052 101.445 79.6898 108.722 78.0131 120.06Z" fill="#72B472"/>
<path opacity="0.2" d="M110.861 93.725C110.271 98.0814 110.83 102.517 112.482 106.589C114.471 98.3744 115.552 92.8061 116.083 88.947C113.802 88.8459 111.429 89.728 110.861 93.725Z" fill="black"/>
<path d="M115.864 80.7137C120.994 83.654 124.559 90.6649 125.631 94.7354L114.709 104.751C114.709 104.751 109.047 91.547 109.505 87.4489C109.963 83.3508 113.93 79.6019 115.864 80.7137Z" fill="#72B472"/>
<path d="M96.558 51.8607C94.2583 58.8255 93.1405 61.7199 95.1562 66.6817C98.1981 74.152 107.205 75.7324 111.529 69.6588C115.423 64.1916 118.529 53.7167 112.986 48.1485C111.821 46.9062 110.353 45.99 108.727 45.4905C107.102 44.9911 105.374 44.9255 103.715 45.3003C102.056 45.6752 100.524 46.4774 99.2684 47.6279C98.0133 48.7784 97.0791 50.2374 96.558 51.8607Z" fill="#FFB573"/>
<path d="M107.946 58.035C107.463 59.3126 107.386 60.7089 107.726 62.032C108.184 63.8697 109.559 64.0259 110.411 62.8406C111.263 61.6553 111.84 59.5144 110.924 57.9707C110.008 56.427 108.542 56.6292 107.946 58.035Z" fill="#FFB573"/>
<path d="M99.0506 43.1875C94.1029 40.431 85.1972 48.4985 82.9616 61.6656C81.3582 71.093 101.433 75.6505 114.113 75.5035C113.27 73.2798 108.002 66.5906 111.365 60.1495C113.811 55.4725 116.596 56.5568 116.78 51.1172C117.009 44.2626 107.956 39.6683 99.0506 43.1875Z" fill="#263238"/>
<path d="M110.311 46.1458C116.065 45.5853 121.846 51.2546 117.558 56.9056C116.511 56.0633 115.292 55.4621 113.987 55.1445C112.682 54.8269 111.324 54.8008 110.008 55.0679C107.379 55.6559 110.311 46.1458 110.311 46.1458Z" fill="#263238"/>
<path d="M100.048 123.027C100.048 123.027 88.4579 172.296 82.9605 200.606C77.2249 230.468 49.7288 261.58 49.7288 261.58L40.4199 256.361C40.4199 256.361 57.7184 227.969 63.3257 200.082C74.7236 143.481 66.9906 132.087 77.9854 120.068L100.048 123.027Z" fill="#263238"/>
<path d="M50.6822 262.452L39.0186 255.937L40.7227 252.482L53.8065 258.519L50.6822 262.452Z" fill="#72B472"/>
<path opacity="0.2" d="M93.8638 133.732C84.8297 141.606 85.8101 169.567 86.7538 182.118C90.547 164.219 95.1007 144.299 97.7486 132.767C96.8232 132.05 95.5313 132.317 93.8638 133.732Z" fill="black"/>
<path d="M107.506 124.112C107.506 124.112 112.738 182.615 109.879 204.924C106.911 228.135 91.8112 278.625 91.8112 278.625L81.1279 277.247C81.1279 277.247 89.7955 227.207 91.3347 204.235C93.0114 179.178 85.5625 121.162 85.5625 121.162L107.506 124.112Z" fill="#263238"/>
<path d="M94.0749 279.24L78.8838 277.274L79.1128 272.771L95.605 274.37L94.0749 279.24Z" fill="#72B472"/>
<path d="M77.7481 118.25L76.1172 120.74C75.9889 120.933 76.218 121.172 76.557 121.218L107.956 125.445C108.231 125.445 108.469 125.38 108.497 125.215L109.056 122.587C109.056 122.403 108.872 122.21 108.579 122.174L78.2611 118.094C78.1694 118.075 78.0744 118.079 77.9847 118.106C77.8951 118.133 77.8137 118.183 77.7481 118.25Z" fill="#72B472"/>
<path opacity="0.5" d="M77.7481 118.25L76.1172 120.74C75.9889 120.933 76.218 121.172 76.557 121.218L107.956 125.445C108.231 125.445 108.469 125.38 108.497 125.215L109.056 122.587C109.056 122.403 108.872 122.21 108.579 122.174L78.2611 118.094C78.1694 118.075 78.0744 118.079 77.9847 118.106C77.8951 118.133 77.8137 118.183 77.7481 118.25Z" fill="black"/>
<path d="M81.4666 122.208L80.6511 122.098C80.4862 122.098 80.3762 121.979 80.3946 121.877L81.1459 118.459C81.1459 118.367 81.32 118.303 81.4757 118.322L82.2912 118.432C82.4561 118.432 82.566 118.551 82.5477 118.652L81.7964 122.07C81.7781 122.126 81.6223 122.208 81.4666 122.208Z" fill="#263238"/>
<path d="M101.973 124.965L101.158 124.855C101.002 124.855 100.883 124.736 100.901 124.635L101.653 121.216C101.653 121.115 101.827 121.051 101.992 121.079L102.798 121.18C102.963 121.18 103.073 121.308 103.054 121.409L102.303 124.818C102.285 124.965 102.129 124.965 101.973 124.965Z" fill="#263238"/>
</g>
<defs>
<clipPath id="clip0_75055_22955">
<rect width="350" height="295.87" fill="white" transform="translate(0.5)"/>
</clipPath>
</defs>
</svg>
